<svg xmlns="http://www.w3.org/2000/svg" preserveAspectRatio="none" width="100%" height="100%" viewBox="0 0 1440 679">
    <g fill="none" fill-rule="nonzero">
        <path fill="#EDF0F5" d="M0 541.59c27.49-3.68 55.39-6.29 83.5-7.8 89.28-4.74 182.64 2.08 261 14.06 8.94 1.373 17.673 2.803 26.2 4.29 56.56 9.9 122 25.06 197.35 21.41 6.94-.34 13.68-.82 20.22-1.44 34.72-3.26 64.42-10.08 93.48-17l14.66-3.5c19-4.52 38.13-8.85 58.5-12a951.51 951.51 0 0 1 113-10.59 891.05 891.05 0 0 1 28.7-.5 778.72 778.72 0 0 1 85.51 4.42c40.11 4.42 74.3 10.42 112 16 101.74 15 179.59 4.36 255.29-14.67 38.74-9.84 80.34-14.13 122.59-14.94V-576H0V541.59z"/>
        <path fill="#3680AC" d="M0 606c24.607-5.74 49.76-10.54 75.46-14.4 96.85-14.46 202.77-14.9 289.23-7.81 58.77 4.82 127.75 14.15 201.26 3.52 46.47-6.72 81.22-19.68 115.8-32.2-29.06 6.94-58.76 13.76-93.48 17a466.725 466.725 0 0 1-20.22 1.44c-75.35 3.65-140.79-11.51-197.35-21.41-8.527-1.5-17.26-2.93-26.2-4.29-78.36-12-171.72-18.8-261-14.06-28.11 1.51-56 4.12-83.5 7.8V606z"/>
        <path fill="#0F2E3C" d="M0 679c21.087-7.233 42.85-13.717 65.29-19.45 93.8-23.9 201.55-34.5 292-35.61 61.45-.76 134.82 2.05 206.13-15.75 57.48-14.34 92.15-37.11 133-56.6l-14.66 3.5c-34.58 12.52-69.33 25.48-115.8 32.2-73.51 10.63-142.49 1.3-201.26-3.52-86.46-7.09-192.38-6.65-289.23 7.81C49.823 595.42 24.667 600.227 0 606v73z"/>
    </g>
</svg>
