<?xml version="1.0" encoding="UTF-8"?>
<svg width="113px" height="113px" viewBox="0 0 113 113" version="1.1" xmlns="http://www.w3.org/2000/svg" xmlns:xlink="http://www.w3.org/1999/xlink">
    <!-- Generator: Sketch 54.1 (76490) - https://sketchapp.com -->
    <title>Group 9</title>
    <desc>Created with Sketch.</desc>
    <g id="Mockups" stroke="none" stroke-width="1" fill="none" fill-rule="evenodd">
        <g id="ISSUERS" transform="translate(-1065.000000, -1285.000000)">
            <g id="Group-9" transform="translate(1066.500000, 1286.500000)">
                <circle id="Oval" stroke="#4CB0C9" stroke-width="3" fill="#FFFFFF" cx="55" cy="55" r="55"></circle>
                <g id="handshake" transform="translate(22.500000, 38.000000)" fill="#4CB0C9" fill-rule="nonzero">
                    <path d="M63.5060241,10.9235422 C64.2047169,10.9235422 64.7710843,10.3570482 64.7710843,9.65848193 L64.7710843,1.33160241 C64.7710843,0.633036145 64.2047169,0.0665421687 63.5060241,0.0665421687 L56.6746988,0.0665421687 C55.5493012,0.0665421687 54.5940542,0.805590361 54.2664036,1.82358434 L36.4652349,1.82358434 C36.4518253,1.81687952 36.4393012,1.80928916 36.425512,1.80309036 C32.990494,0.242385542 29.2175783,-0.20076506 25.515,0.522090361 L15.2960964,2.51620482 L10.6224578,2.51620482 C10.5793193,1.15854217 9.46429518,0.0665421687 8.09638554,0.0665421687 L1.26506024,0.0665421687 C0.56636747,0.0665421687 0,0.633036145 0,1.33160241 L0,9.46442169 C0,10.162988 0.56636747,10.7294819 1.26506024,10.7294819 C1.96375301,10.7294819 2.53012048,10.162988 2.53012048,9.46442169 L2.53012048,2.59666265 L8.09638554,2.59666265 L8.09638554,26.5806867 L2.53012048,26.5806867 L2.53012048,19.8379157 C2.53012048,19.1393494 1.96375301,18.5728554 1.26506024,18.5728554 C0.56636747,18.5728554 0,19.1393494 0,19.8379157 L0,27.845747 C0,28.5443133 0.56636747,29.1108072 1.26506024,29.1108072 L8.09638554,29.1108072 C9.49149398,29.1108072 10.626506,27.9757952 10.626506,26.5806867 L10.626506,26.5667711 C11.2070422,26.7297108 11.7563313,27.0024578 12.2357892,27.3738795 L12.8264458,27.8313253 C12.9386566,28.8352771 13.4246928,29.7983675 14.2640602,30.4898494 C15.0122169,31.1060602 15.918,31.4061325 16.8189759,31.4061325 C16.9095542,31.4061325 17.000006,31.4019578 17.0903313,31.3958855 C17.2187349,32.4190663 17.723747,33.3396506 18.523012,33.997988 C19.2711687,34.6141988 20.1769518,34.9143976 21.0780542,34.9142711 C21.1686325,34.9142711 21.2589578,34.9102229 21.3492831,34.9041506 C21.4776867,35.9273313 21.9828253,36.8479157 22.7820904,37.5063795 C23.5095,38.1053855 24.403012,38.4249398 25.3333373,38.4249398 C25.4253072,38.4249398 25.5177831,38.4206386 25.6103855,38.4143133 C25.7346145,39.3971386 26.217741,40.3365723 27.0409157,41.0147711 C27.7683253,41.6137771 28.6618373,41.9333313 29.5921627,41.9333313 C29.7229699,41.9333313 29.8546627,41.9268795 29.9866084,41.9142289 C31.0564699,41.8108735 32.0219639,41.297006 32.7053494,40.4673795 L33.7340964,39.218512 C34.0368253,38.8511386 34.2626386,38.4454337 34.4146988,38.0211325 C35.0137048,38.3409398 35.6848193,38.5108373 36.3811084,38.5108373 C36.4016024,38.5108373 36.4220964,38.5105843 36.4425904,38.5103313 C37.5615361,38.4943916 38.6072349,38.0436506 39.3871446,37.2410964 C39.7985422,36.8178072 40.1016506,36.3288614 40.2983675,35.8089217 L40.7349398,36.2332229 C41.547741,37.0231265 42.6012831,37.4163072 43.6541928,37.4163072 C44.7470783,37.4163072 45.8390783,36.992259 46.6590904,36.1485904 C47.124759,35.669512 47.4516506,35.1064337 47.6421687,34.5093253 C48.227512,34.7995301 48.866241,34.9452651 49.5050964,34.9452651 C50.5979819,34.9452651 51.6899819,34.5213434 52.509994,33.6775482 C53.2899036,32.874994 53.7106627,31.8168976 53.6945964,30.6978253 C53.6786566,29.5788795 53.2279157,28.5331807 52.4265,27.7544096 L51.5475361,26.8979639 L54.1445783,25.4961506 L54.1445783,26.5806867 C54.1445783,27.9757952 55.2795904,29.1108072 56.6746988,29.1108072 L63.5060241,29.1108072 C64.2047169,29.1108072 64.7710843,28.5443133 64.7710843,27.845747 L64.7710843,19.4583976 C64.7710843,18.7598313 64.2047169,18.1933373 63.5060241,18.1933373 C62.8073313,18.1933373 62.2409639,18.7598313 62.2409639,19.4583976 L62.2409639,26.5806867 L56.6746988,26.5806867 L56.6746988,23.3831205 C56.6746988,23.3797048 56.6746988,23.3762892 56.6746988,23.3728735 L56.6746988,2.59666265 L62.2409639,2.59666265 L62.2409639,9.65848193 C62.2409639,10.3570482 62.8073313,10.9235422 63.5060241,10.9235422 Z M19.004241,27.0846867 L17.975494,28.3335542 C17.451759,28.9695 16.5085301,29.0608373 15.8727108,28.5368494 C15.2368916,28.0131145 15.1456807,27.069759 15.6694157,26.4340663 L16.6982892,25.1851988 C16.9519337,24.8771566 17.3104518,24.6863855 17.7075542,24.6480542 C17.756512,24.643247 17.8053434,24.6408434 17.8539217,24.6408434 C18.1991566,24.6408434 18.5311084,24.759506 18.8009458,24.9819036 C19.4367651,25.5056386 19.5278494,26.448994 19.004241,27.0846867 Z M23.2630663,30.5932048 L22.2343193,31.8420723 C21.7107108,32.4777651 20.7672289,32.5691024 20.1315361,32.045241 C19.823494,31.7915964 19.6328494,31.4332048 19.5943916,31.0359759 C19.5560602,30.638747 19.6745964,30.2505 19.9283675,29.9424578 L20.957241,28.6934639 C21.2108855,28.3854217 21.5692771,28.1947771 21.966506,28.1564458 C22.0154639,28.1516386 22.0642952,28.1492349 22.1128735,28.1492349 C22.4581084,28.1492349 22.7900602,28.2678976 23.0598976,28.4902952 C23.3679398,28.7439398 23.5585843,29.1024578 23.5970422,29.4996867 C23.6353735,29.8967892 23.5168373,30.2849096 23.2630663,30.5932048 Z M27.5221446,34.1010904 L26.4932711,35.3500843 C26.2396265,35.6581265 25.8812349,35.8487711 25.484006,35.8871024 C25.0863976,35.9259398 24.6982771,35.8071506 24.390488,35.5533795 C24.0824458,35.2997349 23.8916747,34.9412169 23.8532169,34.543988 C23.8148855,34.1468855 23.9334217,33.7586386 24.1871928,33.4504699 L25.2159398,32.2016024 C25.5109518,31.8435904 25.9389217,31.658259 26.3703072,31.658259 C26.7047892,31.658259 27.0411687,31.7697108 27.3188494,31.9984337 C27.9546687,32.5221687 28.0458795,33.4653976 27.5221446,34.1010904 Z M31.7808434,37.6096084 L30.7519699,38.8584759 C30.4983253,39.1665181 30.1398072,39.3572892 29.7427048,39.3956205 C29.3450964,39.4345843 28.9571024,39.3154157 28.6491867,39.0616446 C28.0133675,38.5379096 27.9221566,37.5945542 28.4458916,36.9588614 L29.4747651,35.709994 C29.7284096,35.4019518 30.0869277,35.2113072 30.4841566,35.1729759 C30.5331145,35.1681687 30.5819458,35.1657651 30.6305241,35.1657651 C30.9758855,35.1657651 31.3077108,35.2844277 31.5776747,35.5068253 C31.8857169,35.7604699 32.0763614,36.1188614 32.1148193,36.5160904 C32.1531506,36.9133193 32.0346145,37.3015663 31.7808434,37.6096084 Z M50.6951386,31.9138012 C50.0574217,32.5701145 49.0048916,32.5850422 48.3487048,31.9474518 L44.1543976,27.8711747 C44.1497169,27.8666205 44.1446566,27.8629518 44.1399759,27.8583976 L40.0080361,23.8428434 C39.5070723,23.3557952 38.7060361,23.3674337 38.2191145,23.8682711 C37.7321928,24.3693614 37.7435783,25.1702711 38.2446687,25.6571928 L44.8105843,32.0382831 C45.4667711,32.676 45.4818253,33.7286566 44.8441084,34.3848434 C44.2065181,35.0411566 43.1538614,35.0560843 42.4976747,34.418494 L35.9316325,28.0374036 C35.9184759,28.0245 35.9041807,28.013494 35.8905181,28.0013494 L32.7358373,24.9356024 C32.2348735,24.4486807 31.4339639,24.4601928 30.9469157,24.9610301 C30.459994,25.4621205 30.4713795,26.2630301 30.9724699,26.7499518 L37.5383855,33.1310422 C38.1945723,33.768759 38.2096265,34.8214157 37.5719096,35.4776024 C37.2629819,35.795512 36.8488012,35.974012 36.4056506,35.9803373 C35.9649036,35.9883072 35.543512,35.8199277 35.2254759,35.511 L33.3865843,33.7239759 C33.3453434,33.6838735 33.3013193,33.6484518 33.2562831,33.6150542 C33.232753,33.5948133 33.2099819,33.5738133 33.1858193,33.5539518 C32.362012,32.8755 31.3468012,32.581247 30.3577771,32.6479157 C30.2339277,31.6644578 29.7506747,30.7242651 28.926994,30.0456867 C28.1038193,29.3676145 27.089241,29.0732349 26.1008494,29.1395241 C25.9723193,28.1164699 25.4674337,27.195759 24.6681687,26.5374217 C23.8689036,25.8790843 22.8681145,25.5595301 21.8398735,25.629488 C21.7156446,24.6466627 21.2325181,23.7072289 20.4093434,23.0290301 C19.5797169,22.3457711 18.5341446,22.0268494 17.4637771,22.1296988 C16.3939157,22.2330542 15.4284217,22.7469217 14.7450361,23.5765482 L13.7161627,24.8254157 C13.629759,24.9302892 13.5498072,25.0383253 13.4758012,25.1490181 C12.6218855,24.5581084 11.6453855,24.1575904 10.6261265,23.9749157 L10.6261265,5.0463253 L15.4179217,5.0463253 C15.4992651,5.0463253 15.5803554,5.03848193 15.6603072,5.02279518 L25.9992651,3.00527711 C27.7533976,2.66307831 29.525747,2.62677108 31.257994,2.88623494 C29.9491627,3.47486747 28.7426747,4.2988012 27.6931807,5.33728916 L18.1150301,14.8142349 C16.3781024,16.5326928 16.3466024,19.3599759 18.0448193,21.116512 C18.9122711,22.0140723 20.0838434,22.4839157 21.2698373,22.4837892 C22.0233072,22.4836627 22.7825964,22.2940301 23.4731928,21.9038855 L33.5103072,16.2331265 L36.9758133,16.2331265 L50.661488,29.5676205 C50.9793976,29.8764217 51.1578976,30.2906024 51.1642229,30.7338795 C51.1708012,31.1769036 51.0040663,31.5960181 50.6951386,31.9138012 Z M54.1445783,22.6210482 L49.6481747,25.0475602 L40.6014759,16.233 L41.4898012,16.233 C42.188494,16.233 42.7548614,15.666506 42.7548614,14.9679398 C42.7548614,14.2693735 42.188494,13.7028795 41.4898012,13.7028795 L33.1778494,13.7028795 C32.959753,13.7028795 32.7454518,13.7591747 32.5555663,13.8665783 L22.228753,19.7009096 C21.4545361,20.138494 20.4822108,19.9973133 19.8641024,19.3579518 C19.1242952,18.5927169 19.1380843,17.3611807 19.8947169,16.6126446 L29.4728675,7.1356988 C31.2860783,5.34159036 33.6895663,4.35370482 36.2403072,4.35370482 L54.1445783,4.35370482 L54.1445783,22.6210482 Z" id="Shape"></path>
                    <path d="M64.4004217,13.6947831 C64.1651205,13.4582169 63.8387349,13.3241205 63.5060241,13.3241205 C63.1733133,13.3241205 62.8469277,13.4582169 62.6116265,13.6947831 C62.3763253,13.9300843 62.2409639,14.2553313 62.2409639,14.5891807 C62.2409639,14.9218916 62.3763253,15.2482771 62.6116265,15.4835783 C62.8469277,15.718753 63.1733133,15.854241 63.5060241,15.854241 C63.8387349,15.854241 64.1651205,15.7188795 64.4004217,15.4835783 C64.6357229,15.247012 64.7710843,14.9218916 64.7710843,14.5891807 C64.7710843,14.2552048 64.6357229,13.9300843 64.4004217,13.6947831 Z" id="Path"></path>
                    <path d="M2.15945783,13.6947831 C1.92415663,13.4582169 1.59777108,13.3241205 1.26506024,13.3241205 C0.932349398,13.3241205 0.605963855,13.4582169 0.370662651,13.6947831 C0.135361446,13.9300843 0,14.2553313 0,14.5891807 C0,14.9218916 0.135361446,15.247012 0.370662651,15.4835783 C0.605963855,15.7188795 0.932349398,15.854241 1.26506024,15.854241 C1.59777108,15.854241 1.92415663,15.7188795 2.15945783,15.4835783 C2.39475904,15.247012 2.53012048,14.9218916 2.53012048,14.5891807 C2.53012048,14.2552048 2.39475904,13.9300843 2.15945783,13.6947831 Z" id="Path"></path>
                </g>
            </g>
        </g>
    </g>
</svg>