<?xml version="1.0" encoding="UTF-8"?>
<svg width="114px" height="113px" viewBox="0 0 114 113" version="1.1" xmlns="http://www.w3.org/2000/svg" xmlns:xlink="http://www.w3.org/1999/xlink">
    <!-- Generator: Sketch 54.1 (76490) - https://sketchapp.com -->
    <title>Group 8</title>
    <desc>Created with Sketch.</desc>
    <g id="Mockups" stroke="none" stroke-width="1" fill="none" fill-rule="evenodd">
        <g id="ISSUERS" transform="translate(-663.000000, -1285.000000)">
            <g id="Group-8" transform="translate(665.000000, 1286.500000)">
                <circle id="Oval" stroke="#4CB0C9" stroke-width="3" fill="#FFFFFF" cx="55" cy="55" r="55"></circle>
                <g id="payment-method" transform="translate(27.000000, 25.000000)" fill="#4CB0C9" fill-rule="nonzero">
                    <path d="M20.2207031,45.9260156 C20.2054688,45.8510156 20.1832031,45.7771875 20.1539063,45.7057031 C20.1246094,45.6353906 20.0882813,45.5674219 20.0460938,45.5041406 C20.0039063,45.4396875 19.9546875,45.3799219 19.9007813,45.3260156 C19.846875,45.2721094 19.7871094,45.2228906 19.7226563,45.1807031 C19.659375,45.1385156 19.5914063,45.1021875 19.5199219,45.0728906 C19.4496094,45.0435937 19.3757813,45.0201562 19.3007813,45.0060937 C19.1496094,44.975625 18.99375,44.975625 18.84375,45.0060937 C18.76875,45.0201562 18.6949219,45.0435937 18.6234375,45.0728906 C18.553125,45.1021875 18.4851563,45.1385156 18.421875,45.1807031 C18.3574219,45.2228906 18.2976563,45.2721094 18.24375,45.3260156 C18.1898438,45.3799219 18.140625,45.4396875 18.0984375,45.5041406 C18.0550781,45.5674219 18.0199219,45.6353906 17.990625,45.7057031 C17.9613281,45.7771875 17.9378906,45.8510156 17.9238281,45.9260156 C17.9085938,46.0010156 17.9003906,46.0783594 17.9003906,46.1545312 C17.9003906,46.2307031 17.9085938,46.3080469 17.9238281,46.3830469 C17.9378906,46.4580469 17.9613281,46.531875 17.990625,46.6021875 C18.0199219,46.6736719 18.0550781,46.7416406 18.0984375,46.8049219 C18.140625,46.869375 18.1898438,46.9291406 18.24375,46.9830469 C18.2976563,47.0369531 18.3574219,47.0861719 18.421875,47.1283594 C18.4851563,47.1706641 18.553125,47.2069922 18.6234375,47.2362891 C18.6949219,47.2655859 18.76875,47.2890234 18.84375,47.3030859 C18.91875,47.3183203 18.9960938,47.3265234 19.0722656,47.3265234 C19.1484375,47.3265234 19.2257813,47.3183203 19.3007813,47.3030859 C19.3757813,47.2890234 19.4496094,47.2655859 19.5199219,47.2362891 C19.5914063,47.2069922 19.659375,47.1705469 19.7226563,47.1283594 C19.7871094,47.0861719 19.846875,47.0369531 19.9007813,46.9830469 C19.9546875,46.9291406 20.0039063,46.869375 20.0460938,46.8049219 C20.0882813,46.7416406 20.1246094,46.6736719 20.1539063,46.6021875 C20.1832031,46.531875 20.2054688,46.4580469 20.2207031,46.3830469 C20.2359375,46.3080469 20.2441406,46.2307031 20.2441406,46.1545312 C20.2441406,46.0783594 20.2359375,46.0010156 20.2207031,45.9260156 Z" id="Path"></path>
                    <path d="M53.9054297,46.2869531 C53.9008594,46.2752344 53.8961719,46.2636328 53.89125,46.2521484 C52.8126562,43.7282813 50.2830469,42.7954687 47.289375,43.8179297 L39.1251562,46.0756641 C38.653125,44.6462109 37.4757422,43.4298047 35.8109766,42.8119922 C35.8006641,42.8082422 35.7903516,42.8044922 35.7799219,42.8009766 L26.8055859,39.7550391 C26.0586328,38.7895312 23.7188672,36.3189844 19.3380469,36.3189844 C16.2765234,36.3189844 13.5682031,38.4192187 12.01875,40.7084766 L1.171875,40.7084766 C0.524648437,40.7084766 0,41.233125 0,41.8803516 L0,56.655 C0,57.3022266 0.524648437,57.826875 1.171875,57.826875 L8.13949219,57.826875 C8.78671875,57.826875 9.31136719,57.3022266 9.31136719,56.655 L9.31136719,55.6432031 L12.5789062,55.6432031 C13.2261328,55.6432031 13.7507812,55.1185547 13.7507812,54.4713281 L13.7507812,54.1340625 C15.6555469,54.3002344 16.2820312,54.6615234 18.0314062,55.6702734 C19.3767187,56.4460547 21.4100391,57.6185156 25.0716797,59.2648828 C25.0886719,59.2725 25.1058984,59.2797656 25.123125,59.2865625 C25.8258984,59.5630078 27.1996875,59.9973047 28.8933984,59.9973047 C30.0723047,59.9973047 31.4064844,59.7867187 32.7759375,59.1659766 L50.8217578,52.7047266 C50.8538672,52.6932422 50.8855078,52.6803516 50.9164453,52.6660547 C52.6410937,51.8725781 55.2111328,49.6362891 53.9054297,46.2869531 Z M6.96761719,55.4830078 L2.34375,55.4830078 L2.34375,43.0521094 L6.96761719,43.0521094 L6.96761719,55.4830078 Z M11.4070312,53.2993359 L9.31136719,53.2993359 L9.31136719,43.0521094 L11.4070312,43.0521094 L11.4070312,53.2993359 Z M49.98,50.5164844 L31.9422656,56.9748047 C31.9264453,56.9804297 31.905,56.9888672 31.8894141,56.9951953 C31.8735937,57.0016406 31.8577734,57.0084375 31.8421875,57.0155859 C29.3300391,58.1701172 26.9421094,57.4789453 26.00625,57.1150781 C22.4692969,55.5235547 20.5815234,54.435 19.2022266,53.6396484 C17.2845703,52.5338672 16.3605469,52.0008984 13.7507812,51.7853906 L13.7507812,42.346875 C14.8616016,40.52625 17.0157422,38.6626172 19.3381641,38.6626172 C23.3208984,38.6626172 25.0085156,41.2530469 25.0748437,41.3575781 C25.2179297,41.5903125 25.4378906,41.7657422 25.6965234,41.8535156 L35.01,45.0145313 C36.4974609,45.5728125 37.2835547,46.8466406 36.9222656,48.1169531 C36.7555078,48.7035938 36.3701953,49.1901563 35.8374609,49.4869922 C35.3092969,49.78125 34.69875,49.8540234 34.1167969,49.6930078 L23.6176172,46.3658203 C23.0002734,46.1702344 22.3419141,46.5119531 22.1464453,47.1289453 C21.9508594,47.7459375 22.2925781,48.4045313 22.9095703,48.6001172 L33.4270312,51.9330469 C33.4381641,51.9365625 33.4492969,51.9399609 33.4605469,51.943125 C33.8804297,52.0625391 34.3079297,52.1216016 34.7328516,52.1216016 C35.5107422,52.1216016 36.2800781,51.9234375 36.9782812,51.534375 C38.0579297,50.9328516 38.8386328,49.9468359 39.1766016,48.7579687 C39.2035547,48.6630469 39.2274609,48.568125 39.2482031,48.4732031 L48.0469922,46.0357031 C49.3177734,45.6016406 50.9859375,45.4451953 51.7286719,47.1557812 C52.4974219,49.1640234 50.499375,50.26875 49.98,50.5164844 Z" id="Shape"></path>
                    <path d="M42.0773438,15.4151953 C42.0621094,15.3401953 42.0398438,15.2663672 42.009375,15.1948828 C41.9800781,15.1245703 41.9449219,15.0566016 41.9015625,14.9933203 C41.859375,14.9288672 41.8101563,14.8691016 41.75625,14.8151953 C41.7023438,14.7612891 41.6425781,14.7120703 41.578125,14.6698828 C41.5148438,14.6276953 41.446875,14.5913672 41.3765625,14.5620703 C41.3050781,14.5327734 41.23125,14.5093359 41.1574219,14.4952734 C41.00625,14.4648047 40.8503906,14.4648047 40.6992188,14.4952734 C40.6242188,14.5093359 40.5503906,14.5327734 40.4800781,14.5620703 C40.4085938,14.5913672 40.340625,14.6276953 40.2773438,14.6698828 C40.2128906,14.7120703 40.153125,14.7612891 40.0992187,14.8151953 C40.0453125,14.8691016 39.9960938,14.9288672 39.9539063,14.9933203 C39.9117187,15.0566016 39.8753906,15.1245703 39.8460937,15.1948828 C39.8167969,15.2663672 39.7933594,15.3401953 39.7792969,15.4151953 C39.7640625,15.4901953 39.7558594,15.5675391 39.7558594,15.6437109 C39.7558594,15.7198828 39.7640625,15.7972266 39.7792969,15.8722266 C39.7933594,15.9472266 39.8167969,16.0210547 39.8460937,16.0913672 C39.8753906,16.1628516 39.9117187,16.2308203 39.9539063,16.2941016 C39.9960938,16.3585547 40.0453125,16.4183203 40.0992187,16.4722266 C40.153125,16.5261328 40.2128906,16.5753516 40.2773438,16.6175391 C40.340625,16.6597266 40.4085938,16.6960547 40.4800781,16.7253516 C40.5503906,16.7546484 40.6242188,16.7769141 40.6992188,16.7921484 C40.7742188,16.8073828 40.8515625,16.8155859 40.9277344,16.8155859 C41.0039062,16.8155859 41.08125,16.8073828 41.1574219,16.7921484 C41.23125,16.7769141 41.3050781,16.7546484 41.3765625,16.7253516 C41.446875,16.6960547 41.5148437,16.6597266 41.578125,16.6175391 C41.6425781,16.5753516 41.7023438,16.5261328 41.75625,16.4722266 C41.8101562,16.4183203 41.859375,16.3585547 41.9015625,16.2941016 C41.9449219,16.2308203 41.9800781,16.1628516 42.009375,16.0913672 C42.0398438,16.0210547 42.0621094,15.9472266 42.0773437,15.8722266 C42.0925781,15.7972266 42.0996094,15.7198828 42.0996094,15.6437109 C42.0996094,15.5675391 42.0925781,15.4901953 42.0773438,15.4151953 Z" id="Path"></path>
                    <path d="M58.828125,3.97160156 L51.8605078,3.97160156 C51.2132812,3.97160156 50.6886328,4.49625 50.6886328,5.14347656 L50.6886328,6.15527344 L47.4210937,6.15527344 C46.7738672,6.15527344 46.2492187,6.67992188 46.2492187,7.32714844 L46.2492187,7.66441406 C44.3444531,7.498125 43.7179687,7.13695313 41.9687109,6.12820313 C40.6233984,5.35242188 38.5900781,4.17996094 34.9283203,2.53359375 C34.9113281,2.52585938 34.8942187,2.51871094 34.8767578,2.51191406 C33.6848437,2.04292969 30.5609766,1.12019531 27.2245312,2.63226563 L22.5089062,4.32070313 L18.5340234,0.3459375 C18.0764062,-0.111679688 17.334375,-0.111679688 16.8767578,0.3459375 L3.82699219,13.3955859 C3.40488281,13.8178125 3.32390625,14.5498828 3.82699219,15.0529688 L26.12625,37.3522266 C26.4830859,37.7091797 27.3186328,37.8171094 27.7836328,37.3522266 L39.6975,25.4384766 C40.0072266,25.4651953 40.3286719,25.4796094 40.6618359,25.4796094 C43.7234766,25.4796094 46.4316797,23.379375 47.9810156,21.0902344 L58.828125,21.0902344 C59.4753516,21.0902344 60,20.5655859 60,19.9183594 L60,5.14347656 C60,4.49625 59.4753516,3.97160156 58.828125,3.97160156 Z M17.7052734,2.83183594 L20.3762109,5.50277344 C19.5822656,5.99378906 18.6643359,6.25652344 17.7052734,6.25652344 C16.7460937,6.25652344 15.8282812,5.99390625 15.0343359,5.50277344 L17.7052734,2.83183594 Z M8.98394531,16.8952734 L6.31300781,14.2242188 L8.98394531,11.5532813 C9.47496094,12.3472266 9.73769531,13.2651563 9.73769531,14.2242188 C9.73769531,15.1832813 9.47507812,16.1012109 8.98394531,16.8952734 Z M26.955,34.8662109 L24.2845313,32.1957422 C25.9149609,31.1895703 27.9948047,31.1895703 29.6253516,32.1957422 L26.955,34.8662109 Z M31.3137891,30.5075391 C28.7241797,28.6290234 25.1858203,28.6290234 22.5962109,30.5075391 L10.6722656,18.5834766 C11.5873828,17.3248828 12.0814453,15.8130469 12.0814453,14.2242188 C12.0814453,12.6352734 11.5875,11.1235547 10.6722656,9.86496094 L13.3461328,7.19121094 C14.6047266,8.10632813 16.1164453,8.60039063 17.7053906,8.60039063 C19.2943359,8.60039063 20.8060547,8.10632813 22.0646484,7.19121094 L24.5992969,9.72585938 C24.0523828,9.80660156 23.5190625,9.98683594 23.0217187,10.2639844 C22.1817187,10.7320313 21.5226562,11.4329297 21.1122656,12.2808984 C19.7903906,12.5257031 18.5666016,13.1656641 17.6066016,14.1255469 C15.0021094,16.7301563 15.0021094,20.9680078 17.6067187,23.5726172 C18.9089062,24.8748047 20.6194922,25.5260156 22.3301953,25.5260156 C24.0407812,25.5260156 25.7514844,24.8749219 27.0537891,23.5726172 C27.9010547,22.7253516 28.4946094,21.6840234 28.7919141,20.5491797 L32.7486328,21.8920313 C32.3032031,23.9554688 32.7594141,26.12625 33.99,27.8313281 L31.3137891,30.5075391 Z M24.1890234,18.9864844 C24.1993359,18.9902344 24.2096484,18.9939844 24.2200781,18.9975 L26.5633594,19.7928516 C26.3864062,20.5914844 25.9859766,21.3257813 25.3965234,21.9153516 C23.7057422,23.6058984 20.9546484,23.6061328 19.2641016,21.9153516 C17.5733203,20.2246875 17.5733203,17.4737109 19.2641016,15.7829297 C19.6719141,15.3748828 20.1532031,15.0560156 20.6776172,14.8398047 C20.8939453,16.6400391 22.1901562,18.2446875 24.1890234,18.9864844 Z M35.6785547,26.1426563 C35.2262109,25.4055469 34.9702734,24.5642578 34.9298437,23.705625 C35.4911719,24.1114453 36.1771875,24.5090625 36.9965625,24.8246484 L35.6785547,26.1426563 Z M46.2491016,19.4511328 C45.1383984,21.2719922 42.9842578,23.135625 40.6618359,23.135625 C40.2273047,23.135625 39.8200781,23.1046875 39.4393359,23.0496094 C39.4378125,23.049375 39.4362891,23.0491406 39.4347656,23.0489063 C36.9039844,22.6812891 35.5426172,21.2429297 35.0939062,20.6733984 C35.07,20.6382422 34.9681641,20.505 34.9530469,20.4828516 C34.8165234,20.2388672 34.5926953,20.0426953 34.3072266,19.9457813 L24.9898828,16.7834766 C23.5030078,16.2254297 22.7170313,14.9521875 23.0772656,13.6823438 C23.0775,13.6815234 23.0777344,13.6807031 23.0779688,13.6798828 C23.0783203,13.6789453 23.0785547,13.6778906 23.0787891,13.6769531 C23.24625,13.0921875 23.6308594,12.6071484 24.1624219,12.3110156 C24.6904688,12.0167578 25.3008984,11.94375 25.8830859,12.1051172 L36.3822656,15.4321875 C36.999375,15.6280078 37.6579687,15.2860547 37.8534375,14.6690625 C38.0489062,14.0520703 37.7073047,13.3934766 37.0903125,13.1978906 L28.7401172,10.5517969 L28.6672266,10.4789063 C28.6665234,10.4782031 28.6658203,10.4773828 28.665,10.4766797 L24.3419531,6.15363281 L28.0577344,4.82308594 C28.0702734,4.81851562 28.0857422,4.81277344 28.0981641,4.80773437 C28.1013281,4.80644531 28.1074219,4.80410156 28.1104687,4.8028125 C28.1264062,4.79636719 28.1421094,4.78957031 28.1576953,4.78242187 C30.6697266,3.62789062 33.0575391,4.31894531 33.9935156,4.68292969 C37.5305859,6.27445313 39.4184766,7.36300781 40.7977734,8.15835938 C42.7154297,9.26425781 43.6394531,9.79710938 46.2491016,10.0126172 L46.2491016,19.4511328 L46.2491016,19.4511328 Z M50.6886328,18.74625 L48.5929687,18.74625 L48.5929687,8.49902344 L50.6886328,8.49902344 L50.6886328,18.74625 Z M57.65625,18.74625 L53.0323828,18.74625 L53.0323828,6.31535156 L57.65625,6.31535156 L57.65625,18.74625 Z" id="Shape"></path>
                </g>
            </g>
        </g>
    </g>
</svg>