<?xml version="1.0" encoding="UTF-8"?>
<svg width="20px" height="20px" viewBox="0 0 20 20" version="1.1" xmlns="http://www.w3.org/2000/svg" xmlns:xlink="http://www.w3.org/1999/xlink">
    <!-- Generator: Sketch 54.1 (76490) - https://sketchapp.com -->
    <title>brick-wall</title>
    <desc>Created with Sketch.</desc>
    <g id="Mockups" stroke="none" stroke-width="1" fill="none" fill-rule="evenodd">
        <g id="ABOUT-US" transform="translate(-970.000000, -1193.000000)" fill="#FFFFFF" fill-rule="nonzero">
            <g id="Module-2" transform="translate(0.000000, 1080.000000)">
                <g id="Group-7" transform="translate(950.000000, 92.000000)">
                    <g id="brick-wall" transform="translate(20.000000, 21.000000)">
                        <path d="M0,5.1875 L2.34375,5.1875 L2.34375,7.53125 L0,7.53125 L0,12.21875 L2.34375,12.21875 L2.34375,14.5625 L0,14.5625 L0,19.25 L20,19.25 L20,14.5625 L17.65625,14.5625 L17.65625,12.21875 L20,12.21875 L20,7.53125 L17.65625,7.53125 L17.65625,5.1875 L20,5.1875 L20,0.5 L0,0.5 L0,5.1875 Z M3.515625,5.1875 L9.4140625,5.1875 L9.4140625,7.53125 L3.515625,7.53125 L3.515625,5.1875 Z M7.0703125,4.015625 L7.0703125,1.671875 L12.9296875,1.671875 L12.9296875,4.015625 L7.0703125,4.015625 Z M7.0703125,11.046875 L7.0703125,8.703125 L12.9296875,8.703125 L12.9296875,11.046875 L7.0703125,11.046875 Z M1.171875,8.703125 L5.8984375,8.703125 L5.8984375,11.046875 L1.171875,11.046875 L1.171875,8.703125 Z M3.515625,12.21875 L9.4140625,12.21875 L9.4140625,14.5625 L3.515625,14.5625 L3.515625,12.21875 Z M12.9296875,15.734375 L12.9296875,18.078125 L7.0703125,18.078125 L7.0703125,15.734375 L12.9296875,15.734375 Z M1.171875,15.734375 L5.8984375,15.734375 L5.8984375,18.078125 L1.171875,18.078125 L1.171875,15.734375 Z M18.828125,18.078125 L14.1015625,18.078125 L14.1015625,15.734375 L18.828125,15.734375 L18.828125,18.078125 Z M16.484375,14.5625 L10.5859375,14.5625 L10.5859375,12.21875 L16.484375,12.21875 L16.484375,14.5625 Z M18.828125,11.046875 L14.1015625,11.046875 L14.1015625,8.703125 L18.828125,8.703125 L18.828125,11.046875 Z M16.484375,7.53125 L10.5859375,7.53125 L10.5859375,5.1875 L16.484375,5.1875 L16.484375,7.53125 Z M18.828125,4.015625 L14.1015625,4.015625 L14.1015625,1.671875 L18.828125,1.671875 L18.828125,4.015625 Z M1.171875,1.671875 L5.8984375,1.671875 L5.8984375,4.015625 L1.171875,4.015625 L1.171875,1.671875 Z" id="Shape"></path>
                    </g>
                </g>
            </g>
        </g>
    </g>
</svg>