<?xml version="1.0" encoding="UTF-8"?>
<svg width="26px" height="27px" viewBox="0 0 26 27" version="1.1" xmlns="http://www.w3.org/2000/svg" xmlns:xlink="http://www.w3.org/1999/xlink">
    <!-- Generator: Sketch 54.1 (76490) - https://sketchapp.com -->
    <title>sun</title>
    <desc>Created with Sketch.</desc>
    <g id="Mockups" stroke="none" stroke-width="1" fill="none" fill-rule="evenodd">
        <g id="ABOUT-US" transform="translate(-967.000000, -1289.000000)" fill="#FFFFFF" fill-rule="nonzero">
            <g id="Module-2" transform="translate(0.000000, 1080.000000)">
                <g id="Group-8" transform="translate(950.000000, 191.666667)">
                    <g id="sun" transform="translate(17.000000, 17.500000)">
                        <path d="M13,19.2444444 C16.4444444,19.2444444 19.2222222,16.4444444 19.2222222,13.0222222 C19.2222222,9.6 16.4222222,6.8 13,6.8 C9.57777778,6.8 6.77777778,9.6 6.77777778,13.0222222 C6.77777778,16.4444444 9.55555556,19.2444444 13,19.2444444 Z M13,8.6 C15.4444444,8.6 17.4222222,10.5777778 17.4222222,13.0222222 C17.4222222,15.4666667 15.4444444,17.4444444 13,17.4444444 C10.5555556,17.4444444 8.57777778,15.4666667 8.57777778,13.0222222 C8.57777778,10.5777778 10.5555556,8.6 13,8.6 Z" id="Shape"></path>
                        <path d="M13.9111111,3.91111111 L13.9111111,1.04444444 C13.9111111,0.533333333 13.5111111,0.133333333 13,0.133333333 C12.4888889,0.133333333 12.0888889,0.533333333 12.0888889,1.04444444 L12.0888889,3.91111111 C12.0888889,4.42222222 12.4888889,4.82222222 13,4.82222222 C13.5111111,4.82222222 13.9111111,4.42222222 13.9111111,3.91111111 Z" id="Path"></path>
                        <path d="M12.0888889,22.1333333 L12.0888889,25 C12.0888889,25.5111111 12.4888889,25.9111111 13,25.9111111 C13.5111111,25.9111111 13.9111111,25.5111111 13.9111111,25 L13.9111111,22.1333333 C13.9111111,21.6222222 13.5111111,21.2222222 13,21.2222222 C12.4888889,21.2222222 12.0888889,21.6222222 12.0888889,22.1333333 Z" id="Path"></path>
                        <path d="M20.0888889,7.22222222 L22.1111111,5.2 C22.4666667,4.84444444 22.4666667,4.26666667 22.1111111,3.91111111 C21.7555556,3.55555556 21.1777778,3.55555556 20.8222222,3.91111111 L18.8,5.93333333 C18.4444444,6.28888889 18.4444444,6.86666667 18.8,7.22222222 C18.9777778,7.4 19.2,7.48888889 19.4444444,7.48888889 C19.6888889,7.48888889 19.9111111,7.4 20.0888889,7.22222222 L20.0888889,7.22222222 Z" id="Path"></path>
                        <path d="M3.88888889,22.1333333 C4.06666667,22.3111111 4.28888889,22.4 4.53333333,22.4 C4.75555556,22.4 5,22.3111111 5.17777778,22.1333333 L7.2,20.1111111 C7.55555556,19.7555556 7.55555556,19.1777778 7.2,18.8222222 C6.84444444,18.4666667 6.26666667,18.4666667 5.91111111,18.8222222 L3.88888889,20.8444444 C3.53333333,21.2 3.53333333,21.7777778 3.88888889,22.1333333 Z" id="Path"></path>
                        <path d="M25.8888889,13.0222222 C25.8888889,12.5111111 25.4888889,12.1111111 24.9777778,12.1111111 L22.1111111,12.1111111 C21.6,12.1111111 21.2,12.5111111 21.2,13.0222222 C21.2,13.5333333 21.6,13.9333333 22.1111111,13.9333333 L24.9777778,13.9333333 C25.4666667,13.9333333 25.8888889,13.5333333 25.8888889,13.0222222 Z" id="Path"></path>
                        <path d="M1.02222222,13.9333333 L3.88888889,13.9333333 C4.4,13.9333333 4.8,13.5333333 4.8,13.0222222 C4.8,12.5111111 4.4,12.1111111 3.88888889,12.1111111 L1.02222222,12.1111111 C0.511111111,12.1111111 0.111111111,12.5111111 0.111111111,13.0222222 C0.111111111,13.5333333 0.533333333,13.9333333 1.02222222,13.9333333 Z" id="Path"></path>
                        <path d="M21.4666667,22.4 C21.6888889,22.4 21.9333333,22.3111111 22.1111111,22.1333333 C22.4666667,21.7777778 22.4666667,21.2 22.1111111,20.8444444 L20.0888889,18.8222222 C19.7333333,18.4666667 19.1555556,18.4666667 18.8,18.8222222 C18.4444444,19.1777778 18.4444444,19.7555556 18.8,20.1111111 L20.8222222,22.1333333 C21,22.3111111 21.2444444,22.4 21.4666667,22.4 L21.4666667,22.4 Z" id="Path"></path>
                        <path d="M7.2,7.22222222 C7.55555556,6.86666667 7.55555556,6.28888889 7.2,5.93333333 L5.17777778,3.91111111 C4.82222222,3.55555556 4.24444444,3.55555556 3.88888889,3.91111111 C3.53333333,4.26666667 3.53333333,4.84444444 3.88888889,5.2 L5.91111111,7.22222222 C6.08888889,7.4 6.31111111,7.48888889 6.55555556,7.48888889 C6.8,7.48888889 7.02222222,7.4 7.2,7.22222222 L7.2,7.22222222 Z" id="Path"></path>
                    </g>
                </g>
            </g>
        </g>
    </g>
</svg>