<?xml version="1.0" encoding="UTF-8"?>
<svg width="24px" height="24px" viewBox="0 0 24 24" version="1.1" xmlns="http://www.w3.org/2000/svg" xmlns:xlink="http://www.w3.org/1999/xlink">
    <!-- Generator: Sketch 54.1 (76490) - https://sketchapp.com -->
    <title>skyscrapper</title>
    <desc>Created with Sketch.</desc>
    <g id="Mockups" stroke="none" stroke-width="1" fill="none" fill-rule="evenodd">
        <g id="ABOUT-US" transform="translate(-969.000000, -1388.000000)" fill="#FFFFFF" fill-rule="nonzero">
            <g id="Module-2" transform="translate(0.000000, 1080.000000)">
                <g id="Group-5" transform="translate(950.000000, 291.333333)">
                    <g id="skyscrapper" transform="translate(19.500000, 17.500000)">
                        <polygon id="Path" points="8.13085937 12.21875 10.8261719 12.21875 10.8261719 13.5664063 8.13085937 13.5664063"></polygon>
                        <polygon id="Path" points="12.1738281 12.21875 14.8691406 12.21875 14.8691406 13.5664063 12.1738281 13.5664063"></polygon>
                        <polygon id="Path" points="8.13085937 14.9140625 10.8261719 14.9140625 10.8261719 16.2617187 8.13085937 16.2617187"></polygon>
                        <polygon id="Path" points="12.1738281 14.9140625 14.8691406 14.9140625 14.8691406 16.2617187 12.1738281 16.2617187"></polygon>
                        <polygon id="Path" points="8.13085937 17.609375 10.8261719 17.609375 10.8261719 18.9570312 8.13085937 18.9570312"></polygon>
                        <polygon id="Path" points="12.1738281 17.609375 14.8691406 17.609375 14.8691406 18.9570312 12.1738281 18.9570312"></polygon>
                        <path d="M23,18.2832031 C23,17.4223175 22.3488083,14.9140625 20.9785156,14.9140625 C19.6269989,14.9140625 18.9570312,17.3945923 18.9570312,18.2832031 C18.9570312,19.1616364 19.5203094,19.9105682 20.3046875,20.1888733 L20.3046875,21.6523437 L17.5644531,21.6523437 L17.5644531,9.5234375 L16.2167969,9.5234375 L16.2167969,6.828125 L13.5214844,6.828125 L13.5214844,2.6953125 L12.1738281,2.6953125 L12.1738281,0 L10.8261719,0 L10.8261719,2.6953125 L9.47851562,2.6953125 L9.47851562,6.828125 L6.78320312,6.828125 L6.78320312,9.5234375 L5.43554687,9.5234375 L5.43554687,21.6523437 L2.6953125,21.6523437 L2.6953125,20.1888733 C3.47969057,19.9105682 4.04296875,19.1616364 4.04296875,18.2832031 C4.04296875,17.4223175 3.39177703,14.9140625 2.02148437,14.9140625 C0.669967629,14.9140625 0,17.3945923 0,18.2832031 C0,19.1616364 0.563278176,19.9105682 1.34765625,20.1888733 L1.34765625,21.6523437 L0,21.6523437 L0,23 L23,23 L23,21.6523437 L21.6523437,21.6523437 L21.6523437,20.1888733 C22.4367218,19.9105682 23,19.1616364 23,18.2832031 Z M2.02148437,16.3271713 C2.37226106,16.7458572 2.6953125,17.8136292 2.6953125,18.2832031 C2.6953125,18.654686 2.39296721,18.9570312 2.02148437,18.9570312 C1.65000154,18.9570312 1.34765625,18.654686 1.34765625,18.2832031 C1.34765625,17.803627 1.67421721,16.7416458 2.02148437,16.3271713 Z M10.8261719,4.04296875 L12.1738281,4.04296875 L12.1738281,6.828125 L10.8261719,6.828125 L10.8261719,4.04296875 Z M8.13085937,8.17578125 L14.8691406,8.17578125 L14.8691406,9.5234375 L8.13085937,9.5234375 L8.13085937,8.17578125 Z M6.78320313,10.8710938 L16.2167969,10.8710938 L16.2167969,21.6523437 L12.1738281,21.6523437 L12.1738281,20.3046875 L10.8261719,20.3046875 L10.8261719,21.6523437 L6.78320313,21.6523437 L6.78320313,10.8710938 Z M20.9785156,16.3271713 C21.3292923,16.7458572 21.6523437,17.8136292 21.6523437,18.2832031 C21.6523437,18.654686 21.3499985,18.9570312 20.9785156,18.9570312 C20.6070328,18.9570312 20.3046875,18.654686 20.3046875,18.2832031 C20.3046875,17.803627 20.6312485,16.7416458 20.9785156,16.3271713 Z" id="Shape"></path>
                    </g>
                </g>
            </g>
        </g>
    </g>
</svg>