<?xml version="1.0" encoding="UTF-8"?>
<svg width="20px" height="24px" viewBox="0 0 20 24" version="1.1" xmlns="http://www.w3.org/2000/svg" xmlns:xlink="http://www.w3.org/1999/xlink">
    <!-- Generator: Sketch 54.1 (76490) - https://sketchapp.com -->
    <title>man-user</title>
    <desc>Created with Sketch.</desc>
    <g id="Mockups" stroke="none" stroke-width="1" fill="none" fill-rule="evenodd">
        <g id="ABOUT-US" transform="translate(-971.000000, -1490.000000)" fill-rule="nonzero" stroke="#FFFFFF" stroke-width="1.25">
            <g id="Module-2" transform="translate(0.000000, 1080.000000)">
                <g id="Group-6" transform="translate(950.000000, 391.000000)">
                    <g id="man-user" transform="translate(22.000000, 20.045455)">
                        <path d="M8.99697621,9.10202545 C11.0430115,9.10202545 12.701807,7.08732687 12.701807,4.60205174 C12.701807,2.11672403 12.1572001,0.102025455 8.99697621,0.102025455 C5.83675235,0.102025455 5.29204027,2.11672403 5.29204027,4.60205174 C5.29204027,7.08732687 6.95083576,9.10202545 8.99697621,9.10202545 Z" id="Path"></path>
                        <path d="M17.6981891,18.53144 C17.6127709,13.1417818 16.9088727,11.6060218 11.5224218,10.6338909 C11.5224218,10.6338909 10.7641964,11.6000655 8.99692364,11.6000655 C7.22965091,11.6000655 6.47129455,10.6338909 6.47129455,10.6338909 C1.14362182,11.5954182 0.396916364,13.1084 0.298734545,18.3563491 C0.290683636,18.78488 0.286952727,18.8073964 0.285512727,18.7576509 C0.28584,18.8508582 0.286232727,19.0232655 0.286232727,19.3238982 C0.286232727,19.3238982 1.56861818,21.9090909 8.99692364,21.9090909 C16.4250982,21.9090909 17.7076145,19.3238982 17.7076145,19.3238982 C17.7076145,19.1307418 17.7077455,18.9964291 17.7079418,18.9050545 C17.7065018,18.9358182 17.7036218,18.8761891 17.6981891,18.53144 Z" id="Path"></path>
                    </g>
                </g>
            </g>
        </g>
    </g>
</svg>