<svg xmlns="http://www.w3.org/2000/svg" preserveAspectRatio="none" width="100%" height="100%" viewBox="0 0 375 719">
    <g fill="none" fill-rule="nonzero">
        <path fill="#EDF0F5" d="M144.458 42.982c30.713-1.487 57.387 4.692 80.441 8.727 3.476.606 7.036 1.19 10.68 1.749 31.94 4.883 69.994 7.663 106.386 5.73A430.944 430.944 0 0 0 376 56.01V395h-.5v300.917c-16.73.32-33.209 1.98-48.612 5.752l-1.357.338c-30.856 7.757-62.588 12.094-104.058 5.98-15.367-2.275-29.303-4.72-45.652-6.522a317.413 317.413 0 0 0-34.855-1.802 363.2 363.2 0 0 0-11.698.204 387.844 387.844 0 0 0-46.06 4.316c-8.303 1.284-16.1 3.05-23.845 4.892l-5.976 1.426c-11.845 2.821-23.95 5.6-38.103 6.93-2.666.252-5.413.448-8.242.587-30.713 1.487-57.387-4.692-80.441-8.727a536.053 536.053 0 0 0-10.68-1.749c-31.94-4.883-69.994-7.663-106.386-5.73a430.944 430.944 0 0 0-34.035 3.178V366h.5V65.083c16.73-.32 33.209-1.98 48.612-5.752l1.357-.338c30.856-7.757 62.588-12.094 104.058-5.98 15.367 2.275 29.303 4.72 45.652 6.522a317.413 317.413 0 0 0 34.855 1.802 363.2 363.2 0 0 0 11.698-.204 387.844 387.844 0 0 0 46.06-4.316c8.303-1.284 16.1-3.05 23.845-4.892l5.976-1.426c11.845-2.821 23.95-5.6 38.103-6.93 2.666-.252 5.413-.448 8.242-.587z"/>
        <path fill="#3680AC" d="M376 29.755a390.972 390.972 0 0 1-30.758 5.87c-39.477 5.894-82.651 6.073-117.893 3.183-23.955-1.964-52.072-5.767-82.035-1.434-18.942 2.739-33.106 8.021-47.201 13.125 11.845-2.83 23.95-5.61 38.103-6.93a190.24 190.24 0 0 1 8.242-.587c30.713-1.487 57.387 4.692 80.441 8.727a467.23 467.23 0 0 0 10.68 1.749c31.94 4.891 69.994 7.663 106.386 5.73A431.125 431.125 0 0 0 376 56.01V29.755z"/>
        <path fill="#0F2E3C" d="M376 0a345.832 345.832 0 0 1-26.613 7.928c-38.233 9.742-82.153 14.062-119.022 14.515-25.047.31-54.953-.836-84.02 6.42-23.43 5.845-37.561 15.126-54.212 23.07l5.976-1.426c14.095-5.103 28.26-10.386 47.2-13.125 29.964-4.333 58.08-.53 82.036 1.435 35.242 2.89 78.416 2.71 117.893-3.184A385.247 385.247 0 0 0 376 29.755V0z"/>
    </g>
</svg>
