<svg xmlns="http://www.w3.org/2000/svg" preserveAspectRatio="none" width="100%" height="100%" viewBox="0 0 1440 650">
    <g fill="none" fill-rule="nonzero">
        <path fill="#EDF0F5" d="M903.95 95.45c75.35-3.65 140.79 11.51 197.35 21.41 8.527 1.487 17.26 2.917 26.2 4.29 78.36 11.98 171.72 18.8 261 14.06 28.11-1.51 56.01-4.12 83.5-7.8V583h-2.086v12.038c-41.59.797-82.55 4.966-120.772 14.482l-1.818.458-2.272.568c-74.988 18.672-152.296 28.952-253.018 14.102-37.7-5.58-71.89-11.58-112-16a778.72 778.72 0 0 0-85.51-4.42c-9.614.013-19.18.18-28.7.5a951.51 951.51 0 0 0-113 10.59c-20.37 3.15-39.5 7.48-58.5 12l-14.66 3.5c-29.06 6.92-58.76 13.74-93.48 17-6.54.62-13.28 1.1-20.22 1.44-73.843 3.577-138.169-10.912-193.946-20.81l-3.404-.6a1315.133 1315.133 0 0 0-26.2-4.29c-78.36-11.98-171.72-18.8-261-14.06a1057.25 1057.25 0 0 0-83.5 7.8V312H0V149.67c41.59-.797 82.55-4.967 120.772-14.483l1.818-.457c75.7-19.03 153.55-29.67 255.29-14.67 37.7 5.58 71.89 11.58 112 16a778.72 778.72 0 0 0 85.51 4.42 891.05 891.05 0 0 0 28.7-.5 951.51 951.51 0 0 0 113-10.59c20.37-3.15 39.5-7.48 58.5-12l14.66-3.5c29.06-6.92 58.76-13.74 93.48-17 6.54-.62 13.28-1.1 20.22-1.44z"/>
        <path fill="#3680AC" d="M1472 63c-24.607 5.74-49.76 10.54-75.46 14.4-96.85 14.46-202.77 14.9-289.23 7.81-58.77-4.82-127.75-14.15-201.26-3.52-46.47 6.72-81.22 19.68-115.8 32.2 29.06-6.94 58.76-13.76 93.48-17a466.725 466.725 0 0 1 20.22-1.44c75.35-3.65 140.79 11.51 197.35 21.41 8.527 1.5 17.26 2.93 26.2 4.29 78.36 12 171.72 18.8 261 14.06 28.11-1.51 56-4.12 83.5-7.8V63z"/>
        <path fill="#0F2E3C" d="M1472-10c-21.087 7.233-42.85 13.717-65.29 19.45-93.8 23.9-201.55 34.5-292 35.61-61.45.76-134.82-2.05-206.13 15.75-57.48 14.34-92.15 37.11-133 56.6l14.66-3.5c34.58-12.52 69.33-25.48 115.8-32.2 73.51-10.63 142.49-1.3 201.26 3.52 86.46 7.09 192.38 6.65 289.23-7.81 25.647-3.84 50.803-8.647 75.47-14.42v-73z"/>
    </g>
</svg>
