<svg xmlns="http://www.w3.org/2000/svg" width="375" height="797" viewBox="0 0 375 797">
    <g fill="none" fill-rule="nonzero">
        <path fill="#EDF0F5" d="M165.446 74.02a271.538 271.538 0 0 1-32.487 3.654c-3.967.201-7.953.307-11.959.318-11.932.057-23.85-.87-35.63-2.771-16.712-2.758-30.958-7.234-46.666-10.704-42.392-9.409-74.829-2.73-106.37 9.166a156.404 156.404 0 0 1-44.834 9.734V820.43a133.37 133.37 0 0 0 33.875-13.516c30.287-17.155 62.308-28.038 107-20.163 16.563 2.917 31.783 7.138 49.254 9.083 33.484 3.73 67.534-2.5 95.871-13.079 25.558-9.554 44.913-27.083 76.033-32.433 31.667-5.458 60.925 3.796 85.925 9.33 36.775 8.162 82.084 11.37 123.796 3.845a253.4 253.4 0 0 0 28.246-6.808V71.129a302.392 302.392 0 0 1-27.704 3.55c-37.2 2.963-76.1-1.3-108.75-8.791a361.142 361.142 0 0 1-10.917-2.684c-23.567-6.191-50.833-15.675-82.229-13.387-30.87 2.254-51.85 15.2-77.858 21.25a277.11 277.11 0 0 1-14.509 2.95"/>
        <path fill="#3680AC" d="M487.5 29.563a259.249 259.249 0 0 1-20.954 5.575c-21.492 4.729-44.025 6.666-65.834 6.545a347.5 347.5 0 0 1-54.75-4.625c-20.637-3.441-44.295-9.212-69.662-6.975a116.817 116.817 0 0 0-14.125 2.084c-30.167 6.4-48.646 23.666-73.333 33.75a232.846 232.846 0 0 1-23.309 8.108c4.867-.85 9.703-1.833 14.509-2.95 26.008-6.038 46.987-18.983 77.858-21.25 31.396-2.288 58.663 7.196 82.23 13.388a357.08 357.08 0 0 0 10.916 2.683c32.65 7.5 71.55 11.754 108.75 8.791a296.697 296.697 0 0 0 27.704-3.55V29.563z"/>
        <path fill="#235872" d="M487.5-27a250.12 250.12 0 0 1-16.25 7.083C432-4.417 387.033 1.65 349.363 1.333c-25.605-.216-56.15-3.066-85.988 8.459-29.33 11.32-44.617 31.787-67.642 45.958A229.938 229.938 0 0 1 154.8 75.654c3.558-.475 7.103-1.02 10.633-1.633a233.237 233.237 0 0 0 23.396-8.104c24.68-10.08 43.159-27.338 73.334-33.75a117.013 117.013 0 0 1 14.137-2.084c25.367-2.225 49.037 3.538 69.692 6.996a347.254 347.254 0 0 0 54.737 4.625c21.788.121 44.317-1.816 65.804-6.546A253.197 253.197 0 0 0 487.5 29.58V-27z"/>
    </g>
</svg>
