<svg xmlns="http://www.w3.org/2000/svg" preserveAspectRatio="none" width="100%" height="100%" viewBox="0 0 1440 878">
    <g fill="none" fill-rule="nonzero">
        <path fill="#EDF0F5" d="M667.07 242.45a629.973 629.973 0 0 1-25.52 3.92 651.69 651.69 0 0 1-52.45 4.85c-9.52.48-19.087.733-28.7.76a521 521 0 0 1-85.51-6.65c-40.11-6.62-74.3-17.36-112-25.69-101.74-22.58-179.59-6.55-255.29 22A375.37 375.37 0 0 1 0 265v612.44A320.09 320.09 0 0 0 81.3 845c72.69-41.17 149.54-67.29 256.8-48.39 39.75 7 76.28 17.13 118.21 21.8 80.36 8.95 162.08-6 230.09-31.39 61.34-22.93 107.79-65 182.48-77.84 76-13.1 146.22 9.11 206.22 22.39 88.26 19.59 197 27.29 297.11 9.23a608.16 608.16 0 0 0 67.79-16.34V235.51c-22 3.86-44.163 6.7-66.49 8.52-89.28 7.11-182.64-3.12-261-21.1a866.743 866.743 0 0 1-26.2-6.44c-56.56-14.86-122-37.62-197.35-32.13-74.09 5.41-124.44 36.48-186.86 51a665.061 665.061 0 0 1-34.82 7.08"/>
        <path fill="#3680AC" d="M1440 135.75a622.198 622.198 0 0 1-50.29 13.38c-51.58 11.35-105.66 16-158 15.71a834 834 0 0 1-131.4-11.1C1050.78 145.48 994 131.63 933.12 137a280.36 280.36 0 0 0-33.9 5c-72.4 15.36-116.75 56.8-176 81a558.83 558.83 0 0 1-55.94 19.46c11.68-2.04 23.287-4.4 34.82-7.08 62.42-14.49 112.77-45.56 186.86-51 75.35-5.49 140.79 17.27 197.35 32.13a856.99 856.99 0 0 0 26.2 6.44c78.36 18 171.72 28.21 261 21.1 22.327-1.8 44.49-4.64 66.49-8.52v-99.78z"/>
        <path fill="#235872" d="M1440 0a600.289 600.289 0 0 1-39 17c-94.2 37.2-202.12 51.76-292.53 51-61.45-.52-134.76-7.36-206.37 20.3-70.39 27.17-107.08 76.29-162.34 110.3a551.85 551.85 0 0 1-98.24 47.77 654.417 654.417 0 0 0 25.52-3.92A559.77 559.77 0 0 0 723.19 223c59.23-24.19 103.58-65.61 176-81a280.83 280.83 0 0 1 33.93-5c60.88-5.34 117.69 8.49 167.26 16.79a833.41 833.41 0 0 0 131.37 11.1c52.29.29 106.36-4.36 157.93-15.71a607.673 607.673 0 0 0 50.32-13.39V0z"/>
    </g>
</svg>
