<svg xmlns="http://www.w3.org/2000/svg" width="167" height="40" viewBox="0 0 167 40">
    <g fill="none" fill-rule="nonzero">
        <path fill="#449DD1" d="M27.166 26.43v.029c0 7.471-6.144 13.505-13.654 13.329C6.509 39.62.769 33.96.51 26.96c-.1-2.589.558-5.15 1.895-7.37L13.024 1.197A.924.924 0 0 1 14.59 1.1l.078.138 2.717 4.71-3.193 5.53-6.517 11.29a7.125 7.125 0 0 0-1.004 4.198 7.182 7.182 0 1 0 9.769-7.222 7.582 7.582 0 0 0-2.484-.482 6.678 6.678 0 0 0-2.31.335l5.396-9.413c.147-.265.272-.518.576-.601.303-.084.537.069.718.3 1.172 1.484 2.831 3.878 4.245 5.831 1.655 2.474 4.399 5.68 4.583 10.714"/>
        <path fill="#449DD1" d="M13.475 32.187a5.73 5.73 0 0 1-5.377-6.124c5.502-2.928 6.385 3.5 11.407 1.08a5.73 5.73 0 0 1-6.03 5.044z"/>
        <path fill="#245871" d="M40.636 32.745l2.877-10.63h.07l2.901 10.63h3.764l3.954-17.235H50.33l-2.26 11.305h-.072L44.945 15.51h-2.782l-3.042 11.305h-.07L36.788 15.51h-3.882l3.965 17.235h3.764zm18.324.249c.766 0 1.417-.156 1.953-.468a4.394 4.394 0 0 0 1.374-1.26c.063.268.14.528.23.78.091.253.192.482.302.687l3.954.012a9.824 9.824 0 0 1-.515-1.74 9.92 9.92 0 0 1-.172-1.906v-4.83c0-1.467-.491-2.596-1.473-3.385-.983-.789-2.263-1.183-3.842-1.183-1.688 0-3.046.392-4.072 1.177-1.025.786-1.51 1.762-1.456 2.93l.024.071 3.87.012c0-.458.113-.795.338-1.012.225-.217.566-.326 1.024-.326.537 0 .933.146 1.19.438.256.292.384.71.384 1.255v.911h-1.456c-1.94 0-3.387.346-4.338 1.036-.95.69-1.426 1.671-1.426 2.942 0 1.168.38 2.103 1.142 2.805.762.702 1.75 1.054 2.965 1.054zm1.22-2.853c-.395 0-.717-.113-.965-.337-.249-.225-.373-.52-.373-.882 0-.474.144-.864.432-1.172.288-.308.748-.462 1.379-.462h1.42v2a2.28 2.28 0 0 1-.804.616 2.5 2.5 0 0 1-1.09.237zm12.89 2.853c.482 0 .9-.022 1.255-.065.355-.044.753-.117 1.195-.22l-.284-2.959a6.162 6.162 0 0 1-.562.095 5.868 5.868 0 0 1-.598.024c-.315 0-.566-.101-.751-.302-.186-.201-.279-.53-.279-.989v-5.87h2.167v-2.77h-2.167v-3.185h-3.989v3.184h-1.799v2.77h1.8v5.895c0 1.523.339 2.636 1.017 3.338.679.702 1.677 1.054 2.995 1.054zm9.872 0c1.018 0 1.971-.137 2.859-.409.888-.272 1.612-.613 2.172-1.024l-.947-2.438c-.694.292-1.268.497-1.722.615-.454.119-1.06.178-1.817.178-.75 0-1.35-.211-1.8-.633-.45-.423-.718-.961-.804-1.616l.023-.071h7.316V25.5c0-1.784-.494-3.196-1.48-4.238-.986-1.042-2.348-1.563-4.084-1.563-1.902-.007-3.364.606-4.385 1.841-1.022 1.235-1.533 2.827-1.533 4.776v.45c0 1.784.562 3.267 1.686 4.451 1.125 1.184 2.63 1.776 4.516 1.776zm1.373-7.896h-3.444l-.036-.059c.063-.686.239-1.235.527-1.645.288-.41.72-.616 1.296-.616.568 0 .987.174 1.255.521.268.347.402.844.402 1.491v.308zm9.6 7.647v-8.404c.142-.284.36-.503.651-.657.292-.154.667-.231 1.125-.231l1.456.012.39-3.622a4.539 4.539 0 0 0-1.1-.142c-.592 0-1.11.185-1.551.556-.442.37-.797.892-1.065 1.562l-.142-1.882h-3.765v12.808h4.001zm11.672 0l2.876-10.63h.071l2.9 10.63h3.764l3.954-17.235h-3.87l-2.262 11.305h-.07l-3.055-11.305h-2.781l-3.042 11.305H104L101.74 15.51h-3.883l3.965 17.235h3.765zm20.502.249c1.94 0 3.456-.604 4.545-1.811 1.09-1.208 1.634-2.778 1.634-4.712v-.248c0-1.926-.545-3.494-1.634-4.705-1.089-1.212-2.612-1.817-4.57-1.817-1.948 0-3.467.605-4.556 1.817-1.09 1.21-1.634 2.78-1.634 4.705v.248c0 1.934.545 3.504 1.634 4.712 1.089 1.207 2.616 1.81 4.58 1.81zm0-3.078c-.805 0-1.375-.306-1.71-.917-.336-.612-.504-1.454-.504-2.528v-.248c0-1.034.168-1.867.503-2.498.336-.631.898-.947 1.687-.947.797 0 1.365.314 1.704.941.34.628.51 1.462.51 2.504v.248c0 1.066-.17 1.906-.51 2.522-.339.615-.9.923-1.68.923zm11.943 2.829v-8.404c.142-.284.36-.503.651-.657.292-.154.667-.231 1.125-.231l1.456.012.39-3.622a4.539 4.539 0 0 0-1.1-.142c-.592 0-1.11.185-1.551.556-.442.37-.797.892-1.065 1.562l-.142-1.882h-3.765v12.808h4.001zm8.96 0v-5.09h.676l3.243 5.09h4.557l-4.604-7.02 3.977-5.788h-4.581l-2.734 4.7h-.533V14.279h-4.001v18.466h4zm14.182.249c1.68 0 3.032-.373 4.054-1.119 1.022-.746 1.533-1.695 1.533-2.847 0-1.12-.377-1.986-1.13-2.598-.754-.612-1.912-1.071-3.475-1.38-.994-.188-1.655-.402-1.982-.638-.328-.237-.492-.525-.492-.864 0-.356.142-.648.426-.876.285-.23.636-.344 1.054-.344.568 0 .98.13 1.237.391.256.26.385.643.385 1.148h3.882l.024-.07c.047-1.208-.434-2.193-1.444-2.954-1.01-.762-2.368-1.142-4.072-1.142-1.618 0-2.9.392-3.847 1.177-.947.786-1.42 1.742-1.42 2.87 0 1.066.378 1.907 1.136 2.522.757.616 1.882 1.07 3.373 1.361.947.198 1.6.42 1.96.67.358.248.538.53.538.846 0 .386-.138.684-.414.893-.277.21-.683.314-1.22.314-.647 0-1.146-.134-1.497-.403-.351-.268-.535-.706-.55-1.313h-3.623l-.023.07c-.048 1.09.436 2.076 1.45 2.96 1.014.884 2.393 1.326 4.137 1.326z"/>
    </g>
</svg>
