<?xml version="1.0" encoding="UTF-8"?>
<svg width="28px" height="42px" viewBox="0 0 28 42" version="1.1" xmlns="http://www.w3.org/2000/svg" xmlns:xlink="http://www.w3.org/1999/xlink">
    <!-- Generator: Sketch 54.1 (76490) - https://sketchapp.com -->
    <title>Group 2</title>
    <desc>Created with Sketch.</desc>
    <g id="Mockups" stroke="none" stroke-width="1" fill="none" fill-rule="evenodd">
        <g id="ISSUERS" transform="translate(-38.000000, -14.000000)" fill="#449DD1" fill-rule="nonzero">
            <g id="NAV-PRIMARY" transform="translate(-1.000000, 0.000000)">
                <g id="Group-2" transform="translate(39.000000, 14.000000)">
                    <path d="M27.6527517,27.4069446 L27.6527517,27.4378259 C27.6527517,35.1854406 21.2811502,41.4421349 13.493318,41.2597198 C6.23118606,41.0873591 0.278995644,35.21704 0.0104001786,27.9577808 C-0.0939670556,25.273088 0.589033687,22.6164747 1.97531246,20.3150189 L12.9870084,1.24115003 C13.0019475,1.21186228 13.0187389,1.18355685 13.0372802,1.15640601 C13.213766,0.896380155 13.5065562,0.739443484 13.8208039,0.736434272 C14.1350516,0.73342506 14.4307934,0.884725993 14.6122264,1.14132444 L14.6933796,1.28495838 L17.5107593,6.16851229 L14.199997,11.9045336 L7.44130199,23.6106996 C6.72619939,24.7977876 6.3593729,26.1620636 6.38271987,27.5477059 C6.38271987,27.6863126 6.38918339,27.8270739 6.40067411,27.9649625 C6.67306192,31.6426112 9.59588438,34.5671197 13.2733754,34.8416282 C16.9508665,35.1161367 20.2754818,32.657972 21.0908493,29.0615194 C21.9062167,25.4650668 19.9667733,21.8134644 16.5304576,20.4751708 C15.7057868,20.1656709 14.8349709,19.9969458 13.9543829,19.9760428 C13.1416057,19.9500946 12.3306107,20.0675139 11.5585688,20.3229188 L17.1545471,10.5615563 C17.3075172,10.2872155 17.437506,10.0250835 17.7520643,9.93818501 C18.0666226,9.85128648 18.309364,10.010002 18.4968063,10.2491525 C19.7126675,11.7889083 21.432684,14.2709028 22.8991865,16.2968595 C24.615612,18.8621616 27.4602822,22.185851 27.6513153,27.4069446" id="Path"></path>
                    <path d="M13.4553547,33.3781828 C10.3156237,33.1923729 7.86435526,30.5923864 7.86358577,27.4471621 C7.86358577,27.3064009 7.86861296,27.1663578 7.87866734,27.0270329 C13.5845256,23.9913296 14.5001919,30.6566625 19.7076404,28.1480958 C19.3359054,31.2712751 16.5950858,33.5639928 13.4553547,33.3781828 Z" id="Path"></path>
                </g>
            </g>
        </g>
    </g>
</svg>