<?xml version="1.0" encoding="UTF-8"?>
<svg width="191px" height="140px" viewBox="0 0 191 140" version="1.1" xmlns="http://www.w3.org/2000/svg" xmlns:xlink="http://www.w3.org/1999/xlink">
    <!-- Generator: Sketch 54.1 (76490) - https://sketchapp.com -->
    <title>logo_wwf_text_bottom</title>
    <desc>Created with Sketch.</desc>
    <g id="Symbols" stroke="none" stroke-width="1" fill="none" fill-rule="evenodd">
        <g id="Full-Footer" transform="translate(-624.000000, -260.000000)" fill="#F5F5F5" fill-rule="nonzero">
            <g id="logo_wwf_text_bottom" transform="translate(624.500000, 260.000000)">
                <path d="M129.048938,65.4865233 L129.048938,65.562151 C129.048938,84.5359012 113.445016,99.858418 94.372774,99.4116871 C76.5879611,98.9895792 62.0111683,84.6132876 61.3533835,66.8355098 C61.0977902,60.260752 62.7704451,53.7547603 66.1654135,48.118542 L93.1328321,1.40702634 C93.1694178,1.33530123 93.2105395,1.26598182 93.2559469,1.19948995 C93.688157,0.562691951 94.4051941,0.178357248 95.1747803,0.17098775 C95.9443666,0.163618251 96.6686323,0.534151148 97.1129578,1.16255551 L97.3117003,1.5143121 L104.211406,13.474036 L96.1034164,27.5214352 L79.5515104,56.1895968 C77.8002387,59.096751 76.9018881,62.4378351 76.9590643,65.8312448 C76.9590643,66.1706899 76.9748934,66.5154113 77.0030339,66.8530977 C77.6701061,75.8595844 84.8280386,83.0216458 93.8341392,83.6939116 C102.84024,84.3661774 110.982155,78.3461822 112.978973,69.5385431 C114.975791,60.7309041 110.226134,51.7882043 101.810667,48.5107506 C99.791065,47.7527917 97.6584547,47.3395873 95.5019127,47.2883964 C93.5114377,47.2248499 91.5253275,47.5124072 89.6346128,48.1378886 L103.339049,24.2325111 C103.71367,23.560656 104.03201,22.9187003 104.802357,22.7058875 C105.572704,22.4930748 106.167172,22.8817658 106.626215,23.4674405 C109.603834,27.2382711 113.816119,33.3166249 117.407554,38.2781515 C121.611045,44.5605241 128.577584,52.7001715 129.045421,65.4865233" id="Path"></path>
                <path d="M94.2798027,80.1099638 C86.5906655,79.6549191 80.5875592,73.2876052 80.5856747,65.5850152 C80.5856747,65.2402937 80.5979862,64.897331 80.6226092,64.5561272 C94.5961395,57.1217517 96.8385877,73.445016 109.591523,67.3015873 C108.681151,74.9501899 101.96894,80.5650086 94.2798027,80.1099638 Z" id="Path"></path>
                <polygon id="Path" points="20.8802709 132.322033 20.9805215 132.322033 24.5649211 114.73948 28.8510751 114.73948 23.0576441 139.119729 19.3571648 139.119729 14.4835774 121.772853 14.3833267 121.772853 9.49391021 139.119729 5.77584312 139.119729 0 114.73948 4.27032494 114.73948 7.88638262 132.304445 7.98663325 132.304445 12.6245438 114.73948 16.2089434 114.73948"></polygon>
                <path d="M37.5570505,136.205426 C38.5300463,136.21834 39.4861956,135.950911 40.3113046,135.435079 C41.1320699,134.921514 41.6761201,134.335253 41.9434551,133.676296 L41.9434551,130.99767 L38.7125709,130.99767 C37.5283237,130.99767 36.6014451,131.2908 35.9319351,131.877061 C35.2635976,132.462736 34.9276701,133.153937 34.9276701,133.94539 C34.8990094,134.568614 35.1475521,135.172586 35.6065603,135.595128 C36.0591537,136.003166 36.7093172,136.206598 37.5570505,136.205426 L37.5570505,136.205426 Z M42.5308886,139.119729 C42.3854959,138.662446 42.2682437,138.215715 42.179132,137.779537 C42.0854604,137.34936 42.0208259,136.913371 41.9856659,136.47452 C41.4191301,137.340764 40.6669583,138.070106 39.7836697,138.609682 C38.866022,139.184461 37.8025985,139.483587 36.7198699,139.471486 C34.833282,139.471486 33.3852174,138.986062 32.375676,138.015213 C31.3661346,137.044365 30.8607777,135.71238 30.8596052,134.019259 C30.8596052,132.267511 31.5513931,130.902695 32.934969,129.924812 C34.3185449,128.946929 36.2666901,128.45916 38.7794047,128.461505 L41.9452139,128.461505 L41.9452139,126.869806 C41.9452139,125.920063 41.669085,125.177857 41.1168272,124.643187 C40.5645693,124.108517 39.7637368,123.840596 38.7143297,123.839423 C37.7868648,123.839423 37.0499348,124.059857 36.5035396,124.500725 C35.9733585,124.910386 35.6691863,125.54745 35.6839467,126.217298 L31.7653784,126.233127 L31.7477905,126.132876 C31.6704041,124.704744 32.3094285,123.437834 33.6648639,122.332146 C35.0202993,121.226458 36.7872899,120.673614 38.9658356,120.673614 C41.0763751,120.673614 42.776532,121.209456 44.0663061,122.281141 C45.3560803,123.352827 46.0038986,124.89352 46.0097612,126.903223 L46.0097612,134.95669 C46.0071889,135.677016 46.0577444,136.396551 46.1610166,137.10944 C46.262903,137.792937 46.4265535,138.465788 46.6499582,139.119729 L42.5308886,139.119729 Z" id="Shape"></path>
                <path d="M56.1596975,116.607308 L56.1596975,121.004265 L59.4081695,121.004265 L59.4081695,124.01706 L56.1596975,124.01706 L56.1596975,134.03157 C56.1596975,134.779639 56.3215055,135.31255 56.6451216,135.630304 C56.9924113,135.95747 57.457719,136.1295 57.9343095,136.106934 C58.1531203,136.107369 58.3715191,136.087943 58.5868179,136.048894 C58.7917805,136.012192 58.9935027,135.959262 59.1900805,135.890604 L59.6227411,138.868223 C59.2348689,139.072673 58.8205503,139.22242 58.391593,139.313195 C57.9046518,139.420026 57.4074589,139.473107 56.908939,139.471486 C55.4139735,139.471486 54.2414516,139.033549 53.3913732,138.157675 C52.5412948,137.281801 52.1144968,135.905846 52.1109792,134.029811 L52.1109792,124.015301 L49.3444137,124.015301 L49.3444137,121.004265 L52.1074616,121.004265 L52.1074616,116.607308 L56.1596975,116.607308 Z" id="Path"></path>
                <path d="M70.625687,123.932639 C69.6448495,123.896533 68.7034575,124.320712 68.0807281,125.079365 C67.4440487,125.843849 67.0477363,126.840493 66.8917909,128.069296 L66.9252078,128.153718 L74.0078266,128.153718 L74.0078266,127.835378 C74.0078266,126.674581 73.7375603,125.736564 73.1970277,125.021325 C72.656495,124.306087 71.7993815,123.946123 70.625687,123.941433 M71.0548301,139.471486 C68.4096205,139.471486 66.3412918,138.637236 64.8498439,136.968738 C63.358396,135.300239 62.6138446,133.136936 62.6161896,130.478829 L62.6161896,129.810491 C62.6161896,127.152384 63.360741,124.961527 64.8498439,123.237919 C66.3389468,121.514312 68.2618828,120.657199 70.6186519,120.666579 C73.0528075,120.666579 74.8948394,121.417579 76.1447478,122.91958 C77.3946562,124.42158 78.0196104,126.427765 78.0196104,128.938135 L78.0196104,131.133096 L66.833751,131.133096 L66.8003342,131.215759 C66.84489,132.702517 67.2353398,133.908455 67.9716836,134.833575 C68.7080274,135.758695 69.8189919,136.221841 71.3045772,136.223014 C72.2772805,136.242557 73.2468609,136.10659 74.1766697,135.820252 C74.9822929,135.554541 75.7417589,135.165315 76.4279119,134.666491 L77.7382052,137.327529 C76.9244878,138.000146 75.9937957,138.517064 74.992745,138.852394 C73.72596,139.285638 72.3934434,139.495127 71.0548301,139.471486" id="Shape"></path>
                <path d="M91.0363628,124.669569 L89.2951677,124.602735 C88.5996273,124.577507 87.9113442,124.751408 87.3112606,125.103988 C86.7717534,125.449818 86.3441026,125.944671 86.0801126,126.528602 L86.0801126,139.119729 L82.0120477,139.119729 L82.0120477,121.004265 L85.728356,121.004265 L86.0044849,123.630128 C86.4049461,122.772592 87.0086812,122.025772 87.7632678,121.454513 C88.4849204,120.929248 89.3577215,120.652717 90.2501869,120.666579 C90.4801633,120.665805 90.7097391,120.685819 90.9361122,120.726377 C91.1341482,120.761456 91.3297644,120.809038 91.5217869,120.868839 L91.0363628,124.669569 Z" id="Path"></path>
                <polygon id="Path" points="113.958581 132.322033 114.06059 132.322033 117.643231 114.73948 121.929385 114.73948 116.135954 139.119729 112.435475 139.119729 107.563646 121.772853 107.461637 121.772853 102.57222 139.119729 98.8559117 139.119729 93.0783098 114.73948 97.3486347 114.73948 100.964692 132.304445 101.066702 132.304445 105.704612 114.73948 109.287253 114.73948"></polygon>
                <path d="M128.039397,130.244911 C128.039397,132.018936 128.385291,133.458793 129.077079,134.564481 C129.768867,135.67017 130.840552,136.223014 132.292134,136.223014 C133.709713,136.223014 134.772604,135.667825 135.480807,134.557446 C136.189011,133.447068 136.540767,132.009556 136.536077,130.244911 L136.536077,129.893154 C136.536077,128.162512 136.18432,126.736725 135.480807,125.615794 C134.777294,124.494863 133.70385,123.933811 132.260476,123.932639 C130.842897,123.932639 129.787627,124.49369 129.094666,125.615794 C128.401706,126.737897 128.049949,128.163684 128.039397,129.893154 L128.039397,130.244911 Z M123.969573,129.893154 C123.969573,127.196353 124.709434,124.983218 126.189157,123.253748 C127.66888,121.524279 129.692653,120.661889 132.260476,120.666579 C134.861129,120.666579 136.901318,121.528969 138.38104,123.253748 C139.860763,124.978528 140.600038,127.191663 140.598866,129.893154 L140.598866,130.244911 C140.598866,132.969852 139.85959,135.188849 138.38104,136.901904 C136.90249,138.614958 134.873441,139.471486 132.293893,139.471486 C129.702619,139.471486 127.668294,138.612027 126.190916,136.89311 C124.713538,135.174193 123.973677,132.958126 123.971332,130.244911 L123.969573,129.893154 Z" id="Shape"></path>
                <path d="M153.860089,124.669569 L152.118894,124.602735 C151.422792,124.577464 150.733933,124.751356 150.133228,125.103988 C149.593987,125.450125 149.166412,125.94489 148.90208,126.528602 L148.90208,139.119729 L144.834015,139.119729 L144.834015,121.004265 L148.552082,121.004265 L148.819417,123.631887 C149.222003,122.773157 149.828895,122.026167 150.586994,121.456272 C151.307988,120.931025 152.180231,120.654475 153.072154,120.668338 C153.302713,120.667563 153.532873,120.687577 153.759838,120.728136 C153.957789,120.76362 154.15338,120.811196 154.345513,120.870598 L153.860089,124.669569 Z" id="Path"></path>
                <polygon id="Path" points="163.13591 131.19993 161.628633 131.19993 161.628633 139.119729 157.576397 139.119729 157.576397 112.998285 161.628633 112.998285 161.628633 127.93387 163.018071 127.93387 167.925076 121.002506 172.696654 121.002506 166.484633 129.340896 173.384338 139.119729 168.644418 139.119729"></polygon>
                <path d="M186.376467,134.163479 C186.381382,133.547923 186.084375,132.969023 185.581498,132.613991 C185.050345,132.208299 184.048425,131.843058 182.575738,131.518269 C180.444093,131.082091 178.814287,130.440135 177.686321,129.592402 C176.589634,128.805921 175.955522,127.525832 175.994372,126.176846 C175.994372,124.652567 176.639259,123.354585 177.929033,122.2829 C179.218807,121.211215 180.91017,120.672441 183.003122,120.666579 C185.167597,120.666579 186.911724,121.222354 188.235501,122.333905 C189.559278,123.445456 190.193026,124.782131 190.136745,126.34393 L190.10157,126.444181 L186.200589,126.444181 C186.19921,125.707894 185.878362,125.008446 185.321198,124.527107 C184.740799,123.985402 183.965176,123.71455 182.994328,123.71455 C182.02348,123.71455 181.275411,123.937915 180.750121,124.384646 C180.2577,124.786441 179.974325,125.390068 179.979774,126.02559 C179.963637,126.605052 180.232373,127.155666 180.699116,127.49945 C181.17985,127.867622 182.168286,128.196515 183.664424,128.486128 C185.886353,128.932858 187.560715,129.588884 188.687508,130.454206 C189.787764,131.264533 190.419621,132.563751 190.377699,133.929561 C190.377699,135.558194 189.705257,136.889006 188.360375,137.921998 C187.015492,138.95499 185.243225,139.471486 183.043574,139.471486 C180.687977,139.471486 178.82953,138.868809 177.468232,137.663457 C176.106934,136.458104 175.462047,135.073942 175.533571,133.51097 L175.566988,133.408961 L179.35013,133.408961 C179.395858,134.464231 179.775755,135.229301 180.489821,135.704173 C181.267779,136.202249 182.178344,136.453037 183.101614,136.423515 C184.139296,136.423515 184.945404,136.217151 185.51994,135.804423 C186.06825,135.440007 186.393605,134.821765 186.383503,134.163479" id="Path"></path>
            </g>
        </g>
    </g>
</svg>