<?xml version="1.0" encoding="UTF-8"?>
<svg width="32px" height="31px" viewBox="0 0 32 31" version="1.1" xmlns="http://www.w3.org/2000/svg" xmlns:xlink="http://www.w3.org/1999/xlink">
    <!-- Generator: Sketch 54.1 (76490) - https://sketchapp.com -->
    <title>LinkedIn_3_</title>
    <desc>Created with Sketch.</desc>
    <g id="Symbols" stroke="none" stroke-width="1" fill="none" fill-rule="evenodd">
        <g id="Full-Footer" transform="translate(-795.000000, -674.000000)" fill="#FFFFFF" fill-rule="nonzero">
            <g id="Group-4" transform="translate(0.000000, 160.000000)">
                <g id="Group-3" transform="translate(612.500000, 514.500000)">
                    <path d="M214.395776,18.395319 L214.395776,30 L207.663969,30 L207.663969,19.167139 C207.663969,16.4435432 206.693334,14.5924882 204.257521,14.5924882 C202.394713,14.5924882 201.295846,15.8457192 200.805308,17.051807 C200.628686,17.4861405 200.575043,18.0944043 200.575043,18.6948548 L200.575043,29.9986212 L193.849867,29.9986212 C193.849867,29.9986212 193.940148,11.6582587 193.849867,9.75881306 L200.576421,9.75881306 L200.576421,12.6275807 C200.567295,12.6511522 200.547663,12.6707185 200.538471,12.6969164 L200.576421,12.6969164 L200.576421,12.6275807 C201.475094,11.2488099 203.067125,9.28390241 206.642317,9.28390241 C211.079609,9.28396807 214.395776,12.1763072 214.395776,18.395319 Z M186.808018,0 C184.507003,0 183,1.50962887 183,3.50066863 C183,5.43806508 184.462551,6.9987109 186.721676,6.9987109 L186.762254,6.9987109 C189.114286,6.9987109 190.571585,5.43806508 190.571585,3.50066863 C190.52582,1.50962887 189.114351,0 186.808018,0 Z M183.401635,29.9999343 L190.129503,29.9999343 L190.129503,9.75756554 L183.401635,9.75756554 L183.401635,29.9999343 Z" id="LinkedIn_3_"></path>
                </g>
            </g>
        </g>
    </g>
</svg>