<?xml version="1.0" encoding="UTF-8"?>
<svg width="17px" height="30px" viewBox="0 0 17 30" version="1.1" xmlns="http://www.w3.org/2000/svg" xmlns:xlink="http://www.w3.org/1999/xlink">
    <!-- Generator: Sketch 54.1 (76490) - https://sketchapp.com -->
    <title>Path</title>
    <desc>Created with Sketch.</desc>
    <g id="Symbols" stroke="none" stroke-width="1" fill="none" fill-rule="evenodd">
        <g id="Full-Footer" transform="translate(-613.000000, -676.000000)" fill="#FFFFFF" fill-rule="nonzero">
            <g id="Group-4" transform="translate(0.000000, 160.000000)">
                <g id="Group-3" transform="translate(612.500000, 514.500000)">
                    <path d="M16.1087513,1.506242 L12.2184233,1.5 C7.84777317,1.5 5.02326706,4.39784963 5.02326706,8.88304048 L5.02326706,12.2871165 L1.11171624,12.2871165 C0.773711807,12.2871165 0.5,12.5611404 0.5,12.8991448 L0.5,17.8312631 C0.5,18.1692675 0.774023907,18.4429793 1.11171624,18.4429793 L5.02326706,18.4429793 L5.02326706,30.8882838 C5.02326706,31.2262882 5.29697887,31.5 5.6349833,31.5 L10.7384445,31.5 C11.0764489,31.5 11.3501607,31.2259761 11.3501607,30.8882838 L11.3501607,18.4429793 L15.9236759,18.4429793 C16.2616803,18.4429793 16.5353922,18.1692675 16.5353922,17.8312631 L16.5372648,12.8991448 C16.5372648,12.7368528 16.47266,12.5814269 16.3581193,12.4665741 C16.2435785,12.3517212 16.0875285,12.2871165 15.9252364,12.2871165 L11.3501607,12.2871165 L11.3501607,9.40143878 C11.3501607,8.01446584 11.6806748,7.31036797 13.4874224,7.31036797 L16.1081271,7.30943167 C16.4458194,7.30943167 16.7195312,7.03540776 16.7195312,6.69771543 L16.7195312,2.11795824 C16.7195312,1.78057801 16.4461315,1.5068662 16.1087513,1.506242 Z" id="Path"></path>
                </g>
            </g>
        </g>
    </g>
</svg>