<svg height="62" viewBox="0 0 214 62" width="214" xmlns="http://www.w3.org/2000/svg" xmlns:xlink="http://www.w3.org/1999/xlink"><linearGradient id="a"><stop offset="0" stop-color="#006e96"/><stop offset="1" stop-color="#00b3e3"/></linearGradient><linearGradient id="b" x1="49.639227%" x2="49.639227%" xlink:href="#a" y1="99.948675%" y2="-.114139%"/><linearGradient id="c" x1="50.052995%" x2="50.052995%" xlink:href="#a" y1="100.057754%" y2=".14893%"/><linearGradient id="d" x1="50.078159%" x2="50.078159%" xlink:href="#a" y1="100.007942%" y2="-.099639%"/><linearGradient id="e" x1="50.093528%" x2="50.093528%" xlink:href="#a" y1="99.975526%" y2="-.191205%"/><linearGradient id="f" x1="50.006977%" x2="50.006977%" xlink:href="#a" y1="100.049559%" y2=".244559%"/><g fill="none" transform="translate(.58209)"><path d="m39.1171053 61.9592105h-5.3434211c-1.2236842 0-2.4065789-.4894737-3.2631579-1.3868421-.8973684-.8973684-1.3460526-2.0394737-1.3460526-3.3039473l.0815789-24.4736843c0-1.2236842.4894737-2.4065789 1.3868421-3.2631579.8973685-.8973684 2.0394737-1.3868421 3.3039474-1.3460526h5.3434211c2.5697368 0 4.65 2.1210526 4.65 4.65l-.081579 24.4736842c-.0815789 2.5697369-2.1618421 4.65-4.7315789 4.65zm0-.5302631c2.2842105 0 4.1605263-1.8355263 4.1605263-4.1605263l.0815789-24.4736843c0-2.2842105-1.8355263-4.1605263-4.1605263-4.1605263h-5.343421c-1.1013158 0-2.1210527.4486842-2.9368421 1.2236842-.775.775-1.2236843 1.8355264-1.2236843 2.9368421l-.0815789 24.4736843c0 1.1013157.4078947 2.1618421 1.2236842 2.9368421.775.775 1.8355263 1.2236842 2.9368421 1.2236842z" fill="url(#b)"/><path d="m77.7855263 50.9868421-22.0263158-.0815789c-2.5697368 0-4.65-2.0802632-4.65-4.65v-5.8736843c0-2.5697368 2.0802632-4.65 4.65-4.65l22.0263158.081579c2.5697369 0 4.65 2.1210526 4.65 4.65v5.8736842c0 2.5697368-2.0802631 4.65-4.65 4.65zm0-.4894737c2.2842105 0 4.1605263-1.8355263 4.1605263-4.1605263v-5.8736842c0-2.2842105-1.8355263-4.1605263-4.1605263-4.1605263l-22.0263158-.081579c-2.2842105 0-4.1605263 1.8355263-4.1605263 4.1605263v5.8736843c0 2.2842105 1.8355263 4.1605263 4.1605263 4.1605263z" fill="url(#c)"/><path d="m97.4460526 41.075-16.8868421-.0407895c-2.5697368 0-4.65-2.1210526-4.65-4.65v-1.9578947c0-2.5697369 2.0802632-4.65 4.65-4.65l16.8868421.0407895c1.2236842 0 2.406579.4894736 3.2631584 1.3868421.897368.8973684 1.346052 2.0394737 1.346052 3.3039473v1.9578948c0 1.2236842-.489474 2.4065789-1.386842 3.2631579-.8565789.8565789-1.9986842 1.3460526-3.2223684 1.3460526zm-16.8868421-10.8092105c-2.2842105 0-4.1605263 1.8355263-4.1605263 4.1605263v1.9578947c0 2.2842106 1.8355263 4.1605263 4.1605263 4.1605263l16.8868421.0407895c1.1013158 0 2.1210527-.4486842 2.9368424-1.2236842.775-.775 1.223684-1.8355263 1.223684-2.9368421v-1.9578947c0-2.2842106-1.8355264-4.1605264-4.1605264-4.1605264z" fill="url(#d)"/><path d="m40.1776316 21.2105263-35.44605265.1631579c-2.56973684 0-4.65-1.9578947-4.65-4.5276316l.04078947-11.62499997c0-1.22368421.48947369-2.69210526 1.38684211-3.54868421s2.03947368-1.63157895 3.26315789-1.63157895l35.40526318.44868421c2.5697368 0 4.65 2.24342106 4.65 4.8131579l-.0407895 11.78815792c0 1.2236842-.4078947 2.2026316-1.2644737 3.1-.8565789.8157894-2.0802631 1.0197368-3.3447368 1.0197368zm-35.36447371-20.39473683c-1.10131578 0-2.1618421.57105264-2.9368421 1.34605264s-1.22368421 1.91710526-1.22368421 3.01842105l-.04078947 11.74736844c0 2.2842105 1.83552631 4.1605263 4.16052631 4.1605263l35.40526318-.0407895h.2447368c.775 0 1.9171053-.2447368 2.7328948-1.0605263.775-.775 1.2236842-1.7947368 1.2236842-2.9368421l.0407894-11.70657895c0-2.28421052-1.8355263-4.32368421-4.1605263-4.32368421z" fill="url(#e)"/><path d="m54.0460526 42.0539474-11.7473684-.0407895c-1.2236842 0-2.4065789-.4894737-3.2631579-1.3868421-.8973684-.8973684-1.3460526-2.0394737-1.3460526-3.3039474l.0407895-18.3552631c0-2.5697369 2.0802631-4.65 4.65-4.65l11.7473684.0407894c1.2236842 0 2.4065789.4894737 3.2631579 1.3868421.8973684.8973685 1.3460526 2.0394737 1.3460526 3.3039474l-.0407895 18.3552632c0 2.5697368-2.0802631 4.65-4.65 4.65zm0-.4894737c2.2842106 0 4.1605263-1.8355263 4.1605263-4.1605263l.0407895-18.3552632c0-2.2842105-1.8355263-4.1605263-4.1605263-4.1605263l-11.7473684-.0407895c-2.2842105 0-4.1605263 1.8355263-4.1605263 4.1605263l-.0407895 18.3552632c0 1.1013158.4078947 2.1618421 1.2236842 2.9368421.775.775 1.8355263 1.2236842 2.9368421 1.2236842z" fill="url(#f)"/><g transform="translate(62 17.539474)"><g fill="#95d600"><path d="m6.11842105 8.64736842c-.775.73421053-1.55 1.01973684-2.52894737 1.01973684-1.91710526 0-3.50789473-1.14210526-3.50789473-3.46710526s1.59078947-3.46710526 3.50789473-3.46710526c.9381579 0 1.63157895.28552631 2.36578948.97894737l-1.01973684 1.06052631c-.36710527-.32631579-.85657895-.53026316-1.30526316-.53026316-1.10131579 0-1.87631579.81578948-1.87631579 1.95789474 0 1.26447368.85657895 1.91710526 1.87631579 1.91710526.53026316 0 1.01973684-.16315789 1.42763158-.53026315z"/><path d="m8.44342105.20394737v9.3h-1.59078947v-9.3z"/><path d="m11.2578947 6.81184211c.1223685.81578947.8157895 1.3868421 1.9578948 1.3868421.6118421 0 1.3868421-.24473684 1.7539473-.6118421l1.0197369 1.01973684c-.6934211.73421052-1.8355263 1.06052631-2.8144737 1.06052631-2.2434211 0-3.58947368-1.3868421-3.58947368-3.50789473 0-1.99868421 1.34605258-3.42631579 3.50789478-3.42631579 2.2026315 0 3.5486842 1.34605263 3.3039473 4.07894737zm3.5894737-1.34605264c-.1223684-.85657894-.775-1.26447368-1.7131579-1.26447368-.8973684 0-1.5907894.40789474-1.8355263 1.26447368z"/><path d="m24.3105263 2.93684211-2.8144737 6.60789473h-1.7539473l-2.8144737-6.60789473h1.7539473l.8973685 2.1618421 1.0197368 2.77368421.9789474-2.73289474.8973684-2.20263157z"/><path d="m26.4723684 6.81184211c.1223684.81578947.8157895 1.3868421 1.9578948 1.3868421.6118421 0 1.3868421-.24473684 1.7539473-.6118421l1.0197369 1.01973684c-.6934211.73421052-1.8355263 1.06052631-2.8144737 1.06052631-2.2434211 0-3.5894737-1.3868421-3.5894737-3.50789473 0-1.99868421 1.3460526-3.42631579 3.5078947-3.42631579 2.2026316 0 3.5486842 1.34605263 3.3039474 4.07894737zm3.5486842-1.34605264c-.1223684-.85657894-.775-1.26447368-1.7131579-1.26447368-.8973684 0-1.5907894.40789474-1.8355263 1.26447368z"/><path d="m34.4671053.20394737v9.3h-1.5907895v-9.3z"/><path d="m41.075 2.93684211h1.55v6.56710526h-1.55l-.0815789-.9381579c-.3671053.775-1.3868422 1.14210527-2.1210527 1.14210527-1.9578947 0-3.3855263-1.18289474-3.3855263-3.50789474 0-2.24342105 1.5092105-3.46710526 3.4263158-3.42631579.8973684 0 1.7131579.40789474 2.0802632 1.06052632zm-3.9157895 3.26315789c0 1.26447368.856579 1.99868421 1.9578948 1.99868421 2.5697368 0 2.5697368-3.99736842 0-3.99736842-1.1013158.04078947-1.9578948.775-1.9578948 1.99868421z"/><path d="m48.8657895 9.50394737v-3.42631579c0-.97894737-.5302632-1.75394737-1.5907895-1.75394737-.9789474 0-1.6723684.85657895-1.6723684 1.83552632v3.34473684h-1.5907895v-6.56710526h1.4684211l.1223684.89736842c.6526316-.65263158 1.3460526-.97894737 2.1618421-.97894737 1.55 0 2.7736842 1.14210526 2.7736842 3.22236842v3.46710526h-1.6723684z"/><path d="m58.6960526.20394737v9.3h-1.5092105l-.1223684-.89736842c-.4894737.775-1.3052632 1.06052631-2.1210526 1.06052631-1.9171053 0-3.3855264-1.26447368-3.3855264-3.42631579 0-2.24342105 1.4276316-3.42631579 3.3447369-3.42631579.693421 0 1.7539473.36710527 2.1618421 1.06052632v-3.63026316h1.6315789zm-5.5065789 5.99605263c0 1.14210526.8157895 1.91710526 1.8763158 1.91710526 1.0197368 0 1.9171052-.73421052 1.9171052-1.91710526 0-1.14210526-.8973684-1.91710526-1.9171052-1.91710526-1.0605263 0-1.8763158.73421052-1.8763158 1.91710526z"/></g><path d="m68.8118421 2.93684211 1.4276316 4.93552631 1.5092105-4.93552631h1.7947369l-2.2842106 6.60789473h-1.8763158l-.693421-1.95789473-.5710526-2.20263158-.5710527 2.20263158-.693421 1.95789473h-1.8763158l-2.2842105-6.60789473h1.7947368l1.5092105 4.93552631 1.4276316-4.93552631z" fill="#00b3e3"/><path d="m80.1513158 2.93684211h1.55v6.56710526h-1.55l-.081579-.9381579c-.3671052.775-1.3868421 1.14210527-2.1210526 1.14210527-1.9578947 0-3.3855263-1.18289474-3.3855263-3.50789474 0-2.24342105 1.5092105-3.46710526 3.4263158-3.42631579.8973684 0 1.7131579.40789474 2.0802631 1.06052632zm-3.956579 3.26315789c0 1.26447368.856579 1.99868421 1.9578948 1.99868421 2.5697368 0 2.5697368-3.99736842 0-3.99736842-1.0605263.04078947-1.9578948.775-1.9578948 1.99868421z" fill="#00b3e3"/><path d="m85.0868421 1.10131579v1.87631579h1.7947368v1.3868421h-1.8355263v2.85526316c0 .61184211.3263158.9381579.856579.9381579.2447368 0 .5302631-.08157895.775-.20394737l.4486842 1.3868421c-.4486842.20394737-.856579.28552632-1.3460526.28552632-1.4276316.04078947-2.3657895-.775-2.3657895-2.40657895v-2.85526316h-1.2236842v-1.3868421h1.2236842v-1.67236842z" fill="#00b3e3"/><path d="m89.4921053 6.81184211c.1223684.81578947.8157894 1.3868421 1.9578947 1.3868421.6118421 0 1.3868421-.24473684 1.7539474-.6118421l1.0197368 1.01973684c-.693421.73421052-1.8355263 1.06052631-2.8144737 1.06052631-2.243421 0-3.5894737-1.3868421-3.5894737-3.50789473 0-1.99868421 1.3460527-3.42631579 3.5078948-3.42631579 2.2026316 0 3.5486842 1.34605263 3.3039473 4.07894737zm3.5894736-1.34605264c-.1223684-.85657894-.775-1.26447368-1.7131578-1.26447368-.8973685 0-1.5907895.40789474-1.8355264 1.26447368z" fill="#00b3e3"/><path d="m97.3644737 2.93684211.1223684.775c.4894737-.81578948 1.1828947-.9381579 1.8355263-.9381579.6934206 0 1.3460526.28552632 1.6723686.61184211l-.734211 1.42763157c-.3263155-.28552631-.6526313-.40789473-1.1828944-.40789473-.856579 0-1.631579.44868421-1.631579 1.67236842v3.46710526h-1.6315789v-6.60789473z" fill="#00b3e3"/><path d="m109.560526 2.93684211h1.55v6.56710526h-1.55l-.081579-.9381579c-.367105.775-1.386842 1.14210527-2.121052 1.14210527-1.957895 0-3.385527-1.18289474-3.385527-3.50789474 0-2.24342105 1.509211-3.46710526 3.426316-3.42631579.897369 0 1.713158.40789474 2.080263 1.06052632zm-3.956579 3.26315789c0 1.26447368.856579 1.99868421 1.957895 1.99868421 2.569737 0 2.569737-3.99736842 0-3.99736842-1.101316.04078947-1.957895.775-1.957895 1.99868421z" fill="#f7901e"/><path d="m114.088158.20394737v9.3h-1.59079v-9.3z" fill="#f7901e"/><path d="m117.147368.20394737v9.3h-1.590789v-9.3z" fill="#f7901e"/><path d="m120.328947 1.10131579c0 1.26447368-1.917105 1.26447368-1.917105 0 0-1.26447369 1.917105-1.26447369 1.917105 0zm-1.753947 1.79473684v6.60789474h1.631579v-6.60789474z" fill="#f7901e"/><path d="m126.855263 2.93684211h1.55v6.56710526h-1.55l-.081579-.9381579c-.367105.775-1.386842 1.14210527-2.121052 1.14210527-1.957895 0-3.385527-1.18289474-3.385527-3.50789474 0-2.24342105 1.509211-3.46710526 3.426316-3.42631579.897368 0 1.713158.40789474 2.080263 1.06052632zm-3.956579 3.26315789c0 1.26447368.856579 1.99868421 1.957895 1.99868421 2.569737 0 2.569737-3.99736842 0-3.99736842-1.060526.04078947-1.957895.775-1.957895 1.99868421z" fill="#f7901e"/><path d="m134.605263 9.50394737v-3.42631579c0-.97894737-.530263-1.75394737-1.590789-1.75394737-.978948 0-1.672369.85657895-1.672369 1.83552632v3.34473684h-1.590789v-6.56710526h1.468421l.122368.89736842c.652632-.65263158 1.346053-.97894737 2.161842-.97894737 1.55 0 2.773685 1.14210526 2.773685 3.22236842v3.46710526h-1.672369z" fill="#f7901e"/><path d="m143.293421 8.64736842c-.775.73421053-1.55 1.01973684-2.528947 1.01973684-1.917106 0-3.507895-1.14210526-3.507895-3.46710526s1.590789-3.46710526 3.507895-3.46710526c.938158 0 1.631579.28552631 2.365789.97894737l-1.019737 1.06052631c-.367105-.32631579-.856579-.53026316-1.305263-.53026316-1.101316 0-1.876316.81578948-1.876316 1.95789474 0 1.26447368.856579 1.91710526 1.876316 1.91710526.530263 0 1.019737-.16315789 1.427632-.53026315z" fill="#f7901e"/><path d="m145.659211 6.81184211c.122368.81578947.815789 1.3868421 1.957894 1.3868421.611842 0 1.386842-.24473684 1.753948-.6118421l1.019736 1.01973684c-.693421.73421052-1.835526 1.06052631-2.814473 1.06052631-2.243421 0-3.589474-1.3868421-3.589474-3.50789473 0-1.99868421 1.346053-3.42631579 3.507895-3.42631579 2.202631 0 3.548684 1.34605263 3.303947 4.07894737zm3.548684-1.34605264c-.122369-.85657894-.775-1.26447368-1.713158-1.26447368-.897369 0-1.59079.40789474-1.835526 1.26447368z" fill="#f7901e"/></g></g></svg>