<?xml version="1.0"?>
<svg xmlns="http://www.w3.org/2000/svg" id="Layer_1_1_" enable-background="new 0 0 64 64" height="512px" viewBox="0 0 64 64" width="512px" class=""><g><g><path d="m3 2h58v40h-58z" fill="#d9d9d9" data-original="#D9D9D9" class=""/><path d="m3 39h58v3h-58z" fill="#ccc" data-original="#CCC" class=""/><path d="m49 20h5v17h-5z" fill="#2f6799" data-original="#2F6799" class=""/><path d="m39 24h5v13h-5z" fill="#2f6799" data-original="#2F6799" class=""/><path d="m29 28h5v9h-5z" fill="#2f6799" data-original="#2F6799" class=""/><path d="m56.811 7.416c-.188-.262-.49-.416-.811-.416h-6v2h2.799l-5.416 3.75c-3.225 2.232-6.706 4.103-10.347 5.559l-9.408 3.763.743 1.857 9.408-3.763c3.78-1.512 7.394-3.454 10.742-5.771l5.581-3.864-1.051 3.154 1.897.633 2-6c.102-.307.051-.642-.137-.902z" fill="#ef476f" data-original="#75D7FF" class="" data-old_color="#ef476f" style="fill:#75D7FF"/><g fill="#ffdc73"><path d="m58 56h2v2h-2z" data-original="#000000" class=""/><path d="m58 60h2v2h-2z" data-original="#000000" class=""/><path d="m60 58h2v2h-2z" data-original="#000000" class=""/><path d="m56 58h2v2h-2z" data-original="#000000" class=""/></g><circle cx="15.994" cy="16" fill="#ffac3e" r="9" data-original="#449DD1" class="" data-old_color="#ffac3e" style="fill:#449DD1"/><circle cx="15.994" cy="16" fill="#ffdc73" r="7" data-original="#98DCEF" class="" data-old_color="#ffdc73" style="fill:#98DCEF"/><path d="m16.4 15h-.8c-.331 0-.6-.269-.6-.6v-.8c0-.331.269-.6.6-.6h.8c.331 0 .6.269.6.6h2c0-1.226-.856-2.251-2-2.523v-1.077h-2v1.077c-1.144.273-2 1.297-2 2.523v.8c0 1.434 1.167 2.6 2.6 2.6h.8c.331 0 .6.269.6.6v.8c0 .331-.269.6-.6.6h-.8c-.331 0-.6-.269-.6-.6h-2c0 1.226.856 2.251 2 2.523v1.077h2v-1.077c1.144-.273 2-1.297 2-2.523v-.8c0-1.433-1.166-2.6-2.6-2.6z" fill="#ffac3e" data-original="#449DD1" class="" data-old_color="#ffac3e" style="fill:#449DD1"/><path d="m16.54 48h-9.08c-3.015 0-5.46 2.445-5.46 5.46v8.54h20v-8.54c0-3.015-2.445-5.46-5.46-5.46z" fill="#99e1ff" data-original="#99E1FF" class=""/><path d="m12 51-2 4 2 4 2-4z" fill="#f4f4f4" data-original="#F4F4F4" class=""/><path d="m18 42c0-3.314-2.686-6-6-6s-6 2.686-6 6c0 2.22 1.208 4.153 3 5.191v1l3 3 3-3v-1c1.792-1.038 3-2.971 3-5.191z" fill="#ffcd94" data-original="#FFCD94" class=""/><circle cx="12" cy="42" fill="#ffdbb3" r="6" data-original="#FFDBB3" class=""/><path d="m12 36c-2.903 0-5.324 2.061-5.88 4.8.653.292 1.372.45 2.13.45 1.47 0 2.805-.607 3.75-1.583.945.975 2.28 1.583 3.75 1.583.757 0 1.477-.157 2.13-.45-.556-2.739-2.977-4.8-5.88-4.8z" fill="#26547c" data-original="#26547C" class="active-path"/><path d="m6 62h-1v-7l1-1z" fill="#75d7ff" data-original="#75D7FF" class="" style="fill:#75D7FF"/><path d="m19 62h-1v-8l1 1z" fill="#75d7ff" data-original="#75D7FF" class="" style="fill:#75D7FF"/></g></g> </svg>
