<?xml version="1.0"?>
<svg xmlns="http://www.w3.org/2000/svg" id="speach_x5F_crowd" enable-background="new 0 0 300 300" height="512px" viewBox="0 0 300 300" width="512px" class=""><g><g><circle cx="116" cy="124.178" fill="#efefd2" r="90" data-original="#F4F5F9" class="" data-old_color="#efefd2" style="fill:#F4F5F9"/><path d="m52.887 53.615c-1.023 0-2.047-.391-2.828-1.172l-11.793-11.793c-1.562-1.562-1.562-4.094 0-5.656s4.094-1.562 5.656 0l11.793 11.793c1.562 1.562 1.562 4.094 0 5.656-.781.782-1.805 1.172-2.828 1.172z" fill="#4c241d" data-original="#4C241D" class=""/><path d="m41.094 53.615c-1.023 0-2.047-.391-2.828-1.172-1.562-1.562-1.562-4.094 0-5.656l11.793-11.793c1.562-1.562 4.094-1.562 5.656 0s1.562 4.094 0 5.656l-11.793 11.793c-.781.782-1.805 1.172-2.828 1.172z" fill="#4c241d" data-original="#4C241D" class=""/><circle cx="86" cy="62.178" fill="#e7d1c4" r="8" data-original="#E7D1C4" class=""/><path d="m86 74.178c-6.617 0-12-5.383-12-12s5.383-12 12-12 12 5.383 12 12-5.383 12-12 12zm0-16c-2.207 0-4 1.793-4 4s1.793 4 4 4 4-1.793 4-4-1.793-4-4-4z" fill="#4c241d" data-original="#4C241D" class=""/><path d="m102 94.178h-32v-4c0-8.837 7.163-16 16-16 8.837 0 16 7.163 16 16z" fill="#e7d1c4" data-original="#E7D1C4" class=""/><path d="m102 98.178h-32c-2.211 0-4-1.789-4-4v-4c0-11.027 8.973-20 20-20s20 8.973 20 20v4c0 2.211-1.789 4-4 4zm-28-8h24c0-6.617-5.383-12-12-12s-12 5.383-12 12z" fill="#4c241d" data-original="#4C241D" class=""/><circle cx="118" cy="62.178" fill="#e7d1c4" r="8" data-original="#E7D1C4" class=""/><path d="m118 74.178c-6.617 0-12-5.383-12-12s5.383-12 12-12 12 5.383 12 12-5.383 12-12 12zm0-16c-2.207 0-4 1.793-4 4s1.793 4 4 4 4-1.793 4-4-1.793-4-4-4z" fill="#4c241d" data-original="#4C241D" class=""/><path d="m134 94.178h-32v-4c0-8.837 7.163-16 16-16 8.837 0 16 7.163 16 16z" fill="#e7d1c4" data-original="#E7D1C4" class=""/><path d="m134 98.178h-32c-2.211 0-4-1.789-4-4v-4c0-11.027 8.973-20 20-20s20 8.973 20 20v4c0 2.211-1.789 4-4 4zm-28-8h24c0-6.617-5.383-12-12-12s-12 5.383-12 12z" fill="#4c241d" data-original="#4C241D" class=""/><circle cx="150" cy="62.178" fill="#e7d1c4" r="8" data-original="#E7D1C4" class=""/><path d="m150 74.178c-6.617 0-12-5.383-12-12s5.383-12 12-12 12 5.383 12 12-5.383 12-12 12zm0-16c-2.207 0-4 1.793-4 4s1.793 4 4 4 4-1.793 4-4-1.793-4-4-4z" fill="#4c241d" data-original="#4C241D" class=""/><path d="m166 94.178h-32v-4c0-8.837 7.163-16 16-16 8.837 0 16 7.163 16 16z" fill="#e7d1c4" data-original="#E7D1C4" class=""/><path d="m166 98.178h-32c-2.211 0-4-1.789-4-4v-4c0-11.027 8.973-20 20-20s20 8.973 20 20v4c0 2.211-1.789 4-4 4zm-28-8h24c0-6.617-5.383-12-12-12s-12 5.383-12 12z" fill="#4c241d" data-original="#4C241D" class=""/><circle cx="182" cy="62.178" fill="#e7d1c4" r="8" data-original="#E7D1C4" class=""/><path d="m182 74.178c-6.617 0-12-5.383-12-12s5.383-12 12-12 12 5.383 12 12-5.383 12-12 12zm0-16c-2.207 0-4 1.793-4 4s1.793 4 4 4 4-1.793 4-4-1.793-4-4-4z" fill="#4c241d" data-original="#4C241D" class=""/><path d="m198 94.178h-32v-4c0-8.837 7.163-16 16-16 8.837 0 16 7.163 16 16z" fill="#e7d1c4" data-original="#E7D1C4" class=""/><path d="m198 98.178h-32c-2.211 0-4-1.789-4-4v-4c0-11.027 8.973-20 20-20s20 8.973 20 20v4c0 2.211-1.789 4-4 4zm-28-8h24c0-6.617-5.383-12-12-12s-12 5.383-12 12z" fill="#4c241d" data-original="#4C241D" class=""/><circle cx="214" cy="62.178" fill="#e7d1c4" r="8" data-original="#E7D1C4" class=""/><path d="m214 74.178c-6.617 0-12-5.383-12-12s5.383-12 12-12 12 5.383 12 12-5.383 12-12 12zm0-16c-2.207 0-4 1.793-4 4s1.793 4 4 4 4-1.793 4-4-1.793-4-4-4z" fill="#4c241d" data-original="#4C241D" class=""/><path d="m230 94.178h-32v-4c0-8.837 7.163-16 16-16 8.837 0 16 7.163 16 16z" fill="#e7d1c4" data-original="#E7D1C4" class=""/><path d="m230 98.178h-32c-2.211 0-4-1.789-4-4v-4c0-11.027 8.973-20 20-20s20 8.973 20 20v4c0 2.211-1.789 4-4 4zm-28-8h24c0-6.617-5.383-12-12-12s-12 5.383-12 12z" fill="#4c241d" data-original="#4C241D" class=""/><circle cx="70" cy="106.178" fill="#c1dbdc" r="8" data-original="#18B4CA" class="" data-old_color="#c1dbdc" style="fill:#18B4CA"/><path d="m70 118.178c-6.617 0-12-5.383-12-12s5.383-12 12-12 12 5.383 12 12-5.383 12-12 12zm0-16c-2.207 0-4 1.793-4 4s1.793 4 4 4 4-1.793 4-4-1.793-4-4-4z" fill="#4c241d" data-original="#4C241D" class=""/><path d="m86 138.178h-32v-4c0-8.837 7.163-16 16-16 8.837 0 16 7.163 16 16z" fill="#c1dbdc" data-original="#18B4CA" class="" data-old_color="#c1dbdc" style="fill:#18B4CA"/><path d="m86 142.178h-32c-2.211 0-4-1.789-4-4v-4c0-11.027 8.973-20 20-20s20 8.973 20 20v4c0 2.211-1.789 4-4 4zm-28-8h24c0-6.617-5.383-12-12-12s-12 5.383-12 12z" fill="#4c241d" data-original="#4C241D" class=""/><circle cx="102" cy="106.178" fill="#c1dbdc" r="8" data-original="#18B4CA" class="" data-old_color="#c1dbdc" style="fill:#18B4CA"/><path d="m102 118.178c-6.617 0-12-5.383-12-12s5.383-12 12-12 12 5.383 12 12-5.383 12-12 12zm0-16c-2.207 0-4 1.793-4 4s1.793 4 4 4 4-1.793 4-4-1.793-4-4-4z" fill="#4c241d" data-original="#4C241D" class=""/><path d="m118 138.178h-32v-4c0-8.837 7.163-16 16-16 8.837 0 16 7.163 16 16z" fill="#c1dbdc" data-original="#18B4CA" class="" data-old_color="#c1dbdc" style="fill:#18B4CA"/><path d="m118 142.178h-32c-2.211 0-4-1.789-4-4v-4c0-11.027 8.973-20 20-20s20 8.973 20 20v4c0 2.211-1.789 4-4 4zm-28-8h24c0-6.617-5.383-12-12-12s-12 5.383-12 12z" fill="#4c241d" data-original="#4C241D" class=""/><circle cx="134" cy="106.178" fill="#c1dbdc" r="8" data-original="#18B4CA" class="" data-old_color="#c1dbdc" style="fill:#18B4CA"/><path d="m134 118.178c-6.617 0-12-5.383-12-12s5.383-12 12-12 12 5.383 12 12-5.383 12-12 12zm0-16c-2.207 0-4 1.793-4 4s1.793 4 4 4 4-1.793 4-4-1.793-4-4-4z" fill="#4c241d" data-original="#4C241D" class=""/><path d="m150 138.178h-32v-4c0-8.837 7.163-16 16-16 8.837 0 16 7.163 16 16z" fill="#c1dbdc" data-original="#18B4CA" class="" data-old_color="#c1dbdc" style="fill:#18B4CA"/><path d="m150 142.178h-32c-2.211 0-4-1.789-4-4v-4c0-11.027 8.973-20 20-20s20 8.973 20 20v4c0 2.211-1.789 4-4 4zm-28-8h24c0-6.617-5.383-12-12-12s-12 5.383-12 12z" fill="#4c241d" data-original="#4C241D" class=""/><circle cx="166" cy="106.178" fill="#c1dbdc" r="8" data-original="#18B4CA" class="" data-old_color="#c1dbdc" style="fill:#18B4CA"/><path d="m166 118.178c-6.617 0-12-5.383-12-12s5.383-12 12-12 12 5.383 12 12-5.383 12-12 12zm0-16c-2.207 0-4 1.793-4 4s1.793 4 4 4 4-1.793 4-4-1.793-4-4-4z" fill="#4c241d" data-original="#4C241D" class=""/><path d="m182 138.178h-32v-4c0-8.837 7.163-16 16-16 8.837 0 16 7.163 16 16z" fill="#c1dbdc" data-original="#18B4CA" class="" data-old_color="#c1dbdc" style="fill:#18B4CA"/><path d="m182 142.178h-32c-2.211 0-4-1.789-4-4v-4c0-11.027 8.973-20 20-20s20 8.973 20 20v4c0 2.211-1.789 4-4 4zm-28-8h24c0-6.617-5.383-12-12-12s-12 5.383-12 12z" fill="#4c241d" data-original="#4C241D" class=""/><circle cx="198" cy="106.178" fill="#c1dbdc" r="8" data-original="#18B4CA" class="" data-old_color="#c1dbdc" style="fill:#18B4CA"/><path d="m198 118.178c-6.617 0-12-5.383-12-12s5.383-12 12-12 12 5.383 12 12-5.383 12-12 12zm0-16c-2.207 0-4 1.793-4 4s1.793 4 4 4 4-1.793 4-4-1.793-4-4-4z" fill="#4c241d" data-original="#4C241D" class=""/><path d="m214 138.178h-32v-4c0-8.837 7.163-16 16-16 8.837 0 16 7.163 16 16z" fill="#c1dbdc" data-original="#18B4CA" class="" data-old_color="#c1dbdc" style="fill:#18B4CA"/><path d="m214 142.178h-32c-2.211 0-4-1.789-4-4v-4c0-11.027 8.973-20 20-20s20 8.973 20 20v4c0 2.211-1.789 4-4 4zm-28-8h24c0-6.617-5.383-12-12-12s-12 5.383-12 12z" fill="#4c241d" data-original="#4C241D" class=""/><circle cx="230" cy="106.178" fill="#c1dbdc" r="8" data-original="#18B4CA" class="" data-old_color="#c1dbdc" style="fill:#18B4CA"/><path d="m230 118.178c-6.617 0-12-5.383-12-12s5.383-12 12-12 12 5.383 12 12-5.383 12-12 12zm0-16c-2.207 0-4 1.793-4 4s1.793 4 4 4 4-1.793 4-4-1.793-4-4-4z" fill="#4c241d" data-original="#4C241D" class=""/><path d="m246 138.178h-32v-4c0-8.837 7.163-16 16-16 8.837 0 16 7.163 16 16z" fill="#c1dbdc" data-original="#18B4CA" class="" data-old_color="#c1dbdc" style="fill:#18B4CA"/><path d="m246 142.178h-32c-2.211 0-4-1.789-4-4v-4c0-11.027 8.973-20 20-20s20 8.973 20 20v4c0 2.211-1.789 4-4 4zm-28-8h24c0-6.617-5.383-12-12-12s-12 5.383-12 12z" fill="#4c241d" data-original="#4C241D" class=""/><circle cx="54" cy="146.178" fill="#ffce56" r="8" data-original="#98DCEF" class="" data-old_color="#ffce56" style="fill:#98DCEF"/><path d="m54 158.178c-6.617 0-12-5.383-12-12s5.383-12 12-12 12 5.383 12 12-5.383 12-12 12zm0-16c-2.207 0-4 1.793-4 4s1.793 4 4 4 4-1.793 4-4-1.793-4-4-4z" fill="#4c241d" data-original="#4C241D" class=""/><path d="m70 178.178h-32v-4c0-8.837 7.163-16 16-16 8.837 0 16 7.163 16 16z" fill="#ffce56" data-original="#98DCEF" class="" data-old_color="#ffce56" style="fill:#98DCEF"/><path d="m70 182.178h-32c-2.211 0-4-1.789-4-4v-4c0-11.027 8.973-20 20-20s20 8.973 20 20v4c0 2.211-1.789 4-4 4zm-28-8h24c0-6.617-5.383-12-12-12s-12 5.383-12 12z" fill="#4c241d" data-original="#4C241D" class=""/><circle cx="86" cy="146.178" fill="#ffce56" r="8" data-original="#98DCEF" class="" data-old_color="#ffce56" style="fill:#98DCEF"/><path d="m86 158.178c-6.617 0-12-5.383-12-12s5.383-12 12-12 12 5.383 12 12-5.383 12-12 12zm0-16c-2.207 0-4 1.793-4 4s1.793 4 4 4 4-1.793 4-4-1.793-4-4-4z" fill="#4c241d" data-original="#4C241D" class=""/><path d="m102 178.178h-32v-4c0-8.837 7.163-16 16-16 8.837 0 16 7.163 16 16z" fill="#ffce56" data-original="#98DCEF" class="" data-old_color="#ffce56" style="fill:#98DCEF"/><path d="m102 182.178h-32c-2.211 0-4-1.789-4-4v-4c0-11.027 8.973-20 20-20s20 8.973 20 20v4c0 2.211-1.789 4-4 4zm-28-8h24c0-6.617-5.383-12-12-12s-12 5.383-12 12z" fill="#4c241d" data-original="#4C241D" class=""/><circle cx="118" cy="146.178" fill="#ffce56" r="8" data-original="#98DCEF" class="" data-old_color="#ffce56" style="fill:#98DCEF"/><path d="m118 158.178c-6.617 0-12-5.383-12-12s5.383-12 12-12 12 5.383 12 12-5.383 12-12 12zm0-16c-2.207 0-4 1.793-4 4s1.793 4 4 4 4-1.793 4-4-1.793-4-4-4z" fill="#4c241d" data-original="#4C241D" class=""/><path d="m134 178.178h-32v-4c0-8.837 7.163-16 16-16 8.837 0 16 7.163 16 16z" fill="#ffce56" data-original="#98DCEF" class="" data-old_color="#ffce56" style="fill:#98DCEF"/><path d="m134 182.178h-32c-2.211 0-4-1.789-4-4v-4c0-11.027 8.973-20 20-20s20 8.973 20 20v4c0 2.211-1.789 4-4 4zm-28-8h24c0-6.617-5.383-12-12-12s-12 5.383-12 12z" fill="#4c241d" data-original="#4C241D" class=""/><circle cx="150" cy="146.178" fill="#ffce56" r="8" data-original="#98DCEF" class="" data-old_color="#ffce56" style="fill:#98DCEF"/><path d="m150 158.178c-6.617 0-12-5.383-12-12s5.383-12 12-12 12 5.383 12 12-5.383 12-12 12zm0-16c-2.207 0-4 1.793-4 4s1.793 4 4 4 4-1.793 4-4-1.793-4-4-4z" fill="#4c241d" data-original="#4C241D" class=""/><path d="m166 178.178h-32v-4c0-8.837 7.163-16 16-16 8.837 0 16 7.163 16 16z" fill="#ffce56" data-original="#98DCEF" class="" data-old_color="#ffce56" style="fill:#98DCEF"/><path d="m166 182.178h-32c-2.211 0-4-1.789-4-4v-4c0-11.027 8.973-20 20-20s20 8.973 20 20v4c0 2.211-1.789 4-4 4zm-28-8h24c0-6.617-5.383-12-12-12s-12 5.383-12 12z" fill="#4c241d" data-original="#4C241D" class=""/><circle cx="182" cy="146.178" fill="#ffce56" r="8" data-original="#98DCEF" class="" data-old_color="#ffce56" style="fill:#98DCEF"/><path d="m182 158.178c-6.617 0-12-5.383-12-12s5.383-12 12-12 12 5.383 12 12-5.383 12-12 12zm0-16c-2.207 0-4 1.793-4 4s1.793 4 4 4 4-1.793 4-4-1.793-4-4-4z" fill="#4c241d" data-original="#4C241D" class=""/><path d="m198 178.178h-32v-4c0-8.837 7.163-16 16-16 8.837 0 16 7.163 16 16z" fill="#ffce56" data-original="#98DCEF" class="" data-old_color="#ffce56" style="fill:#98DCEF"/><path d="m198 182.178h-32c-2.211 0-4-1.789-4-4v-4c0-11.027 8.973-20 20-20s20 8.973 20 20v4c0 2.211-1.789 4-4 4zm-28-8h24c0-6.617-5.383-12-12-12s-12 5.383-12 12z" fill="#4c241d" data-original="#4C241D" class=""/><circle cx="214" cy="146.178" fill="#ffce56" r="8" data-original="#98DCEF" class="" data-old_color="#ffce56" style="fill:#98DCEF"/><path d="m214 158.178c-6.617 0-12-5.383-12-12s5.383-12 12-12 12 5.383 12 12-5.383 12-12 12zm0-16c-2.207 0-4 1.793-4 4s1.793 4 4 4 4-1.793 4-4-1.793-4-4-4z" fill="#4c241d" data-original="#4C241D" class=""/><path d="m230 178.178h-32v-4c0-8.837 7.163-16 16-16 8.837 0 16 7.163 16 16z" fill="#ffce56" data-original="#98DCEF" class="" data-old_color="#ffce56" style="fill:#98DCEF"/><path d="m230 182.178h-32c-2.211 0-4-1.789-4-4v-4c0-11.027 8.973-20 20-20s20 8.973 20 20v4c0 2.211-1.789 4-4 4zm-28-8h24c0-6.617-5.383-12-12-12s-12 5.383-12 12z" fill="#4c241d" data-original="#4C241D" class=""/><circle cx="246" cy="146.178" fill="#ffce56" r="8" data-original="#98DCEF" class="" data-old_color="#ffce56" style="fill:#98DCEF"/><path d="m246 158.178c-6.617 0-12-5.383-12-12s5.383-12 12-12 12 5.383 12 12-5.383 12-12 12zm0-16c-2.207 0-4 1.793-4 4s1.793 4 4 4 4-1.793 4-4-1.793-4-4-4z" fill="#4c241d" data-original="#4C241D" class=""/><path d="m262 178.178h-32v-4c0-8.837 7.163-16 16-16 8.837 0 16 7.163 16 16z" fill="#ffce56" data-original="#98DCEF" class="" data-old_color="#ffce56" style="fill:#98DCEF"/><path d="m262 182.178h-32c-2.211 0-4-1.789-4-4v-4c0-11.027 8.973-20 20-20s20 8.973 20 20v4c0 2.211-1.789 4-4 4zm-28-8h24c0-6.617-5.383-12-12-12s-12 5.383-12 12z" fill="#4c241d" data-original="#4C241D" class=""/><path d="m270 230.178h-36v-24h36l-16 13.714z" fill="#fc8c29" data-original="#449DD1" class="" data-old_color="#fc8c29" style="fill:#449DD1"/><path d="m270 234.178h-36c-2.211 0-4-1.789-4-4v-24c0-2.211 1.789-4 4-4h36c1.676 0 3.172 1.043 3.75 2.613.582 1.57.125 3.336-1.148 4.422l-11.918 10.219 11.48 7.383c1.492.957 2.176 2.789 1.676 4.492-.504 1.703-2.067 2.871-3.84 2.871zm-32-8h18.379l-4.543-2.922c-1.062-.684-1.738-1.828-1.828-3.09-.086-1.262.43-2.488 1.391-3.309l7.789-6.68h-21.188z" fill="#4c241d" data-original="#4C241D" class=""/><path d="m138 214.178h24v20h-24z" fill="#e7d1c4" data-original="#E7D1C4" class=""/><path d="m162 238.178h-24c-2.211 0-4-1.789-4-4v-20c0-2.211 1.789-4 4-4h24c2.211 0 4 1.789 4 4v20c0 2.211-1.789 4-4 4zm-20-8h16v-12h-16z" fill="#4c241d" data-original="#4C241D" class=""/><path d="m150 218.178c-15.464 0-28-12.536-28-28v-13h56v13c0 15.464-12.536 28-28 28z" fill="#e7d1c4" data-original="#E7D1C4" class=""/><path d="m150 222.178c-17.645 0-32-14.355-32-32v-13c0-2.211 1.789-4 4-4h56c2.211 0 4 1.789 4 4v13c0 17.644-14.355 32-32 32zm-24-41v9c0 13.234 10.766 24 24 24s24-10.766 24-24v-9z" fill="#4c241d" data-original="#4C241D" class=""/><path d="m186 262.178h-72v-11.052c0-9.36 7.588-16.948 16.948-16.948h38.105c9.36 0 16.948 7.588 16.948 16.948v11.052z" fill="#9dc1e4" data-original="#9DC1E4" class=""/><g fill="#4c241d"><path d="m186 266.178h-72c-2.211 0-4-1.789-4-4v-11.051c0-11.551 9.398-20.949 20.949-20.949h38.102c11.551 0 20.949 9.398 20.949 20.949v11.051c0 2.211-1.789 4-4 4zm-68-8h64v-7.051c0-7.141-5.809-12.949-12.949-12.949h-38.102c-7.141 0-12.949 5.809-12.949 12.949z" data-original="#000000"/><path d="m202 266.178c-2.211 0-4-1.789-4-4v-25.891l-10.887-11.34c-1.527-1.594-1.477-4.125.117-5.656 1.59-1.523 4.129-1.48 5.656.117l12 12.5c.715.746 1.113 1.738 1.113 2.77v27.5c.001 2.211-1.788 4-3.999 4z" data-original="#000000"/><path d="m98 266.178c-2.211 0-4-1.789-4-4v-27.5c0-1.031.398-2.023 1.113-2.77l12-12.5c1.527-1.598 4.066-1.641 5.656-.117 1.594 1.531 1.645 4.062.117 5.656l-10.886 11.34v25.891c0 2.211-1.789 4-4 4z" data-original="#000000"/><path d="m214 266.178c-2.211 0-4-1.789-4-4v-68c0-2.211 1.789-4 4-4s4 1.789 4 4v68c0 2.211-1.789 4-4 4z" data-original="#000000"/></g><path d="m214 202.178h28v20h-28z" fill="#fc8c29" data-original="#449DD1" class="" data-old_color="#fc8c29" style="fill:#449DD1"/><path d="m242 226.178h-28c-2.211 0-4-1.789-4-4v-20c0-2.211 1.789-4 4-4h28c2.211 0 4 1.789 4 4v20c0 2.211-1.789 4-4 4zm-24-8h20v-12h-20z" fill="#4c241d" data-original="#4C241D" class=""/><path d="m30 230.178h36v-24h-36l16 13.714z" fill="#f53e28" data-original="#449DD1" class="" data-old_color="#f53e28" style="fill:#449DD1"/><path d="m66 234.178h-36c-1.773 0-3.336-1.168-3.84-2.871-.5-1.703.184-3.535 1.676-4.492l11.48-7.383-11.918-10.219c-1.273-1.086-1.73-2.852-1.148-4.422.578-1.57 2.074-2.613 3.75-2.613h36c2.211 0 4 1.789 4 4v24c0 2.211-1.789 4-4 4zm-22.379-8h18.379v-16h-21.188l7.789 6.68c.961.82 1.477 2.047 1.391 3.309-.09 1.262-.766 2.406-1.828 3.09z" fill="#4c241d" data-original="#4C241D" class=""/><path d="m86 266.178c-2.211 0-4-1.789-4-4v-68c0-2.211 1.789-4 4-4s4 1.789 4 4v68c0 2.211-1.789 4-4 4z" fill="#4c241d" data-original="#4C241D" class=""/><path d="m58 202.178h28v20h-28z" fill="#f53e28" transform="matrix(-1 0 0 -1 144 424.356)" data-original="#449DD1" class="" data-old_color="#f53e28" style="fill:#449DD1"/><path d="m86 226.178h-28c-2.211 0-4-1.789-4-4v-20c0-2.211 1.789-4 4-4h28c2.211 0 4 1.789 4 4v20c0 2.211-1.789 4-4 4zm-24-8h20v-12h-20z" fill="#4c241d" data-original="#4C241D" class=""/><path d="m238 98.178h-176c-2.211 0-4-1.789-4-4s1.789-4 4-4h176c2.211 0 4 1.789 4 4s-1.789 4-4 4z" fill="#4c241d" data-original="#4C241D" class=""/><path d="m254 142.178h-208c-2.211 0-4-1.789-4-4s1.789-4 4-4h208c2.211 0 4 1.789 4 4s-1.789 4-4 4z" fill="#4c241d" data-original="#4C241D" class=""/><path d="m270 182.178h-240c-2.211 0-4-1.789-4-4s1.789-4 4-4h240c2.211 0 4 1.789 4 4s-1.789 4-4 4z" fill="#4c241d" data-original="#4C241D" class=""/><path d="m156.664 202.178h-13.328c-11.784 0-21.336-9.552-21.336-21.336v-18.846c0-6.527 5.291-11.818 11.818-11.818h20.79c6.527 0 11.818 5.291 11.818 11.818h.067c6.355 0 11.506 5.151 11.506 11.506v7.34c.001 11.783-9.551 21.336-21.335 21.336z" fill="#b5a19c" data-original="#B5A19C" class="active-path" style="fill:#B5A19C" data-old_color="#b5a19c"/><path d="m156.664 206.178h-13.328c-13.969 0-25.336-11.367-25.336-25.336v-18.848c0-8.723 7.094-15.816 15.816-15.816h20.793c7.488 0 13.777 5.23 15.406 12.23 6.879 1.613 11.984 7.77 11.984 15.094v7.34c.001 13.969-11.366 25.336-25.335 25.336zm-22.848-52c-4.309 0-7.816 3.508-7.816 7.816v18.848c0 9.559 7.777 17.336 17.336 17.336h13.328c9.559 0 17.336-7.777 17.336-17.336v-7.34c0-4.141-3.367-7.508-7.508-7.508-2.211 0-4.066-1.789-4.066-4 0-4.309-3.508-7.816-7.816-7.816z" fill="#4c241d" data-original="#4C241D" class=""/></g></g> </svg>
