<?xml version="1.0"?>
<svg xmlns="http://www.w3.org/2000/svg" id="Layer_1_1_" enable-background="new 0 0 64 64" height="512px" viewBox="0 0 64 64" width="512px" class=""><g><g><g fill="#577399"><path d="m10.32 53.77h-.035c1.575-.538 2.715-2.013 2.715-3.77 0-2.209-1.791-4-4-4s-4 1.791-4 4c0 1.757 1.14 3.232 2.715 3.77h-.035c-2.63.29-4.68 2.52-4.68 5.23v3h12v-3c0-2.71-2.05-4.94-4.68-5.23z" data-original="#000000" class=""/><path d="m33.32 53.77h-.035c1.575-.538 2.715-2.013 2.715-3.77 0-2.209-1.791-4-4-4s-4 1.791-4 4c0 1.757 1.14 3.232 2.715 3.77h-.035c-2.63.29-4.68 2.52-4.68 5.23v3h12v-3c0-2.71-2.05-4.94-4.68-5.23z" data-original="#000000" class=""/><path d="m56.32 53.77h-.035c1.575-.538 2.715-2.013 2.715-3.77 0-2.209-1.791-4-4-4s-4 1.791-4 4c0 1.757 1.14 3.232 2.715 3.77h-.035c-2.63.29-4.68 2.52-4.68 5.23v3h12v-3c0-2.71-2.05-4.94-4.68-5.23z" data-original="#000000" class=""/></g><path d="m46 2v5l-5 4h5v4h13v-13z" fill="#404d59" data-original="#303644" class="" data-old_color="#404d59" style="fill:#303644"/><path d="m19 3 1.236 2.633 2.764.423-2 2.05.472 2.894-2.472-1.367-2.472 1.367.472-2.894-2-2.05 2.764-.423z" fill="#fe5f55" data-original="#18B4CA" class="" data-old_color="#fe5f55" style="fill:#18B4CA"/><path d="m51 11c-.257 0-.514-.099-.708-.293l-1.292-1.293c-.39-.39-.39-1.024 0-1.414.39-.39 1.024-.39 1.414 0l.66.66 3.52-2.816c.432-.345 1.061-.275 1.406.156.345.431.275 1.06-.156 1.405l-4.22 3.376c-.183.147-.404.219-.624.219z" fill="#eaeaea" data-original="#EAEAEA" class=""/><path d="m33 39.586v-6.586h-2v6.586l-1.293-1.293-1.414 1.414 3 3c.195.195.451.293.707.293s.512-.098.707-.293l3-3-1.414-1.414z" fill="#495867" data-original="#495867" class=""/><path d="m8 38v1.586l-1.293-1.293-1.414 1.414 3 3c.195.195.451.293.707.293s.512-.098.707-.293l3-3-1.414-1.414-1.293 1.293v-1.586c0-3.859 3.14-7 7-7h4v-2h-4c-4.962 0-9 4.037-9 9z" fill="#495867" data-original="#495867" class=""/><path d="m57.293 38.293-1.293 1.293v-1.586c0-4.963-4.038-9-9-9h-4v2h4c3.86 0 7 3.141 7 7v1.586l-1.293-1.293-1.414 1.414 3 3c.195.195.451.293.707.293s.512-.098.707-.293l3-3z" fill="#495867" data-original="#495867" class=""/><path d="m39 31h-14v-11c0-3.314 2.686-6 6-6h2c3.314 0 6 2.686 6 6z" fill="#759acc" data-original="#759ACC"/><path d="m32 14-2 4 2 7 2-7z" fill="#eaeaea" data-original="#EAEAEA" class=""/><circle cx="32" cy="9" fill="#ffdbac" r="5" data-original="#FFDBAC" class="active-path"/><path d="m36.974 8.738c-.139-2.637-2.302-4.738-4.974-4.738s-4.835 2.101-4.974 4.738c1.368-1.083 3.091-1.738 4.974-1.738s3.606.655 4.974 1.738z" fill="#495867" data-original="#495867" class=""/></g></g> </svg>
