<?xml version="1.0" encoding="UTF-8"?>
<svg width="112px" height="112px" viewBox="0 0 112 112" version="1.1" xmlns="http://www.w3.org/2000/svg" xmlns:xlink="http://www.w3.org/1999/xlink">
    <!-- Generator: Sketch 54.1 (76490) - https://sketchapp.com -->
    <title>Group 4</title>
    <desc>Created with Sketch.</desc>
    <g id="Mockups" stroke="none" stroke-width="1" fill="none" fill-rule="evenodd">
        <g id="HOME" transform="translate(-266.000000, -983.000000)">
            <g id="Group-4" transform="translate(267.000000, 984.000000)">
                <circle id="Oval" stroke="#E5E5E5" cx="55" cy="55" r="55"></circle>
                <circle id="Oval" fill="#4CB0C9" opacity="0.4" cx="55" cy="55" r="39.2857143"></circle>
                <g id="009-product" transform="translate(30.000000, 30.000000)" fill="#4CB0C9" fill-rule="nonzero" stroke="#4CB0C9" stroke-width="0.2">
                    <path d="M44.7682868,21.5313029 L48.8559037,20.9541383 C49.1199287,20.9169274 49.3299144,20.7138466 49.375929,20.4512128 C49.4219437,20.1885791 49.2935077,19.9262052 49.0578601,19.8014494 L33.3916862,11.5029915 C34.2461059,8.7133118 33.6785238,5.68199205 31.8726935,3.39041555 C30.0668632,1.09883906 27.2522752,-0.161773334 24.3401465,0.0166989328 C19.8383653,0.312457333 16.1837757,4.05500566 16.0204678,8.53495092 C15.9830155,9.47269685 16.0947488,10.4104399 16.3514917,11.3131321 L0.327332325,19.8014494 C0.0916846899,19.9262052 -0.0367512678,20.1885791 0.00926335735,20.4512128 C0.0552779825,20.7138466 0.265263726,20.9169274 0.529288668,20.9541383 L5.5283745,21.6599604 L0.691161289,28.8960459 C0.589373676,29.0483123 0.560737284,29.238019 0.613044166,29.4135462 C0.657950396,29.5871604 0.77954816,29.730836 0.943350428,29.8038242 L5.93218467,31.9345149 L5.93218467,38.4756451 C5.93954094,38.6998021 6.06501075,38.9033152 6.26197835,39.0105731 L24.8788676,49.5680716 C24.9730846,49.6205911 25.0791641,49.648152 25.1870304,49.6481365 C25.2941466,49.6481283 25.3994584,49.6205559 25.4928354,49.5680716 L44.0820453,39.0105731 C44.2702084,38.8992133 44.3827468,38.6941765 44.3756509,38.4756451 L44.3756509,31.9345149 L49.4016984,29.8038242 C49.572698,29.7327635 49.7037239,29.5900001 49.759889,29.4135462 C49.8138688,29.238748 49.7869897,29.0489777 49.6865901,28.8960459 L44.7682868,21.5313029 Z M43.7298007,20.4356128 L31.8482067,14.4353566 C32.2835976,13.8891247 32.6524137,13.2930034 32.9468697,12.659576 L46.8062006,20.0010479 L43.7298007,20.4356128 Z M25.1912336,28.622841 L7.97573682,21.1458431 L19.0108569,15.5728732 C20.0035505,16.6482417 20.458699,18.1137474 20.2498642,19.5622798 L20.1623156,20.2341691 C20.1180928,20.4368788 20.1608949,20.6488437 20.2803114,20.8185098 C20.3643796,20.9260598 20.4706863,21.0141825 20.5919598,21.0768499 L20.5919598,24.3596143 C20.6002485,25.6330432 21.6311799,26.6629692 22.9046162,26.6700154 L26.891665,26.6700154 C28.1647898,26.6629098 29.1953435,25.6330417 29.2032962,24.3599219 L29.2032962,21.0450699 C29.2812672,21.0111899 29.3489161,20.9573325 29.3994092,20.8889382 C29.5494816,20.7304966 29.6297609,20.5184987 29.6222788,20.3003944 C29.6222788,20.2946535 29.6199209,20.2888101 29.6196133,20.2830692 L29.5573862,19.1197186 C29.5573862,19.118591 29.5566686,19.1175658 29.5566686,19.1165406 C29.4737332,17.6779349 29.994309,16.3147808 30.9844077,15.3770678 L42.4073454,21.1458431 L25.1912336,28.622841 Z M24.897628,14.1483121 C24.4446842,14.1483121 24.0775007,13.7811286 24.0775007,13.3281848 C24.0775007,12.875241 24.4446842,12.5080575 24.897628,12.5080575 C25.3505718,12.5080575 25.7177553,12.875241 25.7177553,13.3281848 C25.7172468,13.7809178 25.350361,14.1478036 24.897628,14.1483121 L24.897628,14.1483121 Z M27.9731053,21.1341563 L27.9731053,24.3599219 C27.9658977,24.9539223 27.485675,25.4334621 26.891665,25.4398245 L22.9046162,25.4398245 C22.3104107,25.4335273 21.8298564,24.9541108 21.8221507,24.3599219 L21.8221507,21.1341563 L27.9731053,21.1341563 Z M17.2499411,8.58200573 C17.390798,4.72228172 20.5407018,1.49918151 24.4158032,1.2446345 C27.5579438,1.0515151 30.4988574,2.79860248 31.8321279,5.65039709 C33.1653983,8.5021917 32.6200823,11.8791604 30.4569633,14.1663549 C30.3558826,14.273074 30.2503937,14.3783578 30.1419319,14.4803611 C28.8857019,15.6687255 28.2248844,17.3779733 28.3280154,19.179793 L28.3663563,19.9039653 L25.5127235,19.9039653 L25.5127235,15.2839833 C26.4783134,14.9803194 27.07781,14.0174424 26.9241989,13.0169529 C26.7705877,12.0164634 25.9098413,11.2777862 24.897628,11.2777862 C23.8854148,11.2777862 23.0246683,12.0164634 22.8710572,13.0169529 C22.717446,14.0174424 23.3169427,14.9803194 24.2825326,15.2839833 L24.2825326,19.9039653 L21.4444821,19.9039653 L21.4688809,19.7219996 C21.7459491,17.7841171 21.072205,15.8314652 19.659065,14.4767731 C18.0401182,12.9535876 17.1612614,10.8031933 17.2499411,8.58210824 L17.2499411,8.58200573 Z M16.772012,12.4827361 C17.1172107,13.2635039 17.5721193,13.9909848 18.1229666,14.6431564 L6.43512772,20.5456124 L2.57868422,20.0010479 L16.772012,12.4827361 Z M6.79721392,21.9757094 L24.1634091,29.5179074 L19.5816655,36.3904715 L2.12648654,28.9625787 L6.79721392,21.9757094 Z M7.16237559,32.4579612 L19.5509107,37.7219481 C19.630206,37.7543944 19.7150653,37.7710738 19.800742,37.7710532 C20.0096723,37.7713444 20.2054028,37.6689376 20.3242908,37.4971307 L24.5900803,31.1156178 L24.5900803,47.9768196 L7.16237559,38.1174545 L7.16237559,32.4579612 Z M43.14546,38.1174545 L25.8202712,47.9768196 L25.8202712,31.1156178 L30.0677104,37.4971307 C30.1803543,37.6681371 30.3714167,37.7710642 30.5761893,37.7710532 C30.6521672,37.7709887 30.7272022,37.7542248 30.7959834,37.7219481 L43.14546,32.4579612 L43.14546,38.1174545 Z M30.8013142,36.3900614 L26.2200833,29.5174973 L43.5862784,21.9752993 L48.2570058,28.9625787 L30.8013142,36.3900614 Z" id="Shape"></path>
                </g>
            </g>
        </g>
    </g>
</svg>