<?xml version="1.0" encoding="UTF-8"?>
<svg width="111px" height="112px" viewBox="0 0 111 112" version="1.1" xmlns="http://www.w3.org/2000/svg" xmlns:xlink="http://www.w3.org/1999/xlink">
    <!-- Generator: Sketch 54.1 (76490) - https://sketchapp.com -->
    <title>Group 5</title>
    <desc>Created with Sketch.</desc>
    <g id="Mockups" stroke="none" stroke-width="1" fill="none" fill-rule="evenodd">
        <g id="HOME" transform="translate(-661.000000, -983.000000)">
            <g id="Group-5" transform="translate(661.500000, 984.000000)">
                <circle id="Oval" stroke="#E5E5E5" cx="55" cy="55" r="55"></circle>
                <circle id="Oval" fill="#78828C" opacity="0.4" cx="55" cy="55" r="39.2857143"></circle>
                <g id="003-ecology" transform="translate(33.000000, 31.959459)" fill="#303644" fill-rule="nonzero">
                    <path d="M23.8424734,7.55525533 C23.4139087,6.37116505 21.7326974,6.3708135 21.303781,7.55525533 C20.0778538,10.9419364 13.2517562,16.9769998 13.2517562,23.5468024 C13.2517562,35.6731807 31.8941467,35.6665008 31.8941467,23.5468024 C31.8941467,16.9762967 25.0687522,10.9426395 23.8424734,7.55525533 Z M22.5188096,29.9376554 C18.8782944,29.9373039 15.9518195,27.6056867 15.9518195,23.5468024 C15.9518195,19.0723615 20.2437952,14.4762771 22.5729515,10.8828725 C24.9024592,14.4759256 29.1940834,19.0720099 29.1940834,23.5468024 C29.1940834,27.261499 26.6694538,29.9376554 22.5188096,29.9376554 Z" id="Shape"></path>
                    <path d="M4.36826652,16.7432053 L9.44494812,14.3152578 C10.1178546,13.9935705 10.4022753,13.1870672 10.0809396,12.5141608 C9.75925242,11.8409028 8.95345226,11.5561305 8.28089735,11.8778177 L6.22666954,12.8601064 C10.9704136,3.2699595 22.8433094,-0.100900827 31.8811385,5.21625517 C32.5238099,5.59454529 33.3510559,5.37973563 33.7289944,4.73671267 C34.106933,4.09368979 33.8921232,3.26574066 33.2498035,2.88745053 C22.7192049,-3.30792915 8.91056059,0.795253077 3.6211787,12.0476264 L2.56822429,9.8436294 C2.24688867,9.17037139 1.44073688,8.88559904 0.768182062,9.2072863 C0.0956272435,9.52897355 -0.189145017,10.3354769 0.132190601,11.0083833 L2.56787274,16.1068623 C2.88956,16.7801202 3.6957117,17.0645409 4.36826652,16.7432053 Z" id="Path"></path>
                    <path d="M28.0532362,38.9568514 L23.4132055,35.771972 C22.7986599,35.3500871 21.9580542,35.5065361 21.5361693,36.1214334 C21.1142844,36.7366821 21.271085,37.5776394 21.8856307,37.9995243 L23.7911441,39.3077191 C13.5716856,39.9844928 4.20337986,31.7500027 4.31869507,20.8790836 C4.32642958,20.1330504 3.72840776,19.5220205 2.98307777,19.5139343 C2.25497482,19.5009262 1.62671787,20.0926198 1.61863172,20.8502547 C1.48468329,33.4913326 12.4800584,42.9795239 24.3466259,41.9750863 L22.9811251,43.9660315 C22.5592402,44.5812803 22.7156892,45.4222375 23.3305864,45.8441224 C23.9454837,46.2660073 24.7860893,46.1095583 25.2076226,45.4943095 L28.4026976,40.8349424 C28.8242309,40.2200451 28.6681335,39.3790879 28.0532362,38.9568514 L28.0532362,38.9568514 Z" id="Path"></path>
                    <path d="M43.7614172,7.97608558 C43.8190749,7.23251343 43.2635931,6.58245914 42.5203725,6.52480153 L36.8892639,6.08604124 C36.147098,6.03014147 35.4963405,6.58386542 35.4386829,7.32778912 L35.0016806,12.9406161 C34.9408588,13.7232125 35.558217,14.3964705 36.3492512,14.3964705 C37.0471191,14.396119 37.6384611,13.8582157 37.6936578,13.1505038 L37.8694431,10.8902555 C43.7480576,19.7452679 40.8240437,31.6923451 31.681798,36.9177411 C31.0345562,37.2875935 30.8095509,38.1127301 31.1794034,38.7603234 C31.5492557,39.4082683 32.3736892,39.6332736 33.0212825,39.2634211 C43.7192288,33.1492542 46.9062176,19.1539259 39.8688259,9.02763371 L42.3104848,9.21783346 C43.0530023,9.27513952 43.7034081,8.72000928 43.7614172,7.97608558 L43.7614172,7.97608558 Z" id="Path"></path>
                </g>
            </g>
        </g>
    </g>
</svg>