<?xml version="1.0" encoding="UTF-8"?>
<svg width="111px" height="112px" viewBox="0 0 111 112" version="1.1" xmlns="http://www.w3.org/2000/svg" xmlns:xlink="http://www.w3.org/1999/xlink">
    <!-- Generator: Sketch 54.1 (76490) - https://sketchapp.com -->
    <title>Group 6</title>
    <desc>Created with Sketch.</desc>
    <g id="Mockups" stroke="none" stroke-width="1" fill="none" fill-rule="evenodd">
        <g id="HOME" transform="translate(-1062.000000, -983.000000)">
            <g id="Group-6" transform="translate(1062.500000, 984.000000)">
                <circle id="Oval" stroke="#E5E5E5" cx="55" cy="55" r="55"></circle>
                <circle id="Oval" fill="#449DD1" opacity="0.4" cx="55" cy="55" r="39.2857143"></circle>
                <g id="001-investor" transform="translate(31.428571, 33.385193)" fill="#449DD1" fill-rule="nonzero" stroke="#449DD1" stroke-width="0.05">
                    <path d="M22.814385,18.213075 C23.0750447,18.4847699 23.5069408,18.4939025 23.7790162,18.2328623 L28.8708232,13.348061 L34.149468,17.5060592 C34.3956678,17.7001271 34.7423261,17.7012687 34.990048,17.5087229 L42.4380666,11.7209354 L42.171699,15.1856169 C42.1427791,15.5611953 42.4236067,15.8892079 42.799185,15.9181278 C42.8170697,15.9192694 42.8345739,15.9200304 42.852078,15.9200304 C43.2082495,15.9196499 43.5042981,15.6452913 43.5313154,15.2902614 L43.9164068,10.283692 C43.9304863,10.1029426 43.8718854,9.92371525 43.7531615,9.78634569 C43.6348183,9.64897604 43.4662456,9.56411901 43.2854961,9.55118111 L37.8934549,9.16608966 C37.5193987,9.14173605 37.1955717,9.42370516 37.1685544,9.7977614 C37.1419177,10.1721981 37.4223647,10.4975472 37.7960405,10.5264671 L41.4194008,10.7852242 L34.5745146,16.1045851 L29.2486846,11.9096759 C28.9815559,11.6992455 28.6002698,11.7178912 28.3548311,11.9534363 L22.8345528,17.2488242 C22.5628579,17.509484 22.5537253,17.9409995 22.814385,18.213075 L22.814385,18.213075 Z" id="Path"></path>
                    <path d="M43.365787,20.1377711 L37.2069875,20.1377711 C37.031946,20.1320632 36.8622317,20.1990356 36.7378,20.3227064 C36.6133682,20.446377 36.5452543,20.6157107 36.5498206,20.7911328 L36.5498206,40.7896317 L32.848072,40.7896317 L32.848072,24.5674643 C32.848072,24.1911249 32.5466961,23.8395197 32.1699761,23.8395197 L26.0115572,23.8395197 C25.6352179,23.8395197 25.3471604,24.1911249 25.3471604,24.5674643 L25.3471604,40.7896317 L21.6454118,40.7896317 L21.6454118,31.60033 C21.6465534,31.4237664 21.5757756,31.2548132 21.4490608,31.1319036 C21.3223459,31.0093745 21.1507291,30.9439242 20.9745459,30.9507736 L14.816127,30.9507736 C14.6399438,30.9439242 14.4683271,31.0093745 14.3416121,31.1319036 C14.2145168,31.2544327 14.1433585,31.4237664 14.1445001,31.60033 L14.1445001,40.7896317 L2.09935719,40.7896317 C1.72263735,40.7896317 1.41745614,41.0948129 1.41745614,41.4715328 C1.41745614,41.8482527 1.72263735,42.1534338 2.09935719,42.1534338 L45.5370634,42.1534338 C45.9137833,42.1534338 46.2189645,41.8482527 46.2189645,41.4715328 C46.2189645,41.0948129 45.9137833,40.7896317 45.5370634,40.7896317 L44.0507322,40.7896317 L44.0507322,20.7911328 C44.0488296,20.613047 43.9750077,20.4429523 43.8460097,20.3200427 C43.7170117,20.1967525 43.5438727,20.1313022 43.365787,20.1377711 Z M26.7109625,25.2033218 L31.4842699,25.2033218 L31.4842699,40.7896317 L26.7109625,40.7896317 L26.7109625,25.2033218 Z M15.5083023,40.7896317 L15.5083023,32.3145757 L20.2816097,32.3145757 L20.2816097,40.7896317 L15.5083023,40.7896317 Z M37.9136227,40.7896317 L37.9136227,21.5015732 L42.6869301,21.5015732 L42.6869301,40.7896317 L37.9136227,40.7896317 Z" id="Shape"></path>
                    <path d="M7.22807513,11.5082219 C8.11355707,11.5055582 8.96136718,11.1493867 9.58314522,10.5188566 C10.2049233,9.88870693 10.5496791,9.03595001 10.540166,8.15084858 L10.540166,7.08043137 C10.540166,5.25124698 9.05725942,3.76834052 7.22807513,3.76834052 C5.39889074,3.76834052 3.91598428,5.25124698 3.91598428,7.08043137 L3.91598428,8.15084858 C3.90685167,9.03595001 4.25122691,9.88870693 4.87300504,10.5188566 C5.49478307,11.1493867 6.3425931,11.5055582 7.22807513,11.5082219 Z M5.27978639,7.08043137 C5.27522009,6.55416507 5.48070367,6.04768608 5.85095461,5.67362994 C6.22082505,5.2991932 6.72502084,5.08800172 7.25128714,5.08647962 L7.21703992,5.08647962 C7.74216452,5.08838222 8.24445771,5.3003347 8.61242555,5.67477144 C8.98039339,6.04920818 9.18359387,6.55530667 9.17636386,7.08043137 L9.17636386,8.15084858 C9.17636386,9.25018569 8.32741224,10.1444198 7.22807513,10.1444198 C6.12873792,10.1444198 5.27978639,9.25018569 5.27978639,8.15084858 L5.27978639,7.08043137 Z" id="Shape"></path>
                    <path d="M0.0194068067,23.2835725 C0.0163626055,23.8494134 0.242394492,24.3920422 0.646512243,24.788169 C1.0502494,25.1873398 1.5982056,25.4072833 2.16632962,25.3981507 L2.16709072,25.3981507 L2.19106383,25.4194601 C2.50157234,25.4194601 2.80827556,25.3502046 3.08872257,25.2170207 L3.4490799,37.3416934 C3.48066351,38.2462016 4.04384073,39.046446 4.88442074,39.3816887 C5.72538136,39.7165508 6.68430472,39.523244 7.32929477,38.8881476 C7.97390441,39.5247661 8.93396937,39.7192145 9.77531039,39.3839719 C10.6166515,39.0491097 11.1798287,38.2477237 11.2102707,37.3424545 L11.569867,25.2409938 C11.8529777,25.3734166 12.1619641,25.4419111 12.4743753,25.4415306 C13.66618,25.4400085 14.6311917,24.4738551 14.6315723,23.2824309 L14.6315723,15.0908661 C14.8123218,13.1947094 13.4298739,11.5074608 11.5348587,11.3122515 C11.419179,11.3004552 11.3042605,11.2734379 11.1885808,11.2734379 L9.77949619,11.2734379 C9.60369363,11.281429 9.43740406,11.3548703 9.31297232,11.4796825 L7.33081687,13.3503441 L5.42743015,11.4823462 C5.3014763,11.3541093 5.13138154,11.2791458 4.95177367,11.2730574 L3.45669041,11.2730574 C1.54036578,11.2913226 -0.00266368088,12.8510952 2.8639158e-16,14.7670393 C2.8639158e-16,14.8709226 0.0194068067,14.9869828 0.0194068067,15.0908661 L0.0194068067,23.2835725 Z M8.92750037,38.1830345 C8.42026038,38.1822734 8.00891272,37.7720674 8.00739062,37.2648273 L8.00739062,25.1766851 C8.00739062,24.7999652 7.70220941,24.494784 7.32548957,24.494784 C6.94915022,24.494784 6.64358851,24.7999652 6.64358851,25.1766851 L6.64358851,37.2644468 C6.64434951,37.76674 6.24137336,38.1758045 5.73946077,38.182654 C5.23754808,38.1895034 4.82353672,37.7910936 4.81097942,37.2891809 L4.39544596,23.2550331 L10.2635242,23.2550331 L9.84608812,37.2849952 C9.83048651,37.7823415 9.42522726,38.1784682 8.92750037,38.1830345 Z M1.97302285,13.272717 C2.36344169,12.8720241 2.89693789,12.6433284 3.4563099,12.6368595 L4.67475137,12.6368595 L6.84716939,14.771225 C6.85173579,14.7754108 6.85630199,14.7898708 6.86086839,14.793676 C6.87000099,14.8024281 6.8795141,14.816127 6.8890272,14.824118 C6.89701821,14.8309675 6.90538981,14.8397196 6.91338081,14.8461885 C6.92327442,14.8534184 6.93354862,14.8621705 6.94382282,14.86902 C6.95257492,14.8747278 6.96132703,14.8811968 6.97007903,14.8865241 C6.97883114,14.8918515 6.99062744,14.8990814 7.00128214,14.9047893 C7.01193685,14.9101167 7.01992785,14.9143024 7.02982146,14.9192493 C7.03933466,14.9238156 7.05036986,14.9287624 7.06102457,14.9333287 C7.07167927,14.9375145 7.08119237,14.9413197 7.09146658,14.9447444 C7.10174078,14.9485497 7.11239549,14.952355 7.12266969,14.9553992 C7.13332429,14.9588239 7.1439791,14.9618681 7.1546337,14.9645318 C7.16566901,14.9671955 7.17556261,14.9694787 7.18621731,14.9717618 C7.19687202,14.9736645 7.20790732,14.9755671 7.21894253,14.9774697 C7.22997773,14.9789918 7.24025193,14.9805139 7.25128714,14.9816555 C7.26194184,14.9827971 7.27297705,14.9835581 7.28363175,14.9843191 C7.29466696,14.9846997 7.30570226,14.9850802 7.31673746,14.9854607 C7.32777267,14.9854607 7.33804687,14.9854607 7.34870157,14.9846997 C7.35935628,14.9843191 7.37115258,14.9835581 7.38256829,14.9827971 C7.39360359,14.9816555 7.40311669,14.9805139 7.4133908,14.9793723 C7.4240456,14.9778502 7.43622241,14.9759476 7.44763811,14.974045 C7.45905382,14.9717618 7.46780592,14.9698592 7.47808012,14.9675761 C7.48797383,14.9649124 7.50053113,14.9618681 7.51156634,14.9588239 C7.52298204,14.9553992 7.53097314,14.9527355 7.54086675,14.9489302 C7.55076045,14.9455055 7.56255666,14.9413197 7.57359196,14.937134 C7.58424666,14.9325676 7.59299867,14.9291429 7.60289237,14.9245766 C7.61240548,14.9200103 7.62344068,14.914683 7.63333438,14.9097362 C7.64360859,14.9047893 7.65274119,14.8990814 7.66263479,14.8937541 C7.6725285,14.8880462 7.6820416,14.8823384 7.6919353,14.87625 C7.70144841,14.869781 7.71058101,14.8633121 7.72009412,14.8564626 C7.72960722,14.8499937 7.73835932,14.8431443 7.74711142,14.8359143 C7.75624403,14.8286843 7.76499613,14.8214544 7.77374814,14.8134633 C7.77869494,14.8092776 7.78364184,14.7837824 7.78858864,14.7792161 L10.0492885,12.6360985 L11.1885808,12.6360985 C11.2585975,12.6360985 11.3297557,12.6612131 11.3997723,12.6684431 C12.5531439,12.7921137 13.3902993,13.8240979 13.273478,14.9782307 C13.2711949,15.0010623 13.2677702,15.034929 13.2677702,15.0577605 L13.2677702,23.2816699 C13.2677702,23.7120438 12.9188287,24.0609854 12.4884547,24.0609854 C12.0580808,24.0609854 11.7091392,23.7120438 11.7091392,23.2816699 L11.7091392,21.4916796 L11.7175107,21.210091 C11.7186523,21.1670916 11.7091392,21.1248534 11.7091392,21.0833762 L11.7091392,17.7777542 C11.7091392,17.4010343 11.403958,17.0958532 11.0272382,17.0958532 C10.6505182,17.0958532 10.3453371,17.4010343 10.3453371,17.7777542 L10.3453371,21.4696091 L10.3042404,21.891231 L4.35472974,21.891231 L4.32352663,21.1560564 C4.32238513,21.1271365 4.30564203,21.111535 4.30564203,21.0833762 L4.30564203,17.7777542 C4.30564203,17.4010343 4.00046081,17.0958532 3.62374097,17.0958532 C3.24740162,17.0958532 2.94183991,17.4010343 2.94183991,17.7777542 L2.94183991,23.2417148 C2.95021141,23.4494815 2.87296488,23.6515403 2.72874583,23.8010867 C2.58414628,23.9510136 2.3851316,24.0351097 2.17736482,24.0343486 L2.16632962,24.0343486 C1.96008504,24.0427202 1.75916776,23.9666151 1.61038241,23.8231572 C1.46311915,23.6827433 1.38092572,23.4871535 1.38320892,23.2835725 L1.38320892,15.0585215 C1.38320892,15.03569 1.37673992,15.012478 1.37445682,14.9904075 C1.36722682,14.9200103 1.36075791,14.8378169 1.36075791,14.7678003 C1.35809421,14.2076673 1.5784183,13.6699853 1.97302285,13.272717 Z" id="Shape"></path>
                    <path d="M20.157939,10.0173244 C19.5783992,10.0165634 19.1084506,9.54699531 19.1076896,8.96745558 C19.1076896,8.59073564 18.8025084,8.28555453 18.4257886,8.28555453 C18.0494491,8.28555453 17.7438875,8.59073564 17.7438875,8.96745558 C17.7454095,10.0473859 18.4634605,10.9952741 19.5022942,11.2898005 L19.5022942,11.7601295 C19.5022942,12.1368495 19.8078559,12.4420306 20.1841952,12.4420306 C20.5609151,12.4420306 20.8660963,12.1368495 20.8660963,11.7601295 L20.8660963,11.2749601 C22.0080522,10.9241158 22.7219174,9.7909119 22.5445927,8.60938135 C22.3672679,7.4278508 21.3524074,6.55378457 20.157939,6.55378457 C19.5780186,6.55378457 19.1076896,6.083836 19.1076896,5.50391568 C19.1076896,4.92399536 19.5776381,4.45404678 20.1575584,4.45404678 C20.7374787,4.45404678 21.2078078,4.92399536 21.2074273,5.50391568 C21.2074273,5.88063562 21.512989,6.18581674 21.8893284,6.18581674 C22.2660482,6.18581674 22.5712294,5.88063562 22.5712294,5.50391568 C22.5700878,4.40648116 21.8299664,3.4479383 20.7686818,3.1686329 L20.7686818,2.79800136 C20.7686818,2.42128151 20.4635006,2.1161003 20.0867808,2.1161003 C19.7104414,2.1161003 19.4048797,2.42128151 19.4048797,2.79800136 L19.4048797,3.21125171 C18.2785253,3.58074155 17.5874916,4.71432598 17.77471,5.88520182 C17.9619284,7.05607776 18.9718421,7.91758669 20.157939,7.91758669 C20.7336735,7.92291399 21.1975336,8.39134047 21.1975336,8.96745558 C21.1975336,9.5431901 20.7336735,10.0116166 20.157939,10.0173244 Z" id="Path"></path>
                    <path d="M20.157939,14.5303526 C24.1641077,14.5303526 27.4118898,11.2825705 27.4118898,7.27640175 C27.4118898,3.27023304 24.1641077,0.0224510078 20.157939,0.0224510078 C16.1513897,0.0224510078 12.9036077,3.27023304 12.9039882,7.27640175 C12.9085545,11.2806679 16.1532923,14.5257863 20.157939,14.5303526 L20.157939,14.5303526 Z M20.157939,1.38625312 C23.4110484,1.38625312 26.0480876,4.02329232 26.0480876,7.27640175 C26.0480876,10.5295113 23.4110484,13.1665505 20.157939,13.1665505 C16.9048295,13.166931 14.2677903,10.5295113 14.2677903,7.27640175 C14.271215,4.02481442 16.9063516,1.39005833 20.157939,1.38625312 L20.157939,1.38625312 Z" id="Shape"></path>
                </g>
            </g>
        </g>
    </g>
</svg>