<svg xmlns="http://www.w3.org/2000/svg" preserveAspectRatio="none" width="100%" height="100%" viewBox="0 0 1440 607">
    <g fill="#449DD1" fill-rule="evenodd">
        <path d="M.5 0h1440v422H.5z"/>
        <path fill-rule="nonzero" d="M0 574.298c27.49-3.68 55.39-6.29 83.5-7.8 89.28-4.74 182.64 2.08 261 14.06 8.94 1.373 17.673 2.803 26.2 4.29l3.404.6c55.778 9.899 120.103 24.387 193.946 20.81 6.94-.34 13.68-.82 20.22-1.44 34.72-3.26 64.42-10.08 93.48-17l14.66-3.5c19-4.52 38.13-8.85 58.5-12a951.51 951.51 0 0 1 113-10.59c9.52-.32 19.087-.487 28.7-.5a778.72 778.72 0 0 1 85.51 4.42c40.11 4.42 74.3 10.42 112 16 100.723 14.85 178.03 4.57 253.018-14.102l2.272-.568c38.74-9.84 80.34-14.13 122.59-14.94V269H0v305.298z"/>
    </g>
</svg>
