<svg id="Layer_1" data-name="Layer 1" xmlns="http://www.w3.org/2000/svg" viewBox="0 0 640 43.32"><defs><style>.cls-1{fill:#449dd1;}</style></defs><title>blue-waves-bg1-btm</title><path class="cls-1" d="M0,17.6a272.83,272.83,0,0,1,37.11-6.17c39.68-3.74,81.17,1.65,116,11.12q6,1.64,11.65,3.4l1.51.47c24.79,7.83,53.38,19.28,86.2,16.46,3.08-.27,6.08-.65,9-1.14,15.43-2.58,28.63-8,41.55-13.45l6.52-2.76a206.74,206.74,0,0,1,26-9.49,244.56,244.56,0,0,1,50.22-8.38q6.35-.37,12.75-.39a196.53,196.53,0,0,1,38,3.49c17.82,3.5,33,8.24,49.78,12.65C531,35.16,565.4,27,598.73,12.26l1-.45C617,4,621.22.64,640,0h0L0,.13Z"/></svg>