<svg xmlns="http://www.w3.org/2000/svg" preserveAspectRatio="none" width="100%" height="100%" viewBox="0 0 375 619">
    <path fill="#449DD1" fill-rule="evenodd" d="M375 0v265.999l.5.001v329.917c-17.221.33-34.178 2.079-49.969 6.09-30.856 7.757-62.588 12.094-104.058 5.98-15.367-2.275-29.303-4.72-45.652-6.522a317.413 317.413 0 0 0-34.855-1.802 363.2 363.2 0 0 0-11.698.204 387.844 387.844 0 0 0-46.06 4.316c-8.303 1.284-16.1 3.05-23.845 4.892l-5.976 1.426c-11.845 2.821-23.95 5.6-38.103 6.93-2.666.252-5.413.448-8.242.587-30.713 1.487-57.387-4.692-80.441-8.727a536.053 536.053 0 0 0-10.68-1.749c-31.94-4.883-69.994-7.663-106.386-5.73a430.944 430.944 0 0 0-34.035 3.178V266L0 265.999V0h375z"/>
</svg>
