<?xml version="1.0" encoding="UTF-8"?>
<svg width="38px" height="38px" viewBox="0 0 38 38" version="1.1" xmlns="http://www.w3.org/2000/svg" xmlns:xlink="http://www.w3.org/1999/xlink">
    <!-- Generator: Sketch 54.1 (76490) - https://sketchapp.com -->
    <title>Shape</title>
    <desc>Created with Sketch.</desc>
    <g id="Mockups" stroke="none" stroke-width="1" fill="none" fill-rule="evenodd">
        <g id="HOME" transform="translate(-690.000000, -2317.000000)" fill="#FFFFFF" fill-rule="nonzero">
            <g id="team" transform="translate(690.000000, 2317.000000)">
                <path d="M38,15.9354839 L36.6227634,15.9354839 L34.5700763,17.0155462 C34.3390405,16.8880576 34.0987273,16.7800215 33.8395602,16.71508 L31.257466,16.068958 L31.257466,15.7753749 C32.3997764,14.9781218 33.0967742,13.6610383 33.0967742,12.2580645 L33.0967742,11.1866809 C33.0967742,8.80569556 31.2311303,6.81316158 28.93813,6.74373114 C28.8217144,6.74073841 28.7070943,6.74492814 28.5918756,6.75061427 L29.2613407,5.18334173 L26.0157668,1.93866561 L24.102539,3.18392454 C23.3756143,2.77452434 22.6067918,2.45580271 21.8083417,2.23224863 L21.3357957,3.55271368e-15 L16.6648028,3.55271368e-15 L16.1922568,2.23284713 C15.3938067,2.45640121 14.6243857,2.77512284 13.8980595,3.18452304 L11.9848318,1.93926411 L8.74195125,5.18214466 L9.40004406,6.75061427 C9.37490553,6.74941719 9.350964,6.74492814 9.32582531,6.74432964 C8.15209173,6.71021299 7.04659144,7.13846709 6.20684224,7.95367627 C5.36589588,8.76828694 4.90322581,9.86151714 4.90322581,11.0322581 L4.90322581,12.2580645 C4.90322581,13.6610383 5.59962515,14.9775233 6.74193548,15.7747764 L6.74193548,16.068958 L5.05764869,16.4900296 L2.00480408,14.7096774 L0,14.7096774 L0,27.4097625 L6.0296749,29.4193548 L7.20400706,29.4193548 L7.3506489,28.905809 L9.19893519,30.0151997 C9.22916144,31.0201455 10.0350932,31.8287708 11.0391413,31.8640845 C11.074455,32.8639428 11.8779927,33.6674805 12.877851,33.7027942 C12.9131647,34.7026525 13.7167023,35.5061902 14.7165606,35.5415039 C14.7530714,36.5647051 15.5910251,37.3870968 16.6226058,37.3870968 C17.0056704,37.3870968 17.3812532,37.2676884 17.6969821,37.054908 L18.2398564,37.5343372 C18.5801254,37.8339056 19.0182554,38 19.4731445,38 L19.5865675,38 C20.6064768,38 21.4363502,37.1755135 21.4492187,36.1588962 C22.4580551,36.1460276 23.2750598,35.3290228 23.2879284,34.3201865 C24.2973633,34.3073179 25.1149666,33.4891161 25.1266381,32.4796812 C26.1453503,32.4557396 26.9677419,31.6234721 26.9677419,30.5990739 C26.9677419,30.5374244 26.9647493,30.4766727 26.9584646,30.4153226 L38,24.8950037 L38,15.9354839 Z M31.8709677,11.1866809 L31.8709677,12.2580645 C31.8709677,13.3459079 31.2832031,14.362226 30.336914,14.9101878 L30.0304624,15.0873551 L30.0328566,17.0269185 L33.0949785,17.7918504 L26.3548387,21.339387 L26.3548387,19.6883191 C26.3548387,18.8644311 26.0220514,18.1099735 25.4770823,17.5524351 L27.5806452,17.0269185 L27.5806452,15.0858587 L27.274792,14.9089906 C26.3291015,14.362226 25.7419355,13.3459079 25.7419355,12.2580645 L25.7419355,11.0322581 C25.7419355,10.1963993 26.0723286,9.41470831 26.6729618,8.83262975 C27.2729965,8.25085052 28.0690524,7.93721644 28.9013199,7.96953759 C30.5386215,8.01861765 31.8709677,9.4619928 31.8709677,11.1866809 Z M19.9241431,20.8575637 L17.1496188,19.9708291 C15.8852067,19.5656187 14.5166488,19.5051663 13.2223098,19.7918662 L12.8709677,19.8696761 L12.8709677,19.6883191 C12.8709677,18.843183 13.4440682,18.109375 14.2634671,17.9040763 L17.7741935,17.0269185 L17.7741935,15.0858587 L17.4683404,14.9089906 C16.5226499,14.362226 15.9354839,13.3459079 15.9354839,12.2580645 L15.9354839,11.0322581 C15.9354839,10.1963993 16.265877,9.41470831 16.8665102,8.83262975 C17.4665449,8.25085052 18.2676884,7.93721644 19.0948683,7.96953759 C20.7321699,8.01861765 22.0645161,9.4619928 22.0645161,11.1866809 L22.0645161,12.2580645 C22.0645161,13.3459079 21.4767515,14.362226 20.5304624,14.9101878 L20.2240108,15.0873551 L20.226405,17.0269185 L23.7365329,17.9040763 C24.5559318,18.109375 25.1290323,18.843183 25.1290323,19.6883191 L25.1290323,21.9849106 L24.9776021,22.0645161 L24.6020193,22.0645161 L20.8339214,20.9877457 C20.5370464,20.9036511 20.2311933,20.8692352 19.9241431,20.8575637 L19.9241431,20.8575637 Z M13.0083323,9.17319808 C14.1593214,6.94304435 16.475964,5.51612903 19,5.51612903 C21.5000945,5.51612903 23.8068612,6.92389113 24.9665291,9.12381869 C24.6747416,9.70888983 24.516129,10.3568076 24.516129,11.0322581 L24.516129,12.2580645 C24.516129,13.6610383 25.2125284,14.9775233 26.3548387,15.7747764 L26.3548387,16.068958 L23.9032258,16.6827589 L21.4510144,16.068958 L21.4510144,15.7753749 C22.5933247,14.9781218 23.2903226,13.6610383 23.2903226,12.2580645 L23.2903226,11.1866809 C23.2903226,8.80569556 21.4246787,6.81316158 19.1316784,6.74373114 C17.9585433,6.70931517 16.8524446,7.13786859 16.0126953,7.95307777 C15.1723475,8.76828694 14.7096774,9.86151714 14.7096774,11.0322581 L14.7096774,12.2580645 C14.7096774,13.6610383 15.4060768,14.9775233 16.5483871,15.7747764 L16.5483871,16.068958 L14.0967742,16.6827589 L11.6445628,16.068958 L11.6445628,15.7753749 C12.7868731,14.9781218 13.483871,13.6610383 13.483871,12.2580645 L13.483871,11.1866809 C13.483871,10.4654423 13.3102949,9.78071443 13.0083323,9.17319808 L13.0083323,9.17319808 Z M10.1895161,5.46645031 L12.1476342,3.5083323 L13.8711253,4.62999309 L14.2009199,4.42768714 C15.027202,3.92132373 15.9202211,3.55052923 16.8548387,3.32697516 L17.2319178,3.23659591 L17.6583764,1.22580645 L20.3422221,1.22580645 L20.7674836,3.23599733 L21.1445628,3.32607733 C22.0791803,3.54993073 22.9721995,3.92072516 23.7984816,4.42708856 L24.1282762,4.62939451 L25.8517673,3.50773373 L27.8074912,5.46405616 L27.112289,7.0917811 C26.6391444,7.29528413 26.2004158,7.58168477 25.8185484,7.95188069 C25.7934098,7.97642072 25.7718624,8.00275641 25.7473223,8.02789502 C24.3033486,5.73250065 21.7505828,4.29032258 19,4.29032258 C16.2296655,4.29032258 13.6697171,5.74596774 12.2293347,8.06470514 C11.843876,7.66129032 11.3853957,7.33448841 10.8772366,7.10614602 L10.1895161,5.46645031 Z M7.96774194,17.0269185 L7.96774194,15.0858587 L7.66188882,14.9089906 C6.7161983,14.362226 6.12903226,13.3459079 6.12903226,12.2580645 L6.12903226,11.0322581 C6.12903226,10.1963993 6.4594254,9.41470831 7.06005861,8.83262975 C7.66009325,8.25085052 8.45794485,7.93721644 9.28841669,7.96953759 C10.9257182,8.01861765 12.2580645,9.4619928 12.2580645,11.1866809 L12.2580645,12.2580645 C12.2580645,13.3459079 11.6702999,14.362226 10.7240108,14.9101878 L10.4175592,15.0873551 L10.4199533,17.0269185 L12.5229177,17.5524351 C11.9779486,18.1099735 11.6451613,18.8644311 11.6451613,19.6883191 L11.6451613,20.1423103 L9.73342994,20.5672725 L9.78310858,20.3936964 L9.80645161,19.2609627 L6.57404551,17.3752678 L7.96774194,17.0269185 Z M1.22580645,15.9354839 L1.67261528,15.9354839 L6.08055069,18.5065052 L3.85638235,27.4028793 L1.22580645,26.5257214 L1.22580645,15.9354839 Z M6.22838962,28.1935484 L5.02203564,27.7916299 L7.18275893,19.1496346 L8.58064516,19.9648438 L8.58064516,20.1399162 L6.27986391,28.1935484 L6.22838962,28.1935484 Z M10.4193548,29.9580393 C10.4193548,29.7772807 10.4923765,29.6001134 10.6204637,29.4720262 L11.6978327,28.3946573 C11.8259199,28.2665701 12.0030872,28.1935484 12.1838458,28.1935484 C12.5627205,28.1935484 12.8709677,28.5017957 12.8709677,28.8806704 C12.8709677,29.0614289 12.7979461,29.2385963 12.6698589,29.3666835 L11.5924899,30.4440524 C11.4644027,30.5721396 11.2872354,30.6451613 11.1064768,30.6451613 C10.7276021,30.6451613 10.4193548,30.336914 10.4193548,29.9580393 Z M12.2580645,31.796749 C12.2580645,31.6159904 12.3310862,31.4388231 12.4591734,31.3107359 L13.5365423,30.2333669 C13.6646295,30.1052797 13.8417969,30.0322581 14.0225554,30.0322581 C14.4014302,30.0322581 14.7096774,30.3405053 14.7096774,30.71938 C14.7096774,30.9001386 14.6366557,31.0773059 14.5085685,31.2053931 L13.4311996,32.2827621 C13.3031124,32.4108493 13.1259451,32.483871 12.9451865,32.483871 C12.5663118,32.483871 12.2580645,32.1756237 12.2580645,31.796749 Z M14.0967742,33.6354587 C14.0967742,33.4547001 14.1697959,33.2775328 14.2978831,33.1494456 L15.375252,32.0720766 C15.5033392,31.9439894 15.6805066,31.8709677 15.8612651,31.8709677 C16.2401398,31.8709677 16.5483871,32.179215 16.5483871,32.5580897 C16.5483871,32.7388483 16.4753654,32.9160156 16.3472782,33.0441028 L15.2699093,34.1214718 C15.1418221,34.249559 14.9646547,34.3225806 14.7838962,34.3225806 C14.4050215,34.3225806 14.0967742,34.0143334 14.0967742,33.6354587 Z M16.6226058,36.1612903 C16.2437311,36.1612903 15.9354839,35.8530431 15.9354839,35.4741683 C15.9354839,35.2934098 16.0085055,35.1162424 16.1365927,34.9881552 L17.2139617,33.9107863 C17.3420489,33.7826991 17.5192162,33.7096774 17.6999748,33.7096774 C18.0788495,33.7096774 18.3870968,34.0179247 18.3870968,34.3967994 C18.3870968,34.577558 18.3140751,34.7547253 18.1859879,34.8828125 L17.108619,35.9601815 C16.9805318,36.0882686 16.8033644,36.1612903 16.6226058,36.1612903 Z M19.5865675,36.7741935 L19.4731445,36.7741935 C19.3169261,36.7741935 19.1672915,36.7173324 19.0508757,36.6140845 L18.5923955,36.2097719 L19.0526714,35.749496 C19.2169701,35.5851972 19.3444588,35.3897745 19.4387285,35.1799867 L19.9959677,35.643854 C20.1417118,35.7653572 20.2258065,35.9443202 20.2258065,36.1349546 C20.2258065,36.4874937 19.9391066,36.7741935 19.5865675,36.7741935 L19.5865675,36.7741935 Z M25.0829448,31.2580645 L24.9770035,31.2580645 C24.8231791,31.2580645 24.6729461,31.2035975 24.5553333,31.1048387 L21.2316501,28.3351027 L20.4463678,29.277202 L23.6739856,31.9664346 C23.8191312,32.0879379 23.9032258,32.2669009 23.9032258,32.4575353 C23.9032258,32.8100743 23.6165259,33.0967742 23.2639869,33.0967742 L23.1302136,33.0967742 C22.9814768,33.0967742 22.836032,33.0441028 22.7214119,32.9483367 L19.3923419,30.1744109 L18.6070596,31.1165102 L21.8346774,33.806042 C21.9804215,33.9266475 22.0645161,34.1056105 22.0645161,34.296245 C22.0645161,34.648784 21.7778162,34.9354839 21.4252772,34.9354839 C21.1900517,34.9354839 20.9608115,34.8519878 20.7803522,34.7020539 L19.4123929,33.5618384 C19.1110289,32.9459425 18.491841,32.5164913 17.7667118,32.4907542 C17.731398,31.4908959 16.9278604,30.6873582 15.9280022,30.6520445 C15.8926884,29.6521862 15.0891507,28.8486485 14.0892925,28.8133348 C14.0533802,27.7901336 13.2154266,26.9677419 12.1838458,26.9677419 C11.6801758,26.9677419 11.1872795,27.1718435 10.8311492,27.5279738 L9.75378024,28.6053427 C9.68943735,28.6696856 9.63616748,28.7427073 9.58199971,28.8151304 L7.69929752,27.6853894 L9.34976685,21.9088962 L13.4874622,20.9889428 C14.5729114,20.7462355 15.7173167,20.7989069 16.7758317,21.1376796 L17.6787267,21.4264743 L14.6178018,22.9569368 C13.9184098,23.3073809 13.483871,24.0109627 13.483871,24.7932523 L13.483871,24.9144563 C13.483871,26.0465914 14.4050215,26.9677419 15.5371566,26.9677419 C15.9091482,26.9677419 16.2751544,26.866589 16.5932775,26.6747574 L18.875504,25.3061996 C19.3339844,25.0314705 19.9492818,25.0916236 20.3452149,25.4477539 L25.5237683,30.1082725 C25.6623299,30.2339654 25.7419355,30.4123299 25.7419355,30.5990739 C25.7419355,30.9626858 25.4465568,31.2580645 25.0829448,31.2580645 L25.0829448,31.2580645 Z M36.7741935,24.1372543 L26.4485099,29.300545 C26.4149918,29.264932 26.3799773,29.2311146 26.3431672,29.1981949 L21.1655116,24.5376764 C20.7118196,24.1282762 20.125252,23.9032258 19.5141444,23.9032258 C19.0673355,23.9032258 18.628607,24.0247291 18.2443454,24.2551663 L15.9612211,25.6243227 C15.8331338,25.7015341 15.6867912,25.7419355 15.5371566,25.7419355 C15.0804719,25.7419355 14.7096774,25.371141 14.7096774,24.9144563 L14.7096774,24.7932523 C14.7096774,24.4775233 14.8850491,24.1944147 15.1669607,24.053459 L18.5858115,22.3440336 C19.1708827,22.051049 19.8654864,21.9855091 20.4960465,22.1668662 L24.3476405,23.2669795 L25.2804624,23.2903226 L36.7741935,17.2408959 L36.7741935,24.1372543 Z" id="Shape"></path>
            </g>
        </g>
    </g>
</svg>