<?xml version="1.0" encoding="UTF-8"?>
<svg width="39px" height="38px" viewBox="0 0 39 38" version="1.1" xmlns="http://www.w3.org/2000/svg" xmlns:xlink="http://www.w3.org/1999/xlink">
    <!-- Generator: Sketch 54.1 (76490) - https://sketchapp.com -->
    <title>Shape</title>
    <desc>Created with Sketch.</desc>
    <g id="Mockups" stroke="none" stroke-width="1" fill="none" fill-rule="evenodd">
        <g id="HOME" transform="translate(-689.000000, -2526.000000)" fill="#FFFFFF" fill-rule="nonzero">
            <g id="bottom-module" transform="translate(258.500000, 1831.500000)">
                <g id="planet-earth" transform="translate(430.500000, 694.500000)">
                    <path d="M32.9350039,5.56499609 C29.3464531,1.97637109 24.5750781,0 19.5,0 C14.4249219,0 9.65362109,1.97637109 6.06499609,5.56499609 C2.47637109,9.15362109 0.5,13.9249219 0.5,19 C0.5,24.0750781 2.47637109,28.8463789 6.06499609,32.4350039 C9.65362109,36.0236289 14.4249219,38 19.5,38 C24.5750781,38 29.3464531,36.0236289 32.9350039,32.4350039 C36.5236289,28.8463789 38.5,24.0750781 38.5,19 C38.5,13.9249219 36.5236289,9.15362109 32.9350039,5.56499609 Z M28.4047656,8.16636328 L29.2400234,4.69648828 C32.5659883,6.96847266 35.0624102,10.3687305 36.1737617,14.3418086 L35.7362422,14.4259727 C35.0828945,14.551625 34.5570547,15.0500781 34.3968906,15.6960039 L34.2271523,16.3801523 C34.2252969,16.3878711 34.2240352,16.392918 34.2116406,16.3972969 C34.1993945,16.4016758 34.1951641,16.3985586 34.1887812,16.3938086 L33.1750273,15.6335859 C32.6495586,15.2394844 31.9340898,15.181668 31.3523633,15.4863359 L30.0872305,16.1486641 C29.4804922,16.4663203 29.1297344,17.0883477 29.1718906,17.7720508 C29.2140469,18.4556797 29.6385039,19.0299102 30.2799766,19.27075 L30.3399453,19.2932383 C30.3468477,19.2958359 30.3519687,19.2976914 30.3550859,19.3101602 C30.3582031,19.3224805 30.3547148,19.3265625 30.3497422,19.3322031 L29.5616875,20.2384883 C29.5537461,20.247543 29.5400898,20.2496211 29.5298477,20.2429414 L27.405707,18.872418 C26.9186094,18.5581016 26.3114258,18.51075 25.7816523,18.7460977 C25.2518789,18.9813711 24.8795977,19.4632734 24.786082,20.0352773 L24.622207,21.0367109 C24.529582,21.6019609 24.7240352,22.1731484 25.1424062,22.5645781 L26.2501953,23.6011914 C26.2589531,23.6093555 26.2605117,23.6225664 26.2539062,23.6325117 L24.4484609,26.3693281 C24.2767187,26.6297617 24.1791953,26.9323516 24.1666523,27.244293 L24.0099766,31.1625234 C24.0097539,31.1686836 24.0071562,31.1745469 24.0026289,31.1789258 L21.5983125,33.5355938 C21.5903711,33.5433867 21.578125,33.5448711 21.5686992,33.5393047 L20.0096602,32.626043 C20.0037227,32.6225547 19.9994922,32.6167656 19.998082,32.6101602 C19.998082,32.6101602 19.2417187,29.1779883 19.2134414,29.1019141 L18.5258047,27.2562422 C18.2960234,26.6396328 17.7240937,26.2044141 17.0687422,26.1474883 L13.9217187,25.8737695 C13.9137773,25.8731016 13.9066523,25.8686484 13.9026445,25.8615977 L12.1123398,22.7747656 C12.1095195,22.7699414 12.1085547,22.7642266 12.1092969,22.7588086 L12.559582,19.7650469 C12.5605469,19.7586641 12.5638867,19.7529492 12.5690078,19.7490898 L15.3178477,17.6750469 C15.3248242,17.6697773 15.3340273,17.6687383 15.3421172,17.6720039 L18.0056797,18.783207 C18.1573086,18.8463672 18.3169531,18.8874102 18.4800117,18.9051484 L22.1691289,19.3061523 C22.5896523,19.3518711 23.0092109,19.2413594 23.3524727,18.9953242 L25.7966445,17.2433906 C26.4551133,16.7714336 26.6932812,15.8919414 26.3629336,15.1521289 L26.1361953,14.6446211 C25.8730898,14.0556211 25.3094727,13.6678281 24.6654766,13.6326484 L17.801207,13.2568047 C17.7974961,13.256582 17.7937852,13.2554688 17.7905195,13.2536133 C17.783543,13.2496797 17.779832,13.2464883 17.7794609,13.2464883 L17.7794609,13.2465625 C17.7761211,13.2388438 17.7786445,13.2193242 17.7825781,13.2139063 C17.7836172,13.2132383 17.7879219,13.2110117 17.7963086,13.2086367 L19.8570664,12.6531836 C20.1296719,12.579707 20.3821641,12.438543 20.5872305,12.2449805 L23.1074023,9.86678906 C23.1111875,9.86315234 23.1162344,9.86085156 23.1215781,9.86025781 L26.9144531,9.46964453 C27.636082,9.39542578 28.2349531,8.87173828 28.4047656,8.16636328 Z M15.5573516,6.77201562 L16.9752266,4.10325781 C17.1847461,3.70878516 17.2508008,3.25055859 17.1609961,2.81303906 L16.9684727,1.87454297 C17.7950469,1.75282422 18.6401016,1.68892188 19.4999258,1.68892188 C20.3670977,1.68892188 21.2193516,1.75386328 22.0526797,1.87751172 C22.0526797,1.87751172 21.849543,2.09957422 21.8144375,2.11360156 L19.8063008,2.91909766 C19.5193711,3.03428516 19.2613867,3.2193125 19.0602539,3.45428906 L15.9314141,7.11134375 C15.8888867,7.16107031 15.8269883,7.19112891 15.7615273,7.19394922 C15.6621484,7.19832812 15.6007695,7.14348047 15.5720469,7.11156641 C15.460793,6.98776953 15.5465156,6.79264844 15.5573516,6.77201562 Z M8.176,5.91657031 L8.176,8.45032422 C8.176,9.158 7.82130859,9.80986328 7.22770703,10.1949102 L5.40957031,11.3746914 C4.98823047,11.6482617 4.63101562,11.9970156 4.34809375,12.4116758 L2.69791406,14.8297227 C3.57080078,11.3137578 5.52023047,8.21839062 8.176,5.91657031 Z M9.27970703,30.8441992 L9.0405,32.7842031 C6.33359375,30.7252266 4.24878906,27.8888828 3.12266797,24.6104922 L4.19780078,24.6104922 C4.32953906,24.6104922 4.45110938,24.6772148 4.5220625,24.7878008 L6.69481641,28.1732148 C6.79278516,28.3252148 6.90930859,28.463707 7.04275391,28.5852773 L9.15642969,30.5131094 C9.24846094,30.5967539 9.29492187,30.7209219 9.27970703,30.8441992 Z M19.5,36.3110781 C16.2522617,36.3110781 13.211,35.4113242 10.611043,33.8490938 L10.9559375,31.0510469 C11.037875,30.3847852 10.7904297,29.7168164 10.2947227,29.2650469 C10.2947227,29.2650469 8.13466016,27.2890469 8.11603125,27.2611406 L5.94327734,23.8758008 C5.55986328,23.2779687 4.90710937,22.9215703 4.19780078,22.9215703 L2.63698047,22.9215703 C2.34396484,21.6610391 2.18884766,20.3482578 2.18884766,19 C2.18884766,18.8543828 2.19077734,18.7093594 2.19433984,18.5646328 L5.74310937,13.3641992 C5.89933984,13.1344922 6.09609375,12.9419687 6.32914062,12.7908594 L8.14638672,11.612043 C9.2221875,10.9145352 9.86484766,9.73230469 9.86484766,8.45047266 L9.86484766,4.62501562 C11.5042656,3.52257031 13.3418477,2.69362109 15.3116875,2.20229297 L15.5065859,3.15236719 C15.5175703,3.20617578 15.5094805,3.26250781 15.4837266,3.31089844 L14.066,5.97958203 C13.9773828,6.14620312 13.8625664,6.58439062 13.8625664,6.58439062 C13.7474531,7.16715625 13.9031641,7.76001562 14.2898437,8.21096875 C14.6585625,8.64106641 15.1868516,8.88316797 15.7497266,8.88316797 C15.7771133,8.88316797 16.5935937,8.92302344 17.2146562,8.20941016 L20.3434219,4.55257812 C20.3681367,4.52363281 20.3999766,4.50084766 20.4351562,4.48674609 L22.4431445,3.68132422 C22.7287383,3.56680469 22.9856094,3.38296484 23.1861484,3.14976953 L23.9441445,2.26842187 C25.278375,2.6231875 26.5501875,3.132625 27.7379844,3.77803125 C27.7183906,3.82285937 26.7626016,7.77129687 26.7626016,7.77129687 C26.7602266,7.78131641 26.7516172,7.7888125 26.7413008,7.78985156 L22.9482031,8.18046484 C22.5754766,8.21891016 22.2201914,8.38159766 21.9478828,8.63869141 L19.4277109,11.0168828 C19.4248164,11.0195547 19.4213281,11.0216328 19.4173203,11.0225977 L17.3564883,11.5780508 C16.6841406,11.7592188 16.1921445,12.3226133 16.103082,13.0132188 C16.0140195,13.7038242 16.3469648,14.3735 16.9514023,14.7195078 C17.1818516,14.8513203 17.4437695,14.9286563 17.7087305,14.9432031 L24.573,15.3190469 C24.5821289,15.3195664 24.5902187,15.3251328 24.5939297,15.3335195 L24.8205937,15.8408789 C24.8253437,15.851418 24.8219297,15.8640352 24.8124297,15.8707891 L22.3682578,17.6227227 C22.3633594,17.6262852 22.3576445,17.6278438 22.3514844,17.6271758 L18.6556875,17.2245391 L15.9924219,16.1134844 C15.4328867,15.879918 14.7848086,15.9618555 14.3007539,16.3269375 L11.5518398,18.4010547 C11.1918789,18.6726953 10.9566797,19.0679102 10.8896602,19.5138906 L10.4393008,22.5077266 C10.381707,22.8909922 10.4571133,23.2867266 10.6514922,23.6219727 L12.4418711,26.7090273 C12.7215273,27.1913008 13.2201289,27.5080664 13.775582,27.556457 L16.9226797,27.8301758 C16.931957,27.8309922 16.9401953,27.8371523 16.9434609,27.8460586 L17.6319883,29.6950703 L18.3483477,32.9711602 C18.45025,33.436957 18.7446758,33.8423398 19.1560703,34.0834766 L20.7151836,34.9968125 C20.9838555,35.1542305 21.2825859,35.2308984 21.5794609,35.2308984 C22.0177227,35.2308984 22.4521992,35.0636836 22.780543,34.7419453 L25.1848594,32.3852773 C25.4980625,32.0783086 25.6801211,31.6681016 25.6976367,31.2300625 L25.8543125,27.3121289 C25.8544609,27.3076016 25.8557969,27.3031484 25.8583945,27.2995859 L27.6639141,24.5627695 C28.1250352,23.8634805 28.0157852,22.9405703 27.4041484,22.3683438 L26.2962852,21.3317305 C26.2903477,21.3261641 26.2876016,21.318 26.2888633,21.3099102 L26.4528867,20.3084023 C26.4542227,20.3003125 26.4548906,20.2954141 26.4670625,20.2899961 C26.4788633,20.2845781 26.483168,20.2873242 26.4902187,20.2917773 L28.6142109,21.6623008 C29.325375,22.1211953 30.2804961,21.9858203 30.8360234,21.3470195 L31.6240781,20.4407344 C31.9923516,20.0173906 32.1299531,19.4398945 31.9922773,18.8960195 C31.8545273,18.3521445 31.4588672,17.9096523 30.9333242,17.7123789 L30.8733555,17.6898906 C30.8656367,17.6869961 30.8617773,17.6844727 30.8616289,17.6844727 C30.8569531,17.6780898 30.8559141,17.6589414 30.8591055,17.652707 C30.8598477,17.6519648 30.8634102,17.6489961 30.8706094,17.6452109 L32.1357422,16.9828086 C32.1441289,16.9784297 32.1542227,16.9792461 32.1617187,16.9848867 L33.1754727,17.7451094 C33.6363711,18.0908203 34.2355391,18.1817383 34.7782266,17.9884727 C35.3208398,17.7952813 35.7276328,17.3461094 35.8663477,16.7869453 L36.0360859,16.1028711 C36.0383125,16.093668 36.0458086,16.0864688 36.0552344,16.0846875 L36.5485664,15.9898359 C36.7209766,16.9678164 36.811375,17.9736289 36.811375,19.0002227 C36.8110781,28.5454219 29.0453477,36.3110781 19.5,36.3110781 Z" id="Shape"></path>
                </g>
            </g>
        </g>
    </g>
</svg>