<?xml version="1.0" encoding="UTF-8"?>
<svg width="39px" height="41px" viewBox="0 0 39 41" version="1.1" xmlns="http://www.w3.org/2000/svg" xmlns:xlink="http://www.w3.org/1999/xlink">
    <!-- Generator: Sketch 54.1 (76490) - https://sketchapp.com -->
    <title>003-ecology</title>
    <desc>Created with Sketch.</desc>
    <g id="Mockups" stroke="none" stroke-width="1" fill="none" fill-rule="evenodd">
        <g id="HOME" transform="translate(-689.000000, -2117.000000)" fill="#FFFFFF" fill-rule="nonzero">
            <g id="bottom-module" transform="translate(258.500000, 1831.500000)">
                <g id="003-ecology" transform="translate(431.000000, 286.000000)">
                    <path d="M20.6080053,6.53030998 C20.2375797,5.50685329 18.7844413,5.50654943 18.4137118,6.53030998 C17.3540937,9.45755416 11.454024,14.6739013 11.454024,20.352445 C11.454024,30.8337597 27.5673892,30.8279861 27.5673892,20.352445 C27.5673892,14.6732936 21.6679272,9.45816188 20.6080053,6.53030998 Z M19.4639096,25.8763154 C16.3172665,25.8760116 13.7877969,23.8607014 13.7877969,20.352445 C13.7877969,16.4850064 17.4975235,12.5124265 19.5107066,9.40650288 C21.5241935,12.5121226 25.2336163,16.4847025 25.2336163,20.352445 C25.2336163,23.5632061 23.0514777,25.8763154 19.4639096,25.8763154 Z" id="Shape"></path>
                    <path d="M3.77566782,14.4718234 L8.16364719,12.373251 C8.74526721,12.0952038 8.99110343,11.3981107 8.7133601,10.8164907 C8.43531299,10.2345668 7.73882762,9.98842676 7.15751146,10.2664739 L5.38196003,11.1155054 C9.48216816,2.82635705 19.7443878,-0.0872126288 27.5561457,4.50861839 C28.1116324,4.83558971 28.8266542,4.64992111 29.1533216,4.09413059 C29.4799891,3.53834015 29.2943204,2.82271053 28.7391377,2.49573922 C19.6371193,-2.85917573 7.70175463,0.687369106 3.12992988,10.4132463 L2.21981918,8.50824339 C1.94207593,7.92631952 1.24528663,7.68017936 0.663970543,7.95822655 C0.082654459,8.23627374 -0.163485619,8.9333669 0.114257635,9.51498684 L2.21951533,13.9218066 C2.49756251,14.5037304 3.19435174,14.7495666 3.77566782,14.4718234 Z" id="Path"></path>
                    <path d="M24.2475364,33.671968 L20.2369719,30.9191491 C19.7057954,30.554497 18.9792263,30.6897221 18.6145742,31.2212025 C18.2499222,31.7529867 18.3854512,32.4798597 18.9166277,32.8445117 L20.5636393,33.975237 C11.7305518,34.5601996 3.63314968,27.4427998 3.73282123,18.0466287 C3.73950648,17.4018023 3.22261225,16.8736647 2.57839367,16.8666755 C1.94906511,16.8554321 1.40603745,17.3668566 1.39904827,18.0217108 C1.28327127,28.947901 10.7870146,37.148925 21.0437645,36.2807493 L19.8635075,38.001603 C19.4988554,38.5333873 19.6340805,39.2602603 20.1655608,39.6249123 C20.6970412,39.9895644 21.4236103,39.8543392 21.7879585,39.322555 L24.5495898,35.2952773 C24.913938,34.7637969 24.7790167,34.0369239 24.2475364,33.671968 L24.2475364,33.671968 Z" id="Path"></path>
                    <path d="M37.8247468,6.89405043 C37.8745826,6.25135122 37.3944574,5.68948324 36.7520621,5.63964746 L31.8848692,5.26040936 C31.2433855,5.21209294 30.6809097,5.69069875 30.631074,6.33370182 L30.2533553,11.1850931 C30.2007846,11.8615226 30.734392,12.4434465 31.4181146,12.4434465 C32.0213098,12.4431426 32.5324304,11.9782112 32.5801391,11.3665075 L32.7320774,9.41288427 C37.8131995,17.0666264 35.2858571,27.392964 27.3838477,31.9094832 C26.8244107,32.2291615 26.6299296,32.9423601 26.9496079,33.5021009 C27.2692861,34.0621457 27.981877,34.2566267 28.5416179,33.9369485 C37.7882816,28.652229 40.5429238,16.5555058 34.4602241,7.80294562 L36.5706477,7.96734289 C37.2124353,8.01687481 37.7746071,7.5370535 37.8247468,6.89405043 L37.8247468,6.89405043 Z" id="Path"></path>
                </g>
            </g>
        </g>
    </g>
</svg>