<svg xmlns="http://www.w3.org/2000/svg" width="375" height="900" viewBox="0 0 375 900">
    <g fill="none" fill-rule="nonzero">
        <path fill="#EDF0F6" d="M485.724-1.7c-49.16-.432-107.808-6.096-165.096 16.8-56.312 22.48-85.664 63.128-129.872 91.272a435.128 435.128 0 0 1-96.416 45.904 437.344 437.344 0 0 0 83.16-25.752c47.4-20 82.88-54.296 140.8-67.008 58.944-12.936 113.992 1.6 160.928 9.736L485.724-1.7z"/>
        <path fill="#3680AC" d="M479.204 69.252c-46.936-8.096-101.984-22.672-160.928-9.736-57.936 12.712-93.416 46.992-140.8 67.008a437.344 437.344 0 0 1-83.12 25.72 395.56 395.56 0 0 1-40.568 6.056 378 378 0 0 0 22.96-.696 453.384 453.384 0 0 0 90.4-14.64c49.936-13.352 90.216-41.968 149.488-46.952 60.312-5.072 112.632 15.888 157.88 29.6l4.688-56.36z"/>
        <path fill="#0F2E3C" d="M-88.772 787.468c48.744-6.4 106.264-19.2 165.912-3.464 58.632 15.448 92.72 52.208 140 74.76 52.432 24.992 116.52 42.584 181.184 41.056 33.744-.8 63.56-6.32 95.728-9.128l1.448-759.168a609.811 609.811 0 0 1-20.96-5.928c-45.248-13.696-97.6-34.656-157.88-29.6-59.272 4.984-99.552 33.6-149.488 46.952a453.384 453.384 0 0 1-90.4 14.64c-7.616.443-15.27.675-22.96.696a363.408 363.408 0 0 1-68.408-6.12c-32.088-6.104-59.44-16-89.6-23.672l15.424 658.976z"/>
    </g>
</svg>
