<svg xmlns="http://www.w3.org/2000/svg" preserveAspectRatio="none" width="100%" height="100%" viewBox="0 0 1440 972">
    <g fill="none" fill-rule="nonzero">
        <path fill="#EDF0F6" d="M1385.31 26.25c-94.2 38.48-202.12 53.55-292.53 52.75-61.45-.54-134.76-7.62-206.37 21-70.39 28.1-107.08 78.91-162.34 114.09a543.91 543.91 0 0 1-120.52 57.38 546.68 546.68 0 0 0 103.95-32.19c59.25-25 103.6-67.87 176-83.76 73.68-16.17 142.49 2 201.16 12.17 86.3 14.88 192.24 17.32 289.33-4.77a602.82 602.82 0 0 0 88.51-27.55V-12a601.19 601.19 0 0 1-77.19 38.25z"/>
        <path fill="#3680AC" d="M1373.96 162.92c-97.09 22.09-203 19.65-289.33 4.77-58.67-10.12-127.48-28.34-201.16-12.17-72.42 15.89-116.77 58.74-176 83.76a546.68 546.68 0 0 1-103.9 32.15 494.45 494.45 0 0 1-50.71 7.57c9.6 0 19.167-.29 28.7-.87a566.73 566.73 0 0 0 113-18.3c62.42-16.69 112.77-52.46 186.86-58.69 75.39-6.34 140.79 19.86 197.35 37a745.566 745.566 0 0 0 26.2 7.41c78.36 20.71 171.72 32.49 261 24.3a628.33 628.33 0 0 0 96.5-16.62V135.37a602.82 602.82 0 0 1-88.51 27.55z"/>
        <path fill="#0F2E3C" d="M1366 269.83c-89.28 8.19-182.64-3.59-261-24.3a762.267 762.267 0 0 1-26.2-7.41c-56.56-17.12-122-43.32-197.35-37-74.09 6.23-124.44 42-186.86 58.69a566.73 566.73 0 0 1-113 18.3 519.35 519.35 0 0 1-28.7.87 454.26 454.26 0 0 1-85.51-7.65c-40.11-7.63-74.3-20-112-29.59-101.74-26-179.59-7.54-255.29 25.35A333.93 333.93 0 0 1-22.5 294.83v381.52a607.42 607.42 0 0 0 100.38 37.2c98.2 26.72 207.15 28.52 296.78 16.7 60.93-8 132.83-24 207.39-4.33 73.29 19.31 115.9 65.26 175 93.45 65.54 31.24 145.65 53.23 226.48 51.32 42.18-1 79.45-7.9 119.66-11.41 108.5-9.48 182.78 23.24 251.61 70.59a320.19 320.19 0 0 0 107.7 47.92V253.21a628.33 628.33 0 0 1-96.5 16.62z"/>
    </g>
</svg>
