<svg xmlns="http://www.w3.org/2000/svg" width="31" height="30" viewBox="0 0 31 30">
    <g fill="#FFF" fill-rule="nonzero">
        <path d="M22.101 0H8.733C4.193 0 .5 3.694.5 8.233v13.368c0 4.54 3.693 8.233 8.233 8.233h13.368c4.54 0 8.233-3.693 8.233-8.233V8.233c0-4.54-3.693-8.233-8.233-8.233zm5.587 21.601a5.593 5.593 0 0 1-5.587 5.586H8.733a5.592 5.592 0 0 1-5.586-5.586V8.233a5.592 5.592 0 0 1 5.586-5.586h13.368a5.593 5.593 0 0 1 5.587 5.586v13.368z"/>
        <path d="M15.417 7.23c-4.239 0-7.687 3.449-7.687 7.688 0 4.238 3.448 7.687 7.687 7.687 4.24 0 7.688-3.449 7.688-7.687 0-4.24-3.449-7.688-7.688-7.688zm0 12.728c-2.779 0-5.04-2.261-5.04-5.04 0-2.78 2.26-5.041 5.04-5.041 2.78 0 5.04 2.261 5.04 5.04 0 2.78-2.26 5.04-5.04 5.04zM23.427 4.985c-.51 0-1.01.207-1.37.569a1.95 1.95 0 0 0-.57 1.373c0 .51.207 1.01.57 1.373.36.36.86.568 1.37.568A1.96 1.96 0 0 0 24.8 8.3c.362-.362.568-.863.568-1.373a1.95 1.95 0 0 0-.568-1.373 1.95 1.95 0 0 0-1.373-.569z"/>
    </g>
</svg>
