<svg xmlns="http://www.w3.org/2000/svg" width="32" height="31" viewBox="0 0 32 31">
    <path fill="#FFF" fill-rule="nonzero" d="M31.896 18.895V30.5h-6.732V19.667c0-2.723-.97-4.575-3.406-4.575-1.863 0-2.962 1.254-3.453 2.46-.176.434-.23 1.042-.23 1.643v11.304H11.35s.09-18.34 0-20.24h6.726v2.869c-.009.023-.028.043-.038.069h.038v-.07c.9-1.378 2.491-3.343 6.066-3.343 4.438 0 7.754 2.892 7.754 9.111zM4.308.5C2.007.5.5 2.01.5 4 .5 5.939 1.963 7.5 4.222 7.5h.04c2.352 0 3.81-1.56 3.81-3.498C8.026 2.01 6.614.5 4.308.5zm-3.406 30H7.63V10.258H.902V30.5z"/>
</svg>
