<svg xmlns="http://www.w3.org/2000/svg" width="191" height="140" viewBox="0 0 191 140">
    <g fill="#F5F5F5" fill-rule="nonzero">
        <path d="M129.549 65.487v.075c0 18.974-15.604 34.296-34.676 33.85-17.785-.422-32.362-14.799-33.02-32.576a33.735 33.735 0 0 1 4.812-18.717L93.633 1.407c.036-.072.078-.141.123-.208a2.347 2.347 0 0 1 3.857-.036l.199.351 6.9 11.96-8.109 14.047L80.052 56.19a18.094 18.094 0 0 0-2.593 9.641c0 .34.016.684.044 1.022.667 9.007 7.825 16.169 16.831 16.84 9.006.673 17.148-5.347 19.145-14.154 1.997-8.808-2.753-17.75-11.168-21.028A19.255 19.255 0 0 0 96 47.288a16.958 16.958 0 0 0-5.866.85l13.704-23.905c.375-.672.693-1.314 1.463-1.527.77-.213 1.365.176 1.824.761 2.978 3.771 7.19 9.85 10.782 14.811 4.203 6.283 11.17 14.422 11.637 27.209"/>
        <path d="M94.78 80.11c-7.69-.455-13.692-6.822-13.694-14.525 0-.345.012-.688.037-1.029 13.973-7.434 16.216 8.889 28.969 2.746-.91 7.648-7.623 13.263-15.312 12.808zM21.38 132.322h.1l3.585-17.583h4.286l-5.793 24.38h-3.7l-4.874-17.346h-.1l-4.89 17.347H6.276L.5 114.74h4.27l3.616 17.564h.1l4.639-17.565h3.584zM38.057 136.205a5.069 5.069 0 0 0 2.754-.77c.821-.513 1.365-1.1 1.632-1.759v-2.678h-3.23c-1.185 0-2.112.293-2.781.88-.668.585-1.004 1.276-1.004 2.067a2.11 2.11 0 0 0 .679 1.65c.452.408 1.102.612 1.95.61zm4.974 2.915a13.044 13.044 0 0 1-.352-1.34 9.82 9.82 0 0 1-.193-1.305 6.977 6.977 0 0 1-2.202 2.135 5.653 5.653 0 0 1-3.064.861c-1.887 0-3.335-.485-4.344-1.456-1.01-.97-1.515-2.303-1.516-3.996 0-1.751.691-3.116 2.075-4.094 1.384-.978 3.332-1.466 5.844-1.463h3.166v-1.592c0-.95-.276-1.692-.828-2.227-.552-.534-1.353-.802-2.403-.804-.927 0-1.664.22-2.21.662a2.11 2.11 0 0 0-.82 1.716l-3.919.016-.017-.1c-.078-1.428.561-2.695 1.917-3.8 1.355-1.107 3.122-1.66 5.3-1.66 2.111 0 3.812.536 5.101 1.608 1.29 1.072 1.938 2.613 1.944 4.622v8.054c-.003.72.048 1.44.151 2.152.102.684.266 1.357.489 2.01h-4.12zM56.66 116.607v4.397h3.248v3.013H56.66v10.015c0 .748.162 1.28.485 1.598.347.327.813.5 1.29.477.218 0 .437-.02.652-.058a3.93 3.93 0 0 0 .603-.158l.433 2.977a4.749 4.749 0 0 1-1.231.445c-.487.107-.985.16-1.483.159-1.495 0-2.668-.438-3.518-1.314-.85-.876-1.277-2.252-1.28-4.128v-10.015h-2.767v-3.01h2.763v-4.398h4.053zM71.126 123.933a3.143 3.143 0 0 0-2.545 1.146c-.637.765-1.033 1.761-1.19 2.99l.034.085h7.083v-.319c0-1.16-.27-2.098-.811-2.814-.54-.715-1.398-1.075-2.571-1.08m.429 15.53c-2.645 0-4.714-.834-6.205-2.502-1.492-1.669-2.236-3.832-2.234-6.49v-.669c0-2.658.745-4.848 2.234-6.572 1.489-1.724 3.412-2.58 5.769-2.571 2.434 0 4.276.75 5.526 2.253 1.25 1.502 1.875 3.508 1.875 6.018v2.195H67.334l-.034.083c.045 1.487.435 2.692 1.172 3.618.736.925 1.847 1.388 3.333 1.389a9.135 9.135 0 0 0 2.872-.403 8.192 8.192 0 0 0 2.25-1.154l1.311 2.662a8.593 8.593 0 0 1-2.745 1.524 11.54 11.54 0 0 1-3.938.62M91.536 124.67l-1.74-.067a3.655 3.655 0 0 0-1.985.501c-.54.346-.967.84-1.23 1.425v12.59h-4.069v-18.115h3.716l.276 2.626a5.815 5.815 0 0 1 1.76-2.175 4.117 4.117 0 0 1 2.486-.788c.23-.001.46.019.686.06.198.034.394.082.586.142l-.486 3.8zM114.459 132.322h.102l3.582-17.583h4.286l-5.793 24.38h-3.7l-4.872-17.346h-.102l-4.89 17.347h-3.716l-5.778-24.38h4.27l3.617 17.564h.102l4.638-17.565h3.582zM128.54 130.245c0 1.774.345 3.214 1.037 4.32.692 1.105 1.764 1.658 3.215 1.658 1.418 0 2.48-.555 3.189-1.666.708-1.11 1.06-2.547 1.055-4.312v-.352c0-1.73-.352-3.156-1.055-4.277-.704-1.121-1.777-1.682-3.22-1.683-1.418 0-2.473.56-3.166 1.683-.693 1.122-1.045 2.548-1.056 4.277v.352zm-4.07-.352c0-2.697.74-4.91 2.22-6.64 1.479-1.729 3.503-2.591 6.07-2.586 2.601 0 4.641.862 6.121 2.587 1.48 1.725 2.219 3.938 2.218 6.64v.35c0 2.726-.74 4.945-2.218 6.658-1.479 1.713-3.508 2.57-6.087 2.57-2.591 0-4.626-.86-6.103-2.579-1.477-1.719-2.217-3.935-2.22-6.648l-.001-.352zM154.36 124.67l-1.741-.067a3.66 3.66 0 0 0-1.986.501 3.32 3.32 0 0 0-1.23 1.425v12.59h-4.069v-18.115h3.718l.267 2.628a5.804 5.804 0 0 1 1.768-2.176 4.112 4.112 0 0 1 2.485-.788c.23 0 .46.02.688.06.198.036.393.083.586.143l-.486 3.799zM163.636 131.2h-1.507v7.92h-4.053v-26.122h4.053v14.936h1.39l4.906-6.931h4.772l-6.212 8.338 6.9 9.779h-4.74zM186.876 134.163a1.878 1.878 0 0 0-.795-1.549c-.53-.406-1.533-.77-3.005-1.096-2.132-.436-3.762-1.078-4.89-1.926a4.06 4.06 0 0 1-1.692-3.415c0-1.524.645-2.822 1.935-3.894s2.981-1.61 5.074-1.616c2.165 0 3.909.555 5.233 1.667 1.323 1.111 1.957 2.448 1.9 4.01l-.034.1H186.7a2.54 2.54 0 0 0-.88-1.917c-.58-.542-1.356-.812-2.327-.812-.97 0-1.719.223-2.244.67a2.095 2.095 0 0 0-.77 1.64 1.77 1.77 0 0 0 .72 1.474c.48.369 1.468.698 2.964.987 2.222.447 3.897 1.103 5.024 1.968 1.1.81 1.732 2.11 1.69 3.476 0 1.628-.673 2.959-2.018 3.992-1.345 1.033-3.117 1.55-5.316 1.55-2.356 0-4.214-.603-5.576-1.809-1.361-1.205-2.006-2.59-1.934-4.152l.033-.102h3.783c.046 1.055.426 1.82 1.14 2.295a4.573 4.573 0 0 0 2.612.72c1.037 0 1.843-.207 2.418-.62.548-.364.874-.982.864-1.64"/>
    </g>
</svg>
