<svg xmlns="http://www.w3.org/2000/svg" width="17" height="30" viewBox="0 0 17 30">
    <path fill="#FFF" fill-rule="nonzero" d="M15.609.006L11.719 0C7.347 0 4.522 2.898 4.522 7.383v3.404H.612A.612.612 0 0 0 0 11.4v4.932c0 .338.274.612.612.612h3.911v12.445c0 .338.274.612.612.612h5.103a.612.612 0 0 0 .612-.612V16.943h4.574a.612.612 0 0 0 .611-.612l.002-4.932a.613.613 0 0 0-.612-.612H10.85V7.901c0-1.387.33-2.09 2.137-2.09l2.621-.002a.612.612 0 0 0 .612-.611V.618a.612.612 0 0 0-.611-.612z"/>
</svg>
