<svg xmlns="http://www.w3.org/2000/svg" viewBox="0 0 685.02 289.66"><defs><style>.cls-1,.cls-10,.cls-2{fill:#459dd0;}.cls-2{font-size:28px;stroke:#459dd0;stroke-miterlimit:10;}.cls-10,.cls-2{font-family:Oswald-Regular, Oswald;}.cls-3{fill:#449dd0;}.cls-4{font-size:7px;fill:#231f20;font-family:Roboto-Regular, Roboto;}.cls-5{letter-spacing:-0.01em;}.cls-6{letter-spacing:0em;}.cls-7{letter-spacing:-0.01em;}.cls-8{letter-spacing:-0.01em;}.cls-9{letter-spacing:-0.01em;}.cls-10{font-size:12px;}.cls-11{letter-spacing:-0.01em;}.cls-12{letter-spacing:-0.01em;}.cls-13{letter-spacing:-0.01em;}.cls-14{letter-spacing:-0.01em;}.cls-15{letter-spacing:-0.01em;}.cls-16{letter-spacing:-0.01em;}.cls-17{letter-spacing:0em;}.cls-18{letter-spacing:0.02em;}.cls-19{letter-spacing:-0.02em;}.cls-20{letter-spacing:-0.02em;}.cls-21{letter-spacing:-0.02em;}.cls-22{letter-spacing:-0.02em;}.cls-23{letter-spacing:-0.01em;}.cls-24{letter-spacing:0.02em;}.cls-25{letter-spacing:-0.03em;}.cls-26{letter-spacing:0em;}.cls-27{letter-spacing:-0.06em;}.cls-28{letter-spacing:-0.02em;}.cls-29{letter-spacing:-0.02em;}.cls-30{letter-spacing:-0.01em;}</style></defs><title>horizontal_timeline_v3</title><g id="BG"><path class="cls-1" d="M78.88,299.54A48.54,48.54,0,1,1,127.43,251,48.59,48.59,0,0,1,78.88,299.54Zm0-95.08A46.54,46.54,0,1,0,125.43,251,46.6,46.6,0,0,0,78.88,204.46Z" transform="translate(-21.08 -106.32)"/><text class="cls-2" transform="translate(144.85 154.92)">2015</text><text class="cls-2" transform="translate(31.44 154.72)">2012</text><path class="cls-1" d="M192.76,299.54A48.54,48.54,0,1,1,241.31,251,48.6,48.6,0,0,1,192.76,299.54Zm0-95.08A46.54,46.54,0,1,0,239.31,251,46.6,46.6,0,0,0,192.76,204.46Z" transform="translate(-21.08 -106.32)"/><path class="cls-1" d="M306.65,299.54A48.54,48.54,0,1,1,355.19,251,48.6,48.6,0,0,1,306.65,299.54Zm0-95.08A46.54,46.54,0,1,0,353.19,251,46.6,46.6,0,0,0,306.65,204.46Z" transform="translate(-21.08 -106.32)"/><path class="cls-1" d="M420.53,299.54A48.54,48.54,0,1,1,469.07,251,48.6,48.6,0,0,1,420.53,299.54Zm0-95.08A46.54,46.54,0,1,0,467.07,251,46.6,46.6,0,0,0,420.53,204.46Z" transform="translate(-21.08 -106.32)"/><path class="cls-1" d="M534.41,299.54A48.54,48.54,0,1,1,583,251,48.6,48.6,0,0,1,534.41,299.54Zm0-95.08A46.54,46.54,0,1,0,581,251,46.6,46.6,0,0,0,534.41,204.46Z" transform="translate(-21.08 -106.32)"/><path class="cls-1" d="M648.29,299.54A48.54,48.54,0,1,1,696.83,251,48.59,48.59,0,0,1,648.29,299.54Zm0-95.08A46.54,46.54,0,1,0,694.83,251,46.59,46.59,0,0,0,648.29,204.46Z" transform="translate(-21.08 -106.32)"/><text class="cls-2" transform="translate(600.72 155.04)">2019</text><text class="cls-2" transform="translate(486.96 155.04)">2018</text><text class="cls-2" transform="translate(374.96 154.92)">2017</text><text class="cls-2" transform="translate(260.14 155.04)">2016</text></g><g id="dotted_line" data-name="dotted line"><rect class="cls-3" x="57.3" y="45.06" width="1" height="41.7"/><rect class="cls-3" x="171.18" y="199.92" width="1" height="42.54"/><rect class="cls-3" x="285.06" y="44.59" width="1" height="42.15"/><rect class="cls-3" x="512.82" y="44.63" width="1" height="42.11"/><rect class="cls-3" x="398.94" y="199.92" width="1" height="42.54"/><rect class="cls-3" x="626.71" y="199.92" width="1" height="42.54"/><path class="cls-3" d="M22.09,246.24a.94.94,0,0,1-.09,1.88,1,1,0,0,1-.92-1A.94.94,0,0,1,22.09,246.24Z" transform="translate(-21.08 -106.32)"/><path class="cls-3" d="M22.46,242.49a.94.94,0,0,1,.81,1,1,1,0,0,1-1,.83.92.92,0,0,1-.82-1A.93.93,0,0,1,22.46,242.49Z" transform="translate(-21.08 -106.32)"/><path class="cls-3" d="M23.06,238.77a1,1,0,0,1,.76,1.1,1,1,0,0,1-1.09.76,1,1,0,0,1-.76-1.1A.93.93,0,0,1,23.06,238.77Z" transform="translate(-21.08 -106.32)"/><path class="cls-3" d="M23.93,235.11a.94.94,0,0,1-.46,1.83,1,1,0,0,1-.7-1.15A1,1,0,0,1,23.93,235.11Z" transform="translate(-21.08 -106.32)"/><path class="cls-3" d="M25,231.51a.94.94,0,0,1,.59,1.18,1,1,0,0,1-1.19.61.92.92,0,0,1-.6-1.19A1,1,0,0,1,25,231.51Z" transform="translate(-21.08 -106.32)"/><path class="cls-3" d="M26.37,228a1,1,0,0,1,.52,1.22,1,1,0,0,1-1.22.53.94.94,0,0,1,.7-1.75Z" transform="translate(-21.08 -106.32)"/><path class="cls-3" d="M28,224.57a.94.94,0,0,1-.82,1.7.94.94,0,1,1,.82-1.7Z" transform="translate(-21.08 -106.32)"/><path class="cls-3" d="M29.74,221.26a1,1,0,0,1,.35,1.28,1,1,0,0,1-1.29.36.92.92,0,0,1-.35-1.28A.94.94,0,0,1,29.74,221.26Z" transform="translate(-21.08 -106.32)"/><path class="cls-3" d="M31.74,218.07a1,1,0,0,1,.27,1.31.94.94,0,1,1-.27-1.31Z" transform="translate(-21.08 -106.32)"/><path class="cls-3" d="M34,215a.93.93,0,0,1,.17,1.3.94.94,0,1,1-1.5-1.13A.93.93,0,0,1,34,215Z" transform="translate(-21.08 -106.32)"/><path class="cls-3" d="M36.37,212.14a.94.94,0,1,1-1.23,1.42.94.94,0,0,1,1.23-1.42Z" transform="translate(-21.08 -106.32)"/><path class="cls-3" d="M39,209.41a1,1,0,0,1,0,1.33.93.93,0,0,1-1.32,0,1,1,0,0,1,0-1.34A.93.93,0,0,1,39,209.41Z" transform="translate(-21.08 -106.32)"/><path class="cls-3" d="M41.74,206.87a.93.93,0,0,1-.08,1.31,1,1,0,0,1-1.33-.07.94.94,0,1,1,1.41-1.24Z" transform="translate(-21.08 -106.32)"/><path class="cls-3" d="M44.67,204.49a1,1,0,0,1-.17,1.33,1,1,0,0,1-1.31-.16.94.94,0,1,1,1.48-1.17Z" transform="translate(-21.08 -106.32)"/><path class="cls-3" d="M47.75,202.34a.94.94,0,0,1-1.55,1.06,1,1,0,0,1,.24-1.33A.94.94,0,0,1,47.75,202.34Z" transform="translate(-21.08 -106.32)"/><path class="cls-3" d="M51,200.38a1,1,0,0,1-.34,1.28,1,1,0,0,1-1.29-.34.92.92,0,0,1,.34-1.28A.93.93,0,0,1,51,200.38Z" transform="translate(-21.08 -106.32)"/><path class="cls-3" d="M54.3,198.63a1,1,0,0,1-.42,1.26.94.94,0,1,1-.84-1.68A.92.92,0,0,1,54.3,198.63Z" transform="translate(-21.08 -106.32)"/><path class="cls-3" d="M57.76,197.13a.94.94,0,1,1-1.24-.52A1,1,0,0,1,57.76,197.13Z" transform="translate(-21.08 -106.32)"/><path class="cls-3" d="M61.3,195.84a.95.95,0,0,1-1.79.61.92.92,0,0,1,.59-1.19A.94.94,0,0,1,61.3,195.84Z" transform="translate(-21.08 -106.32)"/><path class="cls-3" d="M64.91,194.79a1,1,0,0,1-.66,1.16.94.94,0,0,1-.49-1.82A.92.92,0,0,1,64.91,194.79Z" transform="translate(-21.08 -106.32)"/><path class="cls-3" d="M68.59,194a.92.92,0,0,1-.74,1.08.94.94,0,0,1-.37-1.84A1,1,0,0,1,68.59,194Z" transform="translate(-21.08 -106.32)"/><path class="cls-3" d="M72.32,193.45a.94.94,0,0,1-1.87.24.91.91,0,0,1,.81-1.05A.93.93,0,0,1,72.32,193.45Z" transform="translate(-21.08 -106.32)"/><path class="cls-3" d="M76.07,193.13a1,1,0,0,1-.88,1,.93.93,0,0,1-1-.86.94.94,0,0,1,.88-1A.92.92,0,0,1,76.07,193.13Z" transform="translate(-21.08 -106.32)"/><path class="cls-3" d="M83.59,193.27a.93.93,0,0,1-1,.86,1,1,0,0,1-.87-1,.92.92,0,0,1,1-.87A.93.93,0,0,1,83.59,193.27Z" transform="translate(-21.08 -106.32)"/><path class="cls-3" d="M87.34,193.69a1,1,0,0,1-1.06.81,1,1,0,0,1-.81-1.05.94.94,0,0,1,1.87.24Z" transform="translate(-21.08 -106.32)"/><path class="cls-3" d="M91,194.37a1,1,0,0,1-1.11.72.92.92,0,0,1-.74-1.08,1,1,0,0,1,1.11-.76A.94.94,0,0,1,91,194.37Z" transform="translate(-21.08 -106.32)"/><path class="cls-3" d="M94.69,195.3a1,1,0,0,1-1.15.65,1,1,0,0,1-.67-1.16.93.93,0,0,1,1.16-.66A1,1,0,0,1,94.69,195.3Z" transform="translate(-21.08 -106.32)"/><path class="cls-3" d="M98.27,196.45a1,1,0,0,1-1.2.58.94.94,0,0,1-.58-1.19.93.93,0,0,1,1.19-.58A.92.92,0,0,1,98.27,196.45Z" transform="translate(-21.08 -106.32)"/><path class="cls-3" d="M101.76,197.85a.94.94,0,0,1-1.73-.72,1,1,0,0,1,1.24-.52A.93.93,0,0,1,101.76,197.85Z" transform="translate(-21.08 -106.32)"/><path class="cls-3" d="M105.16,199.48a.94.94,0,0,1-1.26.41,1,1,0,0,1-.42-1.26.93.93,0,0,1,1.26-.42A.94.94,0,0,1,105.16,199.48Z" transform="translate(-21.08 -106.32)"/><path class="cls-3" d="M108.45,201.32a1,1,0,0,1-1.3.34,1,1,0,0,1-.34-1.28.94.94,0,0,1,1.29-.34A.92.92,0,0,1,108.45,201.32Z" transform="translate(-21.08 -106.32)"/><path class="cls-3" d="M111.59,203.4a.94.94,0,1,1-.24-1.33A1,1,0,0,1,111.59,203.4Z" transform="translate(-21.08 -106.32)"/><path class="cls-3" d="M114.6,205.66a.94.94,0,1,1-1.48-1.17.93.93,0,0,1,1.31-.16A.94.94,0,0,1,114.6,205.66Z" transform="translate(-21.08 -106.32)"/><path class="cls-3" d="M117.45,208.11a1,1,0,0,1-1.32.07.92.92,0,0,1-.09-1.31.94.94,0,0,1,1.34-.09A.93.93,0,0,1,117.45,208.11Z" transform="translate(-21.08 -106.32)"/><path class="cls-3" d="M120.13,210.76a.93.93,0,0,1-1.32,0,1,1,0,0,1,0-1.33.94.94,0,1,1,1.32,1.35Z" transform="translate(-21.08 -106.32)"/><path class="cls-3" d="M122.64,213.56a.94.94,0,1,1-1.23-1.42.94.94,0,1,1,1.23,1.42Z" transform="translate(-21.08 -106.32)"/><path class="cls-3" d="M125,216.54a.94.94,0,0,1-1.3-.2.92.92,0,0,1,.17-1.3.94.94,0,1,1,1.13,1.5Z" transform="translate(-21.08 -106.32)"/><path class="cls-3" d="M127.06,219.65a.93.93,0,0,1-1.29-.27,1,1,0,0,1,.27-1.31.94.94,0,1,1,1,1.58Z" transform="translate(-21.08 -106.32)"/><path class="cls-3" d="M129,222.9a1,1,0,0,1-1.29-.36,1,1,0,0,1,.35-1.28.94.94,0,0,1,1.29.36A.92.92,0,0,1,129,222.9Z" transform="translate(-21.08 -106.32)"/><path class="cls-3" d="M130.65,226.27a.94.94,0,1,1,.46-1.26A1,1,0,0,1,130.65,226.27Z" transform="translate(-21.08 -106.32)"/><path class="cls-3" d="M132.11,229.74a.94.94,0,1,1-.69-1.75.92.92,0,0,1,1.22.53A.94.94,0,0,1,132.11,229.74Z" transform="translate(-21.08 -106.32)"/><path class="cls-3" d="M133.34,233.3a1,1,0,0,1-1.19-.61,1,1,0,0,1,.6-1.18.94.94,0,0,1,1.19.6A.92.92,0,0,1,133.34,233.3Z" transform="translate(-21.08 -106.32)"/><path class="cls-3" d="M134.31,236.94a.93.93,0,0,1-1.12-.69.94.94,0,1,1,1.82-.46A1,1,0,0,1,134.31,236.94Z" transform="translate(-21.08 -106.32)"/><path class="cls-3" d="M135.05,240.63a1,1,0,0,1-1.09-.76,1,1,0,0,1,.76-1.1.93.93,0,0,1,1.09.76A1,1,0,0,1,135.05,240.63Z" transform="translate(-21.08 -106.32)"/><path class="cls-3" d="M135.55,244.36a1,1,0,0,1-1-.83.94.94,0,1,1,1.87-.21A.92.92,0,0,1,135.55,244.36Z" transform="translate(-21.08 -106.32)"/><path class="cls-3" d="M135.78,248.12a.94.94,0,0,1-1-.9.92.92,0,0,1,.87-1,.94.94,0,0,1,1,.89A1,1,0,0,1,135.78,248.12Z" transform="translate(-21.08 -106.32)"/><path class="cls-3" d="M249.58,253.76a.94.94,0,0,1,.09-1.88,1,1,0,0,1,.91,1A.94.94,0,0,1,249.58,253.76Z" transform="translate(-21.08 -106.32)"/><path class="cls-3" d="M249.21,257.51a1,1,0,0,1-.82-1,1,1,0,0,1,1-.83.92.92,0,0,1,.83,1A.94.94,0,0,1,249.21,257.51Z" transform="translate(-21.08 -106.32)"/><path class="cls-3" d="M248.6,261.23a1,1,0,0,1-.76-1.1,1,1,0,0,1,1.09-.76.94.94,0,0,1,.76,1.1A.93.93,0,0,1,248.6,261.23Z" transform="translate(-21.08 -106.32)"/><path class="cls-3" d="M247.73,264.89a.94.94,0,1,1,1.16-.68A.94.94,0,0,1,247.73,264.89Z" transform="translate(-21.08 -106.32)"/><path class="cls-3" d="M246.63,268.49a.93.93,0,0,1-.59-1.18,1,1,0,0,1,1.18-.61.92.92,0,0,1,.6,1.19A.94.94,0,0,1,246.63,268.49Z" transform="translate(-21.08 -106.32)"/><path class="cls-3" d="M245.3,272a1,1,0,0,1-.53-1.22,1,1,0,0,1,1.22-.53.94.94,0,1,1-.69,1.75Z" transform="translate(-21.08 -106.32)"/><path class="cls-3" d="M243.72,275.43a.94.94,0,0,1,.81-1.7.94.94,0,1,1-.81,1.7Z" transform="translate(-21.08 -106.32)"/><path class="cls-3" d="M241.92,278.74a1,1,0,0,1-.35-1.28,1,1,0,0,1,1.29-.36.92.92,0,0,1,.35,1.28A.94.94,0,0,1,241.92,278.74Z" transform="translate(-21.08 -106.32)"/><path class="cls-3" d="M239.92,281.93a1,1,0,0,1-.27-1.31.94.94,0,0,1,1.57,1A.92.92,0,0,1,239.92,281.93Z" transform="translate(-21.08 -106.32)"/><path class="cls-3" d="M237.7,285a.92.92,0,0,1-.17-1.3.94.94,0,1,1,.17,1.3Z" transform="translate(-21.08 -106.32)"/><path class="cls-3" d="M235.29,287.86a.94.94,0,0,1,1.23-1.42.92.92,0,0,1,.1,1.32A.93.93,0,0,1,235.29,287.86Z" transform="translate(-21.08 -106.32)"/><path class="cls-3" d="M232.7,290.59a1,1,0,0,1,0-1.33.94.94,0,1,1,1.34,1.32A.92.92,0,0,1,232.7,290.59Z" transform="translate(-21.08 -106.32)"/><path class="cls-3" d="M229.92,293.13a.92.92,0,0,1,.09-1.31,1,1,0,0,1,1.32.07.92.92,0,0,1-.07,1.33A.94.94,0,0,1,229.92,293.13Z" transform="translate(-21.08 -106.32)"/><path class="cls-3" d="M227,295.51a.94.94,0,1,1,1.48-1.17.94.94,0,1,1-1.48,1.17Z" transform="translate(-21.08 -106.32)"/><path class="cls-3" d="M223.91,297.66a.94.94,0,0,1,1.56-1.06,1,1,0,0,1-.24,1.33A1,1,0,0,1,223.91,297.66Z" transform="translate(-21.08 -106.32)"/><path class="cls-3" d="M220.7,299.62a.93.93,0,0,1,.34-1.28,1,1,0,0,1,1.29.34A.92.92,0,0,1,222,300,.93.93,0,0,1,220.7,299.62Z" transform="translate(-21.08 -106.32)"/><path class="cls-3" d="M217.36,301.37a1,1,0,0,1,.42-1.26.94.94,0,0,1,1.26.41.94.94,0,0,1-.42,1.27A.93.93,0,0,1,217.36,301.37Z" transform="translate(-21.08 -106.32)"/><path class="cls-3" d="M213.91,302.87a.93.93,0,0,1,.51-1.21.94.94,0,1,1-.51,1.21Z" transform="translate(-21.08 -106.32)"/><path class="cls-3" d="M210.37,304.16a.94.94,0,0,1,1.78-.61.92.92,0,0,1-.58,1.19A.93.93,0,0,1,210.37,304.16Z" transform="translate(-21.08 -106.32)"/><path class="cls-3" d="M206.75,305.21a1,1,0,0,1,.67-1.16.94.94,0,0,1,.49,1.82A.93.93,0,0,1,206.75,305.21Z" transform="translate(-21.08 -106.32)"/><path class="cls-3" d="M203.07,306a.92.92,0,0,1,.74-1.08.94.94,0,0,1,1.11.72.93.93,0,0,1-.74,1.12A1,1,0,0,1,203.07,306Z" transform="translate(-21.08 -106.32)"/><path class="cls-3" d="M199.35,306.55a1,1,0,0,1,.81-1.05,1,1,0,0,1,1.06.81.94.94,0,0,1-1.87.24Z" transform="translate(-21.08 -106.32)"/><path class="cls-3" d="M195.6,306.87a1,1,0,0,1,.87-1,.94.94,0,1,1,.13,1.87A.92.92,0,0,1,195.6,306.87Z" transform="translate(-21.08 -106.32)"/><path class="cls-3" d="M188.07,306.73a.94.94,0,0,1,1-.86,1,1,0,0,1,.88,1,.92.92,0,0,1-1,.87A.94.94,0,0,1,188.07,306.73Z" transform="translate(-21.08 -106.32)"/><path class="cls-3" d="M184.33,306.31a.94.94,0,0,1,1.87.24.93.93,0,0,1-1.06.81A.92.92,0,0,1,184.33,306.31Z" transform="translate(-21.08 -106.32)"/><path class="cls-3" d="M180.63,305.63a.94.94,0,0,1,1.1-.72.92.92,0,0,1,.74,1.08,1,1,0,0,1-1.11.76A.93.93,0,0,1,180.63,305.63Z" transform="translate(-21.08 -106.32)"/><path class="cls-3" d="M177,304.7a.94.94,0,0,1,1.15-.65,1,1,0,0,1,.66,1.16.92.92,0,0,1-1.15.66A1,1,0,0,1,177,304.7Z" transform="translate(-21.08 -106.32)"/><path class="cls-3" d="M173.39,303.55a1,1,0,0,1,1.2-.58,1,1,0,0,1,.59,1.19.95.95,0,0,1-1.79-.61Z" transform="translate(-21.08 -106.32)"/><path class="cls-3" d="M169.9,302.15a.94.94,0,0,1,1.74.72,1,1,0,0,1-1.24.52A.93.93,0,0,1,169.9,302.15Z" transform="translate(-21.08 -106.32)"/><path class="cls-3" d="M166.51,300.52a.93.93,0,0,1,1.25-.41,1,1,0,0,1,.42,1.26.92.92,0,0,1-1.26.42A.94.94,0,0,1,166.51,300.52Z" transform="translate(-21.08 -106.32)"/><path class="cls-3" d="M163.22,298.68a1,1,0,0,1,1.29-.34,1,1,0,0,1,.34,1.28.93.93,0,0,1-1.29.34A.92.92,0,0,1,163.22,298.68Z" transform="translate(-21.08 -106.32)"/><path class="cls-3" d="M160.08,296.6a.94.94,0,1,1,.24,1.33A1,1,0,0,1,160.08,296.6Z" transform="translate(-21.08 -106.32)"/><path class="cls-3" d="M157.07,294.34a.94.94,0,1,1,1.48,1.17.94.94,0,1,1-1.48-1.17Z" transform="translate(-21.08 -106.32)"/><path class="cls-3" d="M154.21,291.89a1,1,0,0,1,1.33-.07.94.94,0,0,1-1.25,1.4A.92.92,0,0,1,154.21,291.89Z" transform="translate(-21.08 -106.32)"/><path class="cls-3" d="M151.54,289.24a.92.92,0,0,1,1.31,0,1,1,0,0,1,0,1.33.92.92,0,0,1-1.33,0A.94.94,0,0,1,151.54,289.24Z" transform="translate(-21.08 -106.32)"/><path class="cls-3" d="M149,286.44a.94.94,0,1,1,1.24,1.42.93.93,0,0,1-1.33-.1A.92.92,0,0,1,149,286.44Z" transform="translate(-21.08 -106.32)"/><path class="cls-3" d="M146.71,283.46a1,1,0,0,1,1.31.2.94.94,0,0,1-1.5,1.13A.94.94,0,0,1,146.71,283.46Z" transform="translate(-21.08 -106.32)"/><path class="cls-3" d="M144.6,280.35a.94.94,0,0,1,1.3.27,1,1,0,0,1-.28,1.31.92.92,0,0,1-1.3-.28A.94.94,0,0,1,144.6,280.35Z" transform="translate(-21.08 -106.32)"/><path class="cls-3" d="M142.69,277.1a1,1,0,0,1,1.28.36.94.94,0,1,1-1.63.92A.92.92,0,0,1,142.69,277.1Z" transform="translate(-21.08 -106.32)"/><path class="cls-3" d="M141,273.73a.93.93,0,0,1,1.23.45.94.94,0,1,1-1.23-.45Z" transform="translate(-21.08 -106.32)"/><path class="cls-3" d="M139.56,270.26a.94.94,0,0,1,1.21.53,1,1,0,0,1-.52,1.22.94.94,0,0,1-.69-1.75Z" transform="translate(-21.08 -106.32)"/><path class="cls-3" d="M138.33,266.7a1,1,0,0,1,1.18.61.94.94,0,1,1-1.79.58A.92.92,0,0,1,138.33,266.7Z" transform="translate(-21.08 -106.32)"/><path class="cls-3" d="M137.36,263.06a.94.94,0,0,1,1.12.69,1,1,0,0,1-.67,1.14.94.94,0,0,1-1.15-.68A1,1,0,0,1,137.36,263.06Z" transform="translate(-21.08 -106.32)"/><path class="cls-3" d="M136.61,259.37a1,1,0,0,1,1.09.76,1,1,0,0,1-.76,1.1.94.94,0,0,1-.33-1.86Z" transform="translate(-21.08 -106.32)"/><path class="cls-3" d="M136.11,255.64a1,1,0,0,1,1,.83.94.94,0,1,1-1.87.21A.92.92,0,0,1,136.11,255.64Z" transform="translate(-21.08 -106.32)"/><path class="cls-3" d="M135.88,251.88a.94.94,0,1,1-.91,1A1,1,0,0,1,135.88,251.88Z" transform="translate(-21.08 -106.32)"/><path class="cls-3" d="M249.85,246.24a.94.94,0,0,1-.09,1.88.94.94,0,1,1,.09-1.88Z" transform="translate(-21.08 -106.32)"/><path class="cls-3" d="M250.22,242.49a1,1,0,0,1,.82,1,1,1,0,0,1-1,.83.92.92,0,0,1-.82-1A.94.94,0,0,1,250.22,242.49Z" transform="translate(-21.08 -106.32)"/><path class="cls-3" d="M250.83,238.77a1,1,0,0,1,.76,1.1,1,1,0,0,1-1.09.76.94.94,0,0,1,.33-1.86Z" transform="translate(-21.08 -106.32)"/><path class="cls-3" d="M251.69,235.11a1,1,0,0,1,.67,1.14.93.93,0,0,1-1.12.69,1,1,0,0,1-.7-1.15A.94.94,0,0,1,251.69,235.11Z" transform="translate(-21.08 -106.32)"/><path class="cls-3" d="M252.8,231.51a.93.93,0,0,1,.59,1.18,1,1,0,0,1-1.18.61.93.93,0,0,1-.61-1.19A1,1,0,0,1,252.8,231.51Z" transform="translate(-21.08 -106.32)"/><path class="cls-3" d="M254.13,228a.94.94,0,1,1-.69,1.75.94.94,0,0,1,.69-1.75Z" transform="translate(-21.08 -106.32)"/><path class="cls-3" d="M255.71,224.57a.94.94,0,1,1-1.27.44A1,1,0,0,1,255.71,224.57Z" transform="translate(-21.08 -106.32)"/><path class="cls-3" d="M257.5,221.26a.94.94,0,0,1,.35,1.28,1,1,0,0,1-1.28.36.92.92,0,0,1-.35-1.28A.93.93,0,0,1,257.5,221.26Z" transform="translate(-21.08 -106.32)"/><path class="cls-3" d="M259.5,218.07a1,1,0,0,1,.28,1.31.94.94,0,0,1-1.3.27.92.92,0,0,1-.27-1.3A.91.91,0,0,1,259.5,218.07Z" transform="translate(-21.08 -106.32)"/><path class="cls-3" d="M261.73,215a.93.93,0,0,1,.17,1.3.94.94,0,1,1-.17-1.3Z" transform="translate(-21.08 -106.32)"/><path class="cls-3" d="M264.14,212.14a.94.94,0,1,1-1.24,1.42.94.94,0,0,1,1.24-1.42Z" transform="translate(-21.08 -106.32)"/><path class="cls-3" d="M266.73,209.41a1,1,0,0,1,0,1.33.94.94,0,1,1-1.34-1.32A.92.92,0,0,1,266.73,209.41Z" transform="translate(-21.08 -106.32)"/><path class="cls-3" d="M269.51,206.87a.93.93,0,0,1-.09,1.31,1,1,0,0,1-1.32-.07.91.91,0,0,1,.07-1.33A.94.94,0,0,1,269.51,206.87Z" transform="translate(-21.08 -106.32)"/><path class="cls-3" d="M272.43,204.49a.94.94,0,1,1-1.48,1.17.94.94,0,1,1,1.48-1.17Z" transform="translate(-21.08 -106.32)"/><path class="cls-3" d="M275.52,202.34A.94.94,0,0,1,274,203.4a1,1,0,0,1,.24-1.33A1,1,0,0,1,275.52,202.34Z" transform="translate(-21.08 -106.32)"/><path class="cls-3" d="M278.73,200.38a.94.94,0,0,1-.34,1.28,1,1,0,0,1-1.29-.34.92.92,0,0,1,.34-1.28A.93.93,0,0,1,278.73,200.38Z" transform="translate(-21.08 -106.32)"/><path class="cls-3" d="M282.07,198.63a1,1,0,0,1-.42,1.26.94.94,0,1,1-.84-1.68A.93.93,0,0,1,282.07,198.63Z" transform="translate(-21.08 -106.32)"/><path class="cls-3" d="M285.52,197.13a.94.94,0,1,1-1.24-.52A1,1,0,0,1,285.52,197.13Z" transform="translate(-21.08 -106.32)"/><path class="cls-3" d="M289.06,195.84a1,1,0,0,1-.59,1.19,1,1,0,0,1-1.2-.58.95.95,0,0,1,1.79-.61Z" transform="translate(-21.08 -106.32)"/><path class="cls-3" d="M292.67,194.79A1,1,0,0,1,292,196a.94.94,0,0,1-.49-1.82A.92.92,0,0,1,292.67,194.79Z" transform="translate(-21.08 -106.32)"/><path class="cls-3" d="M296.36,194a.92.92,0,0,1-.75,1.08.94.94,0,0,1-.37-1.84A1,1,0,0,1,296.36,194Z" transform="translate(-21.08 -106.32)"/><path class="cls-3" d="M300.08,193.45a.94.94,0,0,1-1.87.24.92.92,0,0,1,.81-1.05A.93.93,0,0,1,300.08,193.45Z" transform="translate(-21.08 -106.32)"/><path class="cls-3" d="M303.83,193.13a1,1,0,0,1-.88,1,.94.94,0,1,1-.12-1.87A.92.92,0,0,1,303.83,193.13Z" transform="translate(-21.08 -106.32)"/><path class="cls-3" d="M307.6,193.08a.95.95,0,0,1-1.89,0,.95.95,0,1,1,1.89,0Z" transform="translate(-21.08 -106.32)"/><path class="cls-3" d="M311.36,193.27a.94.94,0,0,1-1,.86,1,1,0,0,1-.88-1,.92.92,0,0,1,1-.87A.94.94,0,0,1,311.36,193.27Z" transform="translate(-21.08 -106.32)"/><path class="cls-3" d="M315.1,193.69a.94.94,0,0,1-1.87-.24.93.93,0,0,1,1.06-.81A.92.92,0,0,1,315.1,193.69Z" transform="translate(-21.08 -106.32)"/><path class="cls-3" d="M318.8,194.37a.94.94,0,0,1-1.1.72A.92.92,0,0,1,317,194a1,1,0,0,1,1.11-.76A.93.93,0,0,1,318.8,194.37Z" transform="translate(-21.08 -106.32)"/><path class="cls-3" d="M322.45,195.3a1,1,0,0,1-1.15.65,1,1,0,0,1-.66-1.16.92.92,0,0,1,1.15-.66A1,1,0,0,1,322.45,195.3Z" transform="translate(-21.08 -106.32)"/><path class="cls-3" d="M326,196.45a.94.94,0,1,1-.58-1.19A.92.92,0,0,1,326,196.45Z" transform="translate(-21.08 -106.32)"/><path class="cls-3" d="M329.53,197.85a.94.94,0,0,1-1.74-.72,1,1,0,0,1,1.24-.52A.93.93,0,0,1,329.53,197.85Z" transform="translate(-21.08 -106.32)"/><path class="cls-3" d="M332.92,199.48a.94.94,0,0,1-1.26.41,1,1,0,0,1-.42-1.26.93.93,0,0,1,1.26-.42A.94.94,0,0,1,332.92,199.48Z" transform="translate(-21.08 -106.32)"/><path class="cls-3" d="M336.21,201.32a1,1,0,0,1-1.29.34.94.94,0,1,1,.95-1.62A.92.92,0,0,1,336.21,201.32Z" transform="translate(-21.08 -106.32)"/><path class="cls-3" d="M339.35,203.4a.94.94,0,0,1-1.56-1.06,1,1,0,0,1,1.32-.27A1,1,0,0,1,339.35,203.4Z" transform="translate(-21.08 -106.32)"/><path class="cls-3" d="M342.36,205.66a.94.94,0,1,1-1.48-1.17.94.94,0,1,1,1.48,1.17Z" transform="translate(-21.08 -106.32)"/><path class="cls-3" d="M345.21,208.11a1,1,0,0,1-1.32.07.94.94,0,1,1,1.25-1.4A.91.91,0,0,1,345.21,208.11Z" transform="translate(-21.08 -106.32)"/><path class="cls-3" d="M347.89,210.76a.93.93,0,0,1-1.32,0,1,1,0,0,1,0-1.33.92.92,0,0,1,1.33,0A.94.94,0,0,1,347.89,210.76Z" transform="translate(-21.08 -106.32)"/><path class="cls-3" d="M350.41,213.56a.94.94,0,0,1-1.24-1.42.94.94,0,0,1,1.24,1.42Z" transform="translate(-21.08 -106.32)"/><path class="cls-3" d="M352.71,216.54a.94.94,0,0,1-1.3-.2.94.94,0,0,1,1.5-1.13A.94.94,0,0,1,352.71,216.54Z" transform="translate(-21.08 -106.32)"/><path class="cls-3" d="M354.83,219.65a.94.94,0,0,1-1.3-.27,1,1,0,0,1,.28-1.31.91.91,0,0,1,1.29.28A.92.92,0,0,1,354.83,219.65Z" transform="translate(-21.08 -106.32)"/><path class="cls-3" d="M356.74,222.9a1,1,0,0,1-1.28-.36.94.94,0,1,1,1.63-.92A.92.92,0,0,1,356.74,222.9Z" transform="translate(-21.08 -106.32)"/><path class="cls-3" d="M358.41,226.27a.94.94,0,0,1-.81-1.7.94.94,0,1,1,.81,1.7Z" transform="translate(-21.08 -106.32)"/><path class="cls-3" d="M359.87,229.74a.94.94,0,1,1-.69-1.75.94.94,0,1,1,.69,1.75Z" transform="translate(-21.08 -106.32)"/><path class="cls-3" d="M361.1,233.3a1,1,0,0,1-1.18-.61.94.94,0,1,1,1.78-.58A.92.92,0,0,1,361.1,233.3Z" transform="translate(-21.08 -106.32)"/><path class="cls-3" d="M362.07,236.94a.94.94,0,1,1,.7-1.15A1,1,0,0,1,362.07,236.94Z" transform="translate(-21.08 -106.32)"/><path class="cls-3" d="M362.81,240.63a1,1,0,0,1-1.09-.76,1,1,0,0,1,.76-1.1.94.94,0,0,1,.33,1.86Z" transform="translate(-21.08 -106.32)"/><path class="cls-3" d="M363.32,244.36a1,1,0,0,1-1.05-.83.94.94,0,1,1,1.87-.21A.92.92,0,0,1,363.32,244.36Z" transform="translate(-21.08 -106.32)"/><path class="cls-3" d="M363.55,248.12a.94.94,0,0,1-.09-1.88.94.94,0,1,1,.09,1.88Z" transform="translate(-21.08 -106.32)"/><path class="cls-3" d="M477.34,253.76a.94.94,0,0,1,.09-1.88,1,1,0,0,1,.91,1A.93.93,0,0,1,477.34,253.76Z" transform="translate(-21.08 -106.32)"/><path class="cls-3" d="M477,257.51a1,1,0,0,1-.82-1,1,1,0,0,1,1.05-.83.92.92,0,0,1,.82,1A.94.94,0,0,1,477,257.51Z" transform="translate(-21.08 -106.32)"/><path class="cls-3" d="M476.37,261.23a1,1,0,0,1-.76-1.1,1,1,0,0,1,1.09-.76.93.93,0,0,1,.75,1.1A.92.92,0,0,1,476.37,261.23Z" transform="translate(-21.08 -106.32)"/><path class="cls-3" d="M475.5,264.89a1,1,0,0,1-.67-1.14.94.94,0,0,1,1.12-.69,1,1,0,0,1,.7,1.15A.94.94,0,0,1,475.5,264.89Z" transform="translate(-21.08 -106.32)"/><path class="cls-3" d="M474.39,268.49a.94.94,0,0,1-.59-1.18,1,1,0,0,1,1.18-.61.92.92,0,0,1,.61,1.19A1,1,0,0,1,474.39,268.49Z" transform="translate(-21.08 -106.32)"/><path class="cls-3" d="M473.06,272a.94.94,0,0,1,.69-1.75.94.94,0,0,1-.69,1.75Z" transform="translate(-21.08 -106.32)"/><path class="cls-3" d="M471.48,275.43a1,1,0,0,1-.42-1.25.93.93,0,0,1,1.23-.45.94.94,0,1,1-.81,1.7Z" transform="translate(-21.08 -106.32)"/><path class="cls-3" d="M469.69,278.74a.94.94,0,0,1-.35-1.28,1,1,0,0,1,1.28-.36.92.92,0,0,1,.35,1.28A.93.93,0,0,1,469.69,278.74Z" transform="translate(-21.08 -106.32)"/><path class="cls-3" d="M467.69,281.93a1,1,0,0,1-.28-1.31.94.94,0,0,1,1.58,1A.92.92,0,0,1,467.69,281.93Z" transform="translate(-21.08 -106.32)"/><path class="cls-3" d="M465.46,285a.93.93,0,0,1-.17-1.3.94.94,0,1,1,1.5,1.13A.93.93,0,0,1,465.46,285Z" transform="translate(-21.08 -106.32)"/><path class="cls-3" d="M463.05,287.86a.94.94,0,0,1,1.24-1.42.92.92,0,0,1,.09,1.32A.93.93,0,0,1,463.05,287.86Z" transform="translate(-21.08 -106.32)"/><path class="cls-3" d="M460.46,290.59a1,1,0,0,1,0-1.33.94.94,0,1,1,1.34,1.32A.92.92,0,0,1,460.46,290.59Z" transform="translate(-21.08 -106.32)"/><path class="cls-3" d="M457.68,293.13a.94.94,0,0,1,.09-1.31,1,1,0,0,1,1.33.07.92.92,0,0,1-.08,1.33A.94.94,0,0,1,457.68,293.13Z" transform="translate(-21.08 -106.32)"/><path class="cls-3" d="M454.76,295.51a.94.94,0,1,1,1.48-1.17.94.94,0,1,1-1.48,1.17Z" transform="translate(-21.08 -106.32)"/><path class="cls-3" d="M451.68,297.66a.94.94,0,0,1,1.55-1.06,1,1,0,0,1-.24,1.33A.94.94,0,0,1,451.68,297.66Z" transform="translate(-21.08 -106.32)"/><path class="cls-3" d="M448.46,299.62a.94.94,0,0,1,.34-1.28,1,1,0,0,1,1.29.34.92.92,0,0,1-.34,1.28A.93.93,0,0,1,448.46,299.62Z" transform="translate(-21.08 -106.32)"/><path class="cls-3" d="M445.12,301.37a1,1,0,0,1,.42-1.26.94.94,0,1,1-.42,1.26Z" transform="translate(-21.08 -106.32)"/><path class="cls-3" d="M441.67,302.87a.94.94,0,1,1,1.24.52A1,1,0,0,1,441.67,302.87Z" transform="translate(-21.08 -106.32)"/><path class="cls-3" d="M438.13,304.16a1,1,0,0,1,.59-1.19,1,1,0,0,1,1.2.58.95.95,0,0,1-1.79.61Z" transform="translate(-21.08 -106.32)"/><path class="cls-3" d="M434.52,305.21a1,1,0,0,1,.66-1.16.94.94,0,0,1,.49,1.82A.92.92,0,0,1,434.52,305.21Z" transform="translate(-21.08 -106.32)"/><path class="cls-3" d="M430.84,306a.92.92,0,0,1,.74-1.08.94.94,0,0,1,.37,1.84A1,1,0,0,1,430.84,306Z" transform="translate(-21.08 -106.32)"/><path class="cls-3" d="M427.11,306.55a.94.94,0,0,1,1.87-.24.92.92,0,0,1-.81,1.05A.93.93,0,0,1,427.11,306.55Z" transform="translate(-21.08 -106.32)"/><path class="cls-3" d="M423.36,306.87a1,1,0,0,1,.88-1,.94.94,0,1,1,.12,1.87A.92.92,0,0,1,423.36,306.87Z" transform="translate(-21.08 -106.32)"/><path class="cls-3" d="M419.6,306.92a.94.94,0,0,1,1.88,0,.94.94,0,1,1-1.88,0Z" transform="translate(-21.08 -106.32)"/><path class="cls-3" d="M415.83,306.73a.94.94,0,0,1,1-.86,1,1,0,0,1,.88,1,.92.92,0,0,1-1,.87A.94.94,0,0,1,415.83,306.73Z" transform="translate(-21.08 -106.32)"/><path class="cls-3" d="M412.09,306.31a1,1,0,0,1,1.06-.81,1,1,0,0,1,.81,1.05.94.94,0,0,1-1.87-.24Z" transform="translate(-21.08 -106.32)"/><path class="cls-3" d="M408.39,305.63a.94.94,0,0,1,1.1-.72.92.92,0,0,1,.75,1.08,1,1,0,0,1-1.11.76A.93.93,0,0,1,408.39,305.63Z" transform="translate(-21.08 -106.32)"/><path class="cls-3" d="M404.74,304.7a1,1,0,0,1,1.15-.65,1,1,0,0,1,.67,1.16.93.93,0,0,1-1.16.66A1,1,0,0,1,404.74,304.7Z" transform="translate(-21.08 -106.32)"/><path class="cls-3" d="M401.16,303.55a.94.94,0,0,1,1.78.61.93.93,0,0,1-1.2.58A.92.92,0,0,1,401.16,303.55Z" transform="translate(-21.08 -106.32)"/><path class="cls-3" d="M397.66,302.15a.94.94,0,0,1,1.23-.49.93.93,0,0,1,.51,1.21.94.94,0,1,1-1.74-.72Z" transform="translate(-21.08 -106.32)"/><path class="cls-3" d="M394.27,300.52a.94.94,0,0,1,1.26-.41,1,1,0,0,1,.42,1.26.93.93,0,0,1-1.26.42A.94.94,0,0,1,394.27,300.52Z" transform="translate(-21.08 -106.32)"/><path class="cls-3" d="M391,298.68a1,1,0,0,1,1.29-.34.94.94,0,1,1-.95,1.62A.92.92,0,0,1,391,298.68Z" transform="translate(-21.08 -106.32)"/><path class="cls-3" d="M387.84,296.6a.94.94,0,1,1,.24,1.33A1,1,0,0,1,387.84,296.6Z" transform="translate(-21.08 -106.32)"/><path class="cls-3" d="M384.83,294.34a.94.94,0,1,1,1.48,1.17.94.94,0,1,1-1.48-1.17Z" transform="translate(-21.08 -106.32)"/><path class="cls-3" d="M382,291.89a1,1,0,0,1,1.32-.07.92.92,0,0,1,.09,1.31.94.94,0,0,1-1.34.09A.92.92,0,0,1,382,291.89Z" transform="translate(-21.08 -106.32)"/><path class="cls-3" d="M379.3,289.24a.93.93,0,0,1,1.32,0,1,1,0,0,1,0,1.33.92.92,0,0,1-1.33,0A.94.94,0,0,1,379.3,289.24Z" transform="translate(-21.08 -106.32)"/><path class="cls-3" d="M376.79,286.44a.94.94,0,0,1,1.23,1.42.93.93,0,0,1-1.33-.1A.92.92,0,0,1,376.79,286.44Z" transform="translate(-21.08 -106.32)"/><path class="cls-3" d="M374.48,283.46a.94.94,0,0,1,1.3.2.92.92,0,0,1-.17,1.3.94.94,0,1,1-1.13-1.5Z" transform="translate(-21.08 -106.32)"/><path class="cls-3" d="M372.37,280.35a.93.93,0,0,1,1.29.27,1,1,0,0,1-.27,1.31.94.94,0,0,1-1-1.58Z" transform="translate(-21.08 -106.32)"/><path class="cls-3" d="M370.45,277.1a1,1,0,0,1,1.29.36,1,1,0,0,1-.35,1.28.94.94,0,0,1-1.29-.36A.92.92,0,0,1,370.45,277.1Z" transform="translate(-21.08 -106.32)"/><path class="cls-3" d="M368.78,273.73a.94.94,0,0,1,.81,1.7.94.94,0,1,1-.81-1.7Z" transform="translate(-21.08 -106.32)"/><path class="cls-3" d="M367.32,270.26a1,1,0,0,1,1.22.53A1,1,0,0,1,368,272a.94.94,0,1,1-.69-1.75Z" transform="translate(-21.08 -106.32)"/><path class="cls-3" d="M366.09,266.7a1,1,0,0,1,1.18.61.94.94,0,1,1-1.78.58A.92.92,0,0,1,366.09,266.7Z" transform="translate(-21.08 -106.32)"/><path class="cls-3" d="M365.12,263.06a.94.94,0,1,1-.7,1.15A1,1,0,0,1,365.12,263.06Z" transform="translate(-21.08 -106.32)"/><path class="cls-3" d="M364.38,259.37a1,1,0,0,1,1.09.76,1,1,0,0,1-.76,1.1.94.94,0,0,1-.33-1.86Z" transform="translate(-21.08 -106.32)"/><path class="cls-3" d="M363.88,255.64a1,1,0,0,1,1,.83.94.94,0,1,1-1.87.21A.92.92,0,0,1,363.88,255.64Z" transform="translate(-21.08 -106.32)"/><path class="cls-3" d="M363.64,251.88a.94.94,0,1,1-.91,1A1,1,0,0,1,363.64,251.88Z" transform="translate(-21.08 -106.32)"/><path class="cls-3" d="M705.1,253.76a.94.94,0,0,1,.09-1.88,1,1,0,0,1,.92,1A.94.94,0,0,1,705.1,253.76Z" transform="translate(-21.08 -106.32)"/><path class="cls-3" d="M704.73,257.51a.94.94,0,0,1-.81-1,1,1,0,0,1,1-.83.92.92,0,0,1,.82,1A.93.93,0,0,1,704.73,257.51Z" transform="translate(-21.08 -106.32)"/><path class="cls-3" d="M704.13,261.23a1,1,0,0,1-.76-1.1,1,1,0,0,1,1.09-.76,1,1,0,0,1,.76,1.1A.93.93,0,0,1,704.13,261.23Z" transform="translate(-21.08 -106.32)"/><path class="cls-3" d="M703.26,264.89a.94.94,0,0,1,.46-1.83,1,1,0,0,1,.7,1.15A.94.94,0,0,1,703.26,264.89Z" transform="translate(-21.08 -106.32)"/><path class="cls-3" d="M702.15,268.49a.94.94,0,0,1-.59-1.18,1,1,0,0,1,1.19-.61.92.92,0,0,1,.6,1.19A1,1,0,0,1,702.15,268.49Z" transform="translate(-21.08 -106.32)"/><path class="cls-3" d="M700.83,272a.94.94,0,0,1,.69-1.75.92.92,0,0,1,.52,1.22A.91.91,0,0,1,700.83,272Z" transform="translate(-21.08 -106.32)"/><path class="cls-3" d="M699.25,275.43a.94.94,0,0,1,.81-1.7.94.94,0,1,1-.81,1.7Z" transform="translate(-21.08 -106.32)"/><path class="cls-3" d="M697.45,278.74a1,1,0,0,1-.35-1.28,1,1,0,0,1,1.29-.36.92.92,0,0,1,.35,1.28A.94.94,0,0,1,697.45,278.74Z" transform="translate(-21.08 -106.32)"/><path class="cls-3" d="M695.45,281.93a1,1,0,0,1-.27-1.31.94.94,0,1,1,.27,1.31Z" transform="translate(-21.08 -106.32)"/><path class="cls-3" d="M693.22,285a.93.93,0,0,1-.16-1.3.94.94,0,1,1,1.5,1.13A1,1,0,0,1,693.22,285Z" transform="translate(-21.08 -106.32)"/><path class="cls-3" d="M690.82,287.86a.94.94,0,1,1,1.23-1.42.94.94,0,1,1-1.23,1.42Z" transform="translate(-21.08 -106.32)"/><path class="cls-3" d="M688.22,290.59a1,1,0,0,1,0-1.33.93.93,0,0,1,1.32,0,1,1,0,0,1,0,1.34A.93.93,0,0,1,688.22,290.59Z" transform="translate(-21.08 -106.32)"/><path class="cls-3" d="M685.45,293.13a.93.93,0,0,1,.08-1.31,1,1,0,0,1,1.33.07.94.94,0,1,1-1.41,1.24Z" transform="translate(-21.08 -106.32)"/><path class="cls-3" d="M682.52,295.51a1,1,0,0,1,.17-1.33,1,1,0,0,1,1.31.16.94.94,0,1,1-1.48,1.17Z" transform="translate(-21.08 -106.32)"/><path class="cls-3" d="M679.44,297.66A.94.94,0,0,1,681,296.6a1,1,0,0,1-.24,1.33A1,1,0,0,1,679.44,297.66Z" transform="translate(-21.08 -106.32)"/><path class="cls-3" d="M676.22,299.62a1,1,0,0,1,.34-1.28,1,1,0,0,1,1.29.34.91.91,0,0,1-.34,1.28A.93.93,0,0,1,676.22,299.62Z" transform="translate(-21.08 -106.32)"/><path class="cls-3" d="M672.89,301.37a1,1,0,0,1,.42-1.26.94.94,0,1,1,.84,1.68A.92.92,0,0,1,672.89,301.37Z" transform="translate(-21.08 -106.32)"/><path class="cls-3" d="M669.44,302.87a.92.92,0,0,1,.51-1.21.94.94,0,1,1,.72,1.73A.94.94,0,0,1,669.44,302.87Z" transform="translate(-21.08 -106.32)"/><path class="cls-3" d="M665.9,304.16a.94.94,0,0,1,.58-1.19,1,1,0,0,1,1.2.58.94.94,0,0,1-1.78.61Z" transform="translate(-21.08 -106.32)"/><path class="cls-3" d="M662.28,305.21a1,1,0,0,1,.66-1.16.94.94,0,0,1,.49,1.82A.92.92,0,0,1,662.28,305.21Z" transform="translate(-21.08 -106.32)"/><path class="cls-3" d="M658.6,306a.92.92,0,0,1,.74-1.08,1,1,0,0,1,1.11.72.94.94,0,0,1-.74,1.12A1,1,0,0,1,658.6,306Z" transform="translate(-21.08 -106.32)"/><path class="cls-3" d="M654.88,306.55a.94.94,0,1,1,1.86-.24.94.94,0,0,1-1.86.24Z" transform="translate(-21.08 -106.32)"/><path class="cls-3" d="M651.12,306.87a1,1,0,0,1,.88-1,.94.94,0,1,1-.88,1Z" transform="translate(-21.08 -106.32)"/><path class="cls-3" d="M647.36,306.92a.94.94,0,0,1,1.88,0,.94.94,0,1,1-1.88,0Z" transform="translate(-21.08 -106.32)"/><path class="cls-3" d="M643.6,306.73a.93.93,0,0,1,1-.86,1,1,0,0,1,.88,1,.94.94,0,0,1-1.88-.14Z" transform="translate(-21.08 -106.32)"/><path class="cls-3" d="M639.86,306.31a.94.94,0,1,1,1.86.24.94.94,0,1,1-1.86-.24Z" transform="translate(-21.08 -106.32)"/><path class="cls-3" d="M636.15,305.63a1,1,0,0,1,1.11-.72A.92.92,0,0,1,638,306a1,1,0,0,1-1.11.76A.94.94,0,0,1,636.15,305.63Z" transform="translate(-21.08 -106.32)"/><path class="cls-3" d="M632.5,304.7a1,1,0,0,1,1.16-.65,1,1,0,0,1,.66,1.16.92.92,0,0,1-1.15.66A1,1,0,0,1,632.5,304.7Z" transform="translate(-21.08 -106.32)"/><path class="cls-3" d="M628.92,303.55a1,1,0,0,1,1.2-.58.94.94,0,0,1,.58,1.19.93.93,0,0,1-1.19.58A.92.92,0,0,1,628.92,303.55Z" transform="translate(-21.08 -106.32)"/><path class="cls-3" d="M625.43,302.15a.93.93,0,0,1,1.22-.49.92.92,0,0,1,.51,1.21.94.94,0,1,1-1.73-.72Z" transform="translate(-21.08 -106.32)"/><path class="cls-3" d="M622,300.52a.94.94,0,0,1,1.26-.41,1,1,0,0,1,.42,1.26.92.92,0,0,1-1.26.42A.94.94,0,0,1,622,300.52Z" transform="translate(-21.08 -106.32)"/><path class="cls-3" d="M618.75,298.68a1,1,0,0,1,1.29-.34,1,1,0,0,1,.34,1.28.93.93,0,0,1-1.29.34A.91.91,0,0,1,618.75,298.68Z" transform="translate(-21.08 -106.32)"/><path class="cls-3" d="M615.6,296.6a.94.94,0,1,1,.24,1.33A1,1,0,0,1,615.6,296.6Z" transform="translate(-21.08 -106.32)"/><path class="cls-3" d="M612.59,294.34a1,1,0,0,1,1.32-.16,1,1,0,0,1,.17,1.33.95.95,0,0,1-1.49-1.17Z" transform="translate(-21.08 -106.32)"/><path class="cls-3" d="M609.74,291.89a1,1,0,0,1,1.32-.07.92.92,0,0,1,.09,1.31.94.94,0,0,1-1.34.09A.93.93,0,0,1,609.74,291.89Z" transform="translate(-21.08 -106.32)"/><path class="cls-3" d="M607.06,289.24a.93.93,0,0,1,1.32,0,1,1,0,0,1,0,1.33.93.93,0,0,1-1.34,0A1,1,0,0,1,607.06,289.24Z" transform="translate(-21.08 -106.32)"/><path class="cls-3" d="M604.55,286.44a.94.94,0,1,1,1.23,1.42.94.94,0,1,1-1.23-1.42Z" transform="translate(-21.08 -106.32)"/><path class="cls-3" d="M602.24,283.46a.94.94,0,0,1,1.3.2.93.93,0,0,1-.16,1.3.94.94,0,1,1-1.14-1.5Z" transform="translate(-21.08 -106.32)"/><path class="cls-3" d="M600.13,280.35a.93.93,0,0,1,1.29.27,1,1,0,0,1-.27,1.31.94.94,0,0,1-1-1.58Z" transform="translate(-21.08 -106.32)"/><path class="cls-3" d="M598.21,277.1a1,1,0,0,1,1.29.36.94.94,0,1,1-1.64.92A.92.92,0,0,1,598.21,277.1Z" transform="translate(-21.08 -106.32)"/><path class="cls-3" d="M596.54,273.73a.94.94,0,1,1-.46,1.26A1,1,0,0,1,596.54,273.73Z" transform="translate(-21.08 -106.32)"/><path class="cls-3" d="M595.08,270.26a.94.94,0,1,1,.69,1.75.91.91,0,0,1-1.21-.53A.92.92,0,0,1,595.08,270.26Z" transform="translate(-21.08 -106.32)"/><path class="cls-3" d="M593.85,266.7a1,1,0,0,1,1.19.61.94.94,0,1,1-1.79.58A.92.92,0,0,1,593.85,266.7Z" transform="translate(-21.08 -106.32)"/><path class="cls-3" d="M592.88,263.06a.93.93,0,0,1,1.12.69.94.94,0,1,1-1.82.46A1,1,0,0,1,592.88,263.06Z" transform="translate(-21.08 -106.32)"/><path class="cls-3" d="M592.14,259.37a1,1,0,0,1,1.09.76,1,1,0,0,1-.76,1.1.93.93,0,0,1-1.09-.76A1,1,0,0,1,592.14,259.37Z" transform="translate(-21.08 -106.32)"/><path class="cls-3" d="M591.64,255.64a1,1,0,0,1,1,.83.94.94,0,1,1-1.86.21A.92.92,0,0,1,591.64,255.64Z" transform="translate(-21.08 -106.32)"/><path class="cls-3" d="M591.41,251.88a.94.94,0,0,1,.09,1.88.94.94,0,0,1-1-.89A1,1,0,0,1,591.41,251.88Z" transform="translate(-21.08 -106.32)"/><path class="cls-3" d="M477.61,246.24a.93.93,0,0,1,.88,1,.94.94,0,0,1-1,.9,1,1,0,0,1-.91-1A.94.94,0,0,1,477.61,246.24Z" transform="translate(-21.08 -106.32)"/><path class="cls-3" d="M478,242.49a1,1,0,0,1,.81,1,1,1,0,0,1-1,.83.92.92,0,0,1-.83-1A1,1,0,0,1,478,242.49Z" transform="translate(-21.08 -106.32)"/><path class="cls-3" d="M478.59,238.77a1,1,0,0,1,.76,1.1,1,1,0,0,1-1.09.76,1,1,0,0,1-.76-1.1A.93.93,0,0,1,478.59,238.77Z" transform="translate(-21.08 -106.32)"/><path class="cls-3" d="M479.46,235.11a.94.94,0,0,1,.66,1.14.93.93,0,0,1-1.12.69,1,1,0,0,1-.7-1.15A.94.94,0,0,1,479.46,235.11Z" transform="translate(-21.08 -106.32)"/><path class="cls-3" d="M480.56,231.51a1,1,0,0,1,.6,1.18,1,1,0,0,1-1.19.61.92.92,0,0,1-.6-1.19A.94.94,0,0,1,480.56,231.51Z" transform="translate(-21.08 -106.32)"/><path class="cls-3" d="M481.89,228a.94.94,0,0,1-.69,1.75.94.94,0,0,1-.53-1.22A.92.92,0,0,1,481.89,228Z" transform="translate(-21.08 -106.32)"/><path class="cls-3" d="M483.47,224.57a.94.94,0,0,1-.81,1.7.94.94,0,1,1,.81-1.7Z" transform="translate(-21.08 -106.32)"/><path class="cls-3" d="M485.27,221.26a1,1,0,0,1,.35,1.28,1,1,0,0,1-1.29.36.92.92,0,0,1-.35-1.28A.94.94,0,0,1,485.27,221.26Z" transform="translate(-21.08 -106.32)"/><path class="cls-3" d="M487.27,218.07a1,1,0,0,1,.27,1.31.94.94,0,0,1-1.57-1A.92.92,0,0,1,487.27,218.07Z" transform="translate(-21.08 -106.32)"/><path class="cls-3" d="M489.49,215a.92.92,0,0,1,.17,1.3.94.94,0,1,1-.17-1.3Z" transform="translate(-21.08 -106.32)"/><path class="cls-3" d="M491.9,212.14a.94.94,0,1,1-1.23,1.42.94.94,0,1,1,1.23-1.42Z" transform="translate(-21.08 -106.32)"/><path class="cls-3" d="M494.5,209.41a1,1,0,0,1,0,1.33.94.94,0,1,1,0-1.33Z" transform="translate(-21.08 -106.32)"/><path class="cls-3" d="M497.27,206.87a.92.92,0,0,1-.09,1.31,1,1,0,0,1-1.32-.07.93.93,0,0,1,.07-1.33A.94.94,0,0,1,497.27,206.87Z" transform="translate(-21.08 -106.32)"/><path class="cls-3" d="M500.19,204.49a.94.94,0,1,1-1.48,1.17.94.94,0,0,1,.17-1.33A.93.93,0,0,1,500.19,204.49Z" transform="translate(-21.08 -106.32)"/><path class="cls-3" d="M503.28,202.34a.94.94,0,0,1-1.56,1.06,1,1,0,0,1,.24-1.33A1,1,0,0,1,503.28,202.34Z" transform="translate(-21.08 -106.32)"/><path class="cls-3" d="M506.5,200.38a1,1,0,0,1-.34,1.28,1,1,0,0,1-1.3-.34.93.93,0,0,1,.34-1.28A1,1,0,0,1,506.5,200.38Z" transform="translate(-21.08 -106.32)"/><path class="cls-3" d="M509.83,198.63a1,1,0,0,1-.42,1.26.94.94,0,1,1-.84-1.68A.93.93,0,0,1,509.83,198.63Z" transform="translate(-21.08 -106.32)"/><path class="cls-3" d="M513.28,197.13a.94.94,0,1,1-1.24-.52A1,1,0,0,1,513.28,197.13Z" transform="translate(-21.08 -106.32)"/><path class="cls-3" d="M516.82,195.84a.94.94,0,0,1-.59,1.19,1,1,0,0,1-1.19-.58.92.92,0,0,1,.58-1.19A.93.93,0,0,1,516.82,195.84Z" transform="translate(-21.08 -106.32)"/><path class="cls-3" d="M520.44,194.79a1,1,0,0,1-.67,1.16.94.94,0,0,1-.49-1.82A.93.93,0,0,1,520.44,194.79Z" transform="translate(-21.08 -106.32)"/><path class="cls-3" d="M524.12,194a.92.92,0,0,1-.74,1.08,1,1,0,0,1-1.11-.72.94.94,0,0,1,.74-1.12A1,1,0,0,1,524.12,194Z" transform="translate(-21.08 -106.32)"/><path class="cls-3" d="M527.84,193.45a1,1,0,0,1-.81,1.05,1,1,0,0,1-1.06-.81.94.94,0,0,1,1.87-.24Z" transform="translate(-21.08 -106.32)"/><path class="cls-3" d="M531.59,193.13a1,1,0,0,1-.87,1,.94.94,0,1,1-.13-1.87A.92.92,0,0,1,531.59,193.13Z" transform="translate(-21.08 -106.32)"/><path class="cls-3" d="M535.36,193.08a.94.94,0,0,1-1.88,0,.94.94,0,1,1,1.88,0Z" transform="translate(-21.08 -106.32)"/><path class="cls-3" d="M539.12,193.27a.93.93,0,0,1-1,.86,1,1,0,0,1-.88-1,.92.92,0,0,1,1-.87A.94.94,0,0,1,539.12,193.27Z" transform="translate(-21.08 -106.32)"/><path class="cls-3" d="M542.86,193.69a.94.94,0,0,1-1.87-.24.93.93,0,0,1,1.06-.81A.91.91,0,0,1,542.86,193.69Z" transform="translate(-21.08 -106.32)"/><path class="cls-3" d="M546.56,194.37a.94.94,0,0,1-1.1.72.92.92,0,0,1-.74-1.08,1,1,0,0,1,1.11-.76A.93.93,0,0,1,546.56,194.37Z" transform="translate(-21.08 -106.32)"/><path class="cls-3" d="M550.21,195.3a.94.94,0,0,1-1.15.65,1,1,0,0,1-.66-1.16.92.92,0,0,1,1.15-.66A1,1,0,0,1,550.21,195.3Z" transform="translate(-21.08 -106.32)"/><path class="cls-3" d="M553.8,196.45a.95.95,0,0,1-1.79-.61.94.94,0,0,1,1.2-.58A.92.92,0,0,1,553.8,196.45Z" transform="translate(-21.08 -106.32)"/><path class="cls-3" d="M557.29,197.85a.94.94,0,0,1-1.74-.72,1,1,0,0,1,1.24-.52A.93.93,0,0,1,557.29,197.85Z" transform="translate(-21.08 -106.32)"/><path class="cls-3" d="M560.68,199.48a.93.93,0,0,1-1.25.41,1,1,0,0,1-.42-1.26.92.92,0,0,1,1.26-.42A.93.93,0,0,1,560.68,199.48Z" transform="translate(-21.08 -106.32)"/><path class="cls-3" d="M564,201.32a1,1,0,0,1-1.29.34,1,1,0,0,1-.34-1.28.93.93,0,0,1,1.29-.34A.92.92,0,0,1,564,201.32Z" transform="translate(-21.08 -106.32)"/><path class="cls-3" d="M567.11,203.4a.94.94,0,1,1-.24-1.33A1,1,0,0,1,567.11,203.4Z" transform="translate(-21.08 -106.32)"/><path class="cls-3" d="M570.12,205.66a1,1,0,0,1-1.31.16,1,1,0,0,1-.17-1.33.94.94,0,1,1,1.48,1.17Z" transform="translate(-21.08 -106.32)"/><path class="cls-3" d="M573,208.11a1,1,0,0,1-1.33.07.94.94,0,0,1,1.25-1.4A.92.92,0,0,1,573,208.11Z" transform="translate(-21.08 -106.32)"/><path class="cls-3" d="M575.66,210.76a.93.93,0,0,1-1.32,0,1,1,0,0,1,0-1.33.93.93,0,0,1,1.34,0A1,1,0,0,1,575.66,210.76Z" transform="translate(-21.08 -106.32)"/><path class="cls-3" d="M578.17,213.56a.94.94,0,1,1-1.23-1.42.94.94,0,0,1,1.23,1.42Z" transform="translate(-21.08 -106.32)"/><path class="cls-3" d="M580.48,216.54a1,1,0,0,1-1.31-.2.94.94,0,0,1,1.5-1.13A.94.94,0,0,1,580.48,216.54Z" transform="translate(-21.08 -106.32)"/><path class="cls-3" d="M582.59,219.65a.93.93,0,0,1-1.29-.27,1,1,0,0,1,.27-1.31.92.92,0,0,1,1.3.28A.94.94,0,0,1,582.59,219.65Z" transform="translate(-21.08 -106.32)"/><path class="cls-3" d="M584.51,222.9a1,1,0,0,1-1.29-.36.94.94,0,1,1,1.64-.92A.92.92,0,0,1,584.51,222.9Z" transform="translate(-21.08 -106.32)"/><path class="cls-3" d="M586.18,226.27a.94.94,0,0,1-.82-1.7.94.94,0,1,1,.82,1.7Z" transform="translate(-21.08 -106.32)"/><path class="cls-3" d="M587.64,229.74a1,1,0,0,1-1.22-.53,1,1,0,0,1,.52-1.22.94.94,0,0,1,.7,1.75Z" transform="translate(-21.08 -106.32)"/><path class="cls-3" d="M588.86,233.3a1,1,0,0,1-1.18-.61.94.94,0,1,1,1.79-.58A.92.92,0,0,1,588.86,233.3Z" transform="translate(-21.08 -106.32)"/><path class="cls-3" d="M589.84,236.94a.94.94,0,0,1-.46-1.83.93.93,0,0,1,1.15.68A1,1,0,0,1,589.84,236.94Z" transform="translate(-21.08 -106.32)"/><path class="cls-3" d="M590.58,240.63a1,1,0,0,1-1.09-.76,1,1,0,0,1,.76-1.1.93.93,0,0,1,1.09.76A1,1,0,0,1,590.58,240.63Z" transform="translate(-21.08 -106.32)"/><path class="cls-3" d="M591.08,244.36a1,1,0,0,1-1-.83.94.94,0,1,1,1.86-.21A.92.92,0,0,1,591.08,244.36Z" transform="translate(-21.08 -106.32)"/><path class="cls-3" d="M591.31,248.12a.94.94,0,0,1-.09-1.88.94.94,0,0,1,1,.89A1,1,0,0,1,591.31,248.12Z" transform="translate(-21.08 -106.32)"/><path class="cls-3" d="M78.86,198a4.94,4.94,0,0,1-.07-9.88H79a4.94,4.94,0,0,1-.08,9.88Z" transform="translate(-21.08 -106.32)"/><path class="cls-3" d="M192.67,311.88a4.94,4.94,0,0,1,.08-9.88h.05a4.94,4.94,0,0,1,.08,9.88h-.21Z" transform="translate(-21.08 -106.32)"/><path class="cls-3" d="M191.83,306.92a.94.94,0,0,1,1.88,0,.94.94,0,1,1-1.88,0Z" transform="translate(-21.08 -106.32)"/><path class="cls-3" d="M306.63,198a4.94,4.94,0,0,1-.07-9.88h.19a4.94,4.94,0,0,1-.07,9.88Z" transform="translate(-21.08 -106.32)"/><path class="cls-3" d="M420.43,311.88a4.94,4.94,0,0,1,.08-9.88h.05a4.94,4.94,0,0,1,.08,9.88h-.21Z" transform="translate(-21.08 -106.32)"/><path class="cls-3" d="M534.39,198a4.94,4.94,0,0,1-.07-9.88h.2a4.94,4.94,0,0,1-.08,9.88Z" transform="translate(-21.08 -106.32)"/><path class="cls-3" d="M648.2,311.88a4.94,4.94,0,0,1,.08-9.88h.05a4.94,4.94,0,0,1,.07,9.88h-.2Z" transform="translate(-21.08 -106.32)"/></g><g id="year"><text class="cls-4" transform="translate(16.59 39.41)">month <tspan class="cls-5" x="21.86" y="0">b</tspan><tspan class="cls-6" x="25.75" y="0">y P</tspan><tspan class="cls-7" x="35.22" y="0">r</tspan><tspan x="37.52" y="0">esident Obama.</tspan></text><text class="cls-4" transform="translate(11.63 21.21)">Cong<tspan class="cls-8" x="16.34" y="0">r</tspan><tspan x="18.64" y="0">ess passes the JOBS Act</tspan></text><text class="cls-4" transform="translate(9.54 30.31)">which is signed in<tspan class="cls-9" x="55.16" y="0">t</tspan><tspan x="57.37" y="0">o law the next</tspan></text><text class="cls-10" transform="translate(29.6 11.01)">MARCH, 2012</text><text class="cls-4" transform="translate(211.18 21.21)">Title III Regulation C<tspan class="cls-11" x="62.19" y="0">r</tspan><tspan x="64.49" y="0">owdfunding rules ta</tspan><tspan class="cls-12" x="126.08" y="0">k</tspan><tspan x="129.56" y="0">e ef</tspan><tspan class="cls-13" x="141.14" y="0">f</tspan><tspan class="cls-6" x="143.49" y="0">ect</tspan></text><text class="cls-4" transform="translate(207.3 30.31)">allowing individuals <tspan class="cls-14" x="62.63" y="0">o</tspan><tspan class="cls-15" x="66.57" y="0">v</tspan><tspan class="cls-6" x="69.92" y="0">er 18 </tspan><tspan class="cls-16" x="87.32" y="0">y</tspan><tspan class="cls-6" x="90.59" y="0">ears of age </tspan><tspan class="cls-12" x="127.15" y="0">t</tspan><tspan x="129.37" y="0">o in</tspan><tspan class="cls-16" x="140.65" y="0">v</tspan><tspan class="cls-17" x="144" y="0">est in</tspan></text><text class="cls-4" transform="translate(200.38 39.41)">securities online th<tspan class="cls-11" x="58.64" y="0">r</tspan><tspan x="60.94" y="0">ough SEC-</tspan><tspan class="cls-8" x="92.93" y="0">r</tspan><tspan x="95.23" y="0">egiste</tspan><tspan class="cls-7" x="114.17" y="0">r</tspan><tspan x="116.47" y="0">ed funding po</tspan><tspan class="cls-18" x="159.1" y="0">r</tspan><tspan class="cls-6" x="161.64" y="0">ta</tspan><tspan class="cls-19" x="167.74" y="0">l</tspan><tspan x="169.3" y="0">s.</tspan></text><text class="cls-10" transform="translate(264.36 11.01)">M<tspan class="cls-20" x="7.92" y="0">AY</tspan><tspan x="19.07" y="0">, 2016</tspan></text><text class="cls-4" transform="translate(483.99 39.55)">a member of FINRA.</text><text class="cls-4" transform="translate(460.73 21.37)"><tspan class="cls-21">W</tspan><tspan x="6.1" y="0">ater</tspan><tspan class="cls-22" x="18.27" y="0">W</tspan><tspan x="24.37" y="0">orks </tspan><tspan class="cls-23" x="39.62" y="0">r</tspan><tspan class="cls-6" x="41.93" y="0">egisters with the SEC </tspan></text><text class="cls-10" transform="translate(480.86 10.86)">OCTOBER, 2018</text><text class="cls-4" transform="translate(464.39 30.46)">as a funding po<tspan class="cls-24" x="47.93" y="0">r</tspan><tspan x="50.47" y="0">tal and becomes</tspan></text><text class="cls-4" transform="translate(118.95 268.42)">The SEC adopts final rules <tspan class="cls-11" x="83.41" y="0">t</tspan><tspan x="85.62" y="0">o permit</tspan></text><text class="cls-4" transform="translate(116.35 278.61)">companies <tspan class="cls-11" x="36.14" y="0">t</tspan><tspan x="38.36" y="0">o of</tspan><tspan class="cls-13" x="50.5" y="0">f</tspan><tspan class="cls-6" x="52.85" y="0">er and sell securities</tspan></text><text class="cls-4" transform="translate(139.49 287.77)">th<tspan class="cls-11" x="6.14" y="0">r</tspan><tspan x="8.44" y="0">ough c</tspan><tspan class="cls-12" x="29.47" y="0">r</tspan><tspan x="31.77" y="0">owdfunding.</tspan></text><text class="cls-10" transform="translate(140.26 258.62)">OCTOBER, 2015</text><text class="cls-10" transform="translate(604.94 258.62)">JU<tspan class="cls-25" x="10.13" y="0">L</tspan><tspan class="cls-20" x="14.56" y="0">Y</tspan><tspan class="cls-26" x="20.06" y="0">, 2019</tspan></text><text class="cls-4" transform="translate(580.51 268.42)"><tspan class="cls-21">W</tspan><tspan x="6.1" y="0">ater</tspan><tspan class="cls-22" x="18.27" y="0">W</tspan><tspan x="24.37" y="0">orks platform launches.</tspan></text><text class="cls-4" transform="translate(344.78 268.42)">In the first full calendar <tspan class="cls-16" x="73.23" y="0">y</tspan><tspan class="cls-6" x="76.49" y="0">ea</tspan><tspan class="cls-27" x="84.01" y="0">r</tspan><tspan class="cls-17" x="85.96" y="0">, the </tspan><tspan class="cls-12" x="100.65" y="0">t</tspan><tspan x="102.87" y="0">otal</tspan></text><text class="cls-10" transform="translate(365.15 258.62)">DECEMBER, 2017</text><text class="cls-4" transform="translate(331.54 278.09)">p<tspan class="cls-11" x="3.93" y="0">r</tspan><tspan x="6.23" y="0">oceeds </tspan><tspan class="cls-28" x="30.59" y="0">r</tspan><tspan class="cls-6" x="32.82" y="0">aised under</tspan><tspan class="cls-29" x="69.07" y="0"> </tspan><tspan x="70.67" y="0">Title III Reg CF e</tspan><tspan class="cls-11" x="120.96" y="0">x</tspan><tspan x="124.36" y="0">ceed </tspan></text><text class="cls-4" transform="translate(337.16 287.77)">$75 million <tspan class="cls-14" x="36.04" y="0">o</tspan><tspan class="cls-15" x="39.98" y="0">v</tspan><tspan class="cls-6" x="43.33" y="0">er 200 successful of</tspan><tspan class="cls-30" x="106.53" y="0">f</tspan><tspan x="108.88" y="0">erings.</tspan></text></g></svg>