<?xml version="1.0" encoding="UTF-8"?>
<svg width="110px" height="110px" viewBox="0 0 110 110" version="1.1" xmlns="http://www.w3.org/2000/svg" xmlns:xlink="http://www.w3.org/1999/xlink">
    <!-- Generator: Sketch 54.1 (76490) - https://sketchapp.com -->
    <title>Group 5</title>
    <desc>Created with Sketch.</desc>
    <g id="Mockups" stroke="none" stroke-width="1" fill="none" fill-rule="evenodd">
        <g id="ISSUERS" transform="translate(-260.000000, -840.000000)" fill="#4CB0C9">
            <g id="Group-5" transform="translate(260.000000, 840.000000)">
                <circle id="Oval" opacity="0.4" cx="55" cy="55" r="55"></circle>
                <g id="resume" transform="translate(27.500000, 27.500000)" fill-rule="nonzero">
                    <path d="M44.4734082,15.9790039 C45.0665918,15.9790039 45.547627,15.4980762 45.547627,14.9047852 L45.547627,3.22265625 C45.547627,1.44568359 44.1019434,0 42.3249707,0 L3.2234082,0 C1.44643555,0 0.000751953125,1.44568359 0.000751953125,3.22265625 L0.000751953125,51.7773437 C0.000751953125,53.5543164 1.44643555,55 3.2234082,55 L42.3249707,55 C44.1019434,55 45.547627,53.5543164 45.547627,51.7773437 L45.547627,43.8633594 C45.547627,43.2700684 45.0665918,42.7891406 44.4734082,42.7891406 C43.8802246,42.7891406 43.3991895,43.2700684 43.3991895,43.8633594 L43.3991895,51.7773437 C43.3991895,52.369668 42.9172949,52.8515625 42.3249707,52.8515625 L3.2234082,52.8515625 C2.63108398,52.8515625 2.14918945,52.369668 2.14918945,51.7773437 L2.14918945,3.22265625 C2.14918945,2.63033203 2.63108398,2.1484375 3.2234082,2.1484375 L42.3249707,2.1484375 C42.9172949,2.1484375 43.3991895,2.63033203 43.3991895,3.22265625 L43.3991895,14.9047852 C43.3991895,15.4980762 43.8802246,15.9790039 44.4734082,15.9790039 Z" id="Path"></path>
                    <path d="M22.7741895,5.80078125 C17.3247852,5.80078125 12.891377,10.2341895 12.891377,15.6835938 C12.891377,18.5106152 14.084834,21.0638184 15.9939355,22.8667871 C16.029707,22.9050293 16.0677344,22.9412305 16.1093066,22.974209 C17.8679102,24.5832813 20.2083105,25.5662988 22.774082,25.5662988 C25.3398535,25.5662988 27.6802539,24.5831738 29.4388574,22.974209 C29.4804297,22.9412305 29.518457,22.9049219 29.5542285,22.8667871 C31.4635449,21.0638184 32.657002,18.5106152 32.657002,15.6835938 C32.657002,10.2341895 28.2235937,5.80078125 22.7741895,5.80078125 Z M22.7741895,23.4179688 C21.0200977,23.4179688 19.40125,22.8301562 18.1023047,21.8423047 C19.0464355,20.1681348 20.8082617,19.1210938 22.7741895,19.1210938 C24.7401172,19.1210938 26.5019434,20.1681348 27.4460742,21.8423047 C26.1470215,22.8301562 24.5282812,23.4179688 22.7741895,23.4179688 Z M21.0554395,15.2539062 L21.0554395,14.5556641 C21.0554395,13.6079883 21.8265137,12.8369141 22.7741895,12.8369141 C23.7218652,12.8369141 24.4929395,13.6079883 24.4929395,14.5556641 L24.4929395,15.2539062 C24.4929395,16.201582 23.7218652,16.9726562 22.7741895,16.9726562 C21.8265137,16.9726562 21.0554395,16.201582 21.0554395,15.2539062 Z M28.9982129,20.2686816 C28.2059766,19.0937012 27.1080176,18.1798633 25.8332422,17.6156836 C26.3391992,16.9618066 26.641377,16.1427148 26.641377,15.2539063 L26.641377,14.5556641 C26.641377,12.4232324 24.9066211,10.6884766 22.7741895,10.6884766 C20.6417578,10.6884766 18.907002,12.4232324 18.907002,14.5556641 L18.907002,15.2539063 C18.907002,16.1427148 19.2091797,16.9618066 19.7151367,17.6156836 C18.4403613,18.1798633 17.3424023,19.0937012 16.550166,20.2686816 C15.6017383,18.984668 15.0398145,17.3987988 15.0398145,15.6835938 C15.0398145,11.4188379 18.5094336,7.94921875 22.7741895,7.94921875 C27.0389453,7.94921875 30.5085645,11.4188379 30.5085645,15.6835938 C30.5085645,17.3987988 29.9466406,18.984668 28.9982129,20.2686816 Z" id="Shape"></path>
                    <path d="M28.5749707,47.0507812 L22.7741895,47.0507812 C22.1810059,47.0507812 21.6999707,47.531709 21.6999707,48.125 C21.6999707,48.718291 22.1810059,49.1992187 22.7741895,49.1992187 L28.5749707,49.1992187 C29.1681543,49.1992187 29.6491895,48.718291 29.6491895,48.125 C29.6491895,47.531709 29.1681543,47.0507812 28.5749707,47.0507812 Z" id="Path"></path>
                    <path d="M28.5749707,41.0351562 L13.3210645,41.0351562 C12.7278809,41.0351562 12.2468457,41.516084 12.2468457,42.109375 C12.2468457,42.702666 12.7278809,43.1835938 13.3210645,43.1835938 L28.5749707,43.1835938 C29.1681543,43.1835938 29.6491895,42.702666 29.6491895,42.109375 C29.6491895,41.516084 29.1681543,41.0351562 28.5749707,41.0351562 Z" id="Path"></path>
                    <path d="M28.5749707,35.0195312 L13.3210645,35.0195312 C12.7278809,35.0195312 12.2468457,35.500459 12.2468457,36.09375 C12.2468457,36.687041 12.7278809,37.1679688 13.3210645,37.1679688 L28.5749707,37.1679688 C29.1681543,37.1679688 29.6491895,36.687041 29.6491895,36.09375 C29.6491895,35.500459 29.1681543,35.0195312 28.5749707,35.0195312 Z" id="Path"></path>
                    <path d="M9.49244141,29.3186523 C9.29274414,29.1188477 9.0155957,29.0039062 8.73200195,29.0039062 C8.449375,29.0039062 8.17222656,29.1188477 7.9725293,29.3186523 C7.77272461,29.518457 7.6577832,29.7956055 7.6577832,30.078125 C7.6577832,30.3606445 7.77261719,30.637793 7.9725293,30.8375977 C8.1734082,31.0374023 8.449375,31.1523438 8.73200195,31.1523438 C9.0155957,31.1523438 9.29166992,31.0374023 9.49244141,30.8375977 C9.69224609,30.637793 9.80729492,30.3606445 9.80729492,30.078125 C9.80729492,29.7956055 9.69235352,29.518457 9.49244141,29.3186523 Z" id="Path"></path>
                    <path d="M9.49244141,35.3342773 C9.29166992,35.1344727 9.0155957,35.0195312 8.73200195,35.0195312 C8.449375,35.0195312 8.1734082,35.1344727 7.9725293,35.3342773 C7.77272461,35.534082 7.6577832,35.8112305 7.6577832,36.09375 C7.6577832,36.3762695 7.77261719,36.653418 7.9725293,36.8532227 C8.1734082,37.0530273 8.449375,37.1679688 8.73200195,37.1679688 C9.0155957,37.1679688 9.29166992,37.0530273 9.49244141,36.8532227 C9.69224609,36.653418 9.80729492,36.3762695 9.80729492,36.09375 C9.80729492,35.8112305 9.69235352,35.534082 9.49244141,35.3342773 Z" id="Path"></path>
                    <path d="M9.49244141,41.3499023 C9.29166992,41.1500977 9.0155957,41.0351562 8.73200195,41.0351562 C8.449375,41.0351562 8.1734082,41.1500977 7.9725293,41.3499023 C7.77272461,41.549707 7.6577832,41.8268555 7.6577832,42.109375 C7.6577832,42.3918945 7.77261719,42.669043 7.9725293,42.8688477 C8.17222656,43.0686523 8.449375,43.1835938 8.73200195,43.1835938 C9.0155957,43.1835938 9.29274414,43.0686523 9.49244141,42.8688477 C9.69224609,42.669043 9.80729492,42.3918945 9.80729492,42.109375 C9.80729492,41.8268555 9.69235352,41.549707 9.49244141,41.3499023 Z" id="Path"></path>
                    <path d="M28.5749707,29.0039062 L13.3210645,29.0039062 C12.7278809,29.0039062 12.2468457,29.484834 12.2468457,30.078125 C12.2468457,30.671416 12.7278809,31.1523438 13.3210645,31.1523438 L28.5749707,31.1523438 C29.1681543,31.1523438 29.6491895,30.671416 29.6491895,30.078125 C29.6491895,29.484834 29.1681543,29.0039062 28.5749707,29.0039062 Z" id="Path"></path>
                    <path d="M52.7443555,13.9992187 C51.700752,13.3966895 50.4849512,13.2366309 49.3207129,13.5484766 C48.1566895,13.8604297 47.1836621,14.6070117 46.5812402,15.6506152 L33.0630566,39.0646094 C32.989043,39.1929785 32.942207,39.3353125 32.9257715,39.4825879 L31.9742285,48.0058691 C31.9269629,48.4299707 32.1351465,48.8419336 32.5046777,49.0553809 C32.6715039,49.1516309 32.8568066,49.1993262 33.0416797,49.1993262 C33.2664063,49.1993262 33.4902734,49.1289648 33.6787988,48.9900684 L40.5843066,43.9042871 C40.7036523,43.816416 40.8035547,43.7048047 40.8775684,43.5764355 L54.3956445,20.1624414 C55.6395898,18.0079883 54.8988086,15.2431641 52.7443555,13.9992187 Z M34.3817676,45.804043 L34.8787012,41.3533398 L37.9877051,43.1483594 L34.3817676,45.804043 Z M39.5541309,41.5718359 L35.4608203,39.2085547 L46.3088184,20.4193945 L50.4021289,22.7826758 L39.5541309,41.5718359 Z M52.5350977,19.0881152 L51.4762402,20.9221289 L47.3829297,18.5588477 L48.4417871,16.724834 C48.7573926,16.1781641 49.267002,15.7871484 49.8767285,15.6237598 C50.4866699,15.4602637 51.1234668,15.5442676 51.6700293,15.859873 C52.2166992,16.1754785 52.6077148,16.6850879 52.7711035,17.2948145 C52.9344922,17.904541 52.8507031,18.5414453 52.5350977,19.0881152 Z" id="Shape"></path>
                </g>
            </g>
        </g>
    </g>
</svg>