<?xml version="1.0" encoding="UTF-8"?>
<svg width="111px" height="110px" viewBox="0 0 111 110" version="1.1" xmlns="http://www.w3.org/2000/svg" xmlns:xlink="http://www.w3.org/1999/xlink">
    <!-- Generator: Sketch 54.1 (76490) - https://sketchapp.com -->
    <title>Group 7</title>
    <desc>Created with Sketch.</desc>
    <g id="Mockups" stroke="none" stroke-width="1" fill="none" fill-rule="evenodd">
        <g id="ISSUERS" transform="translate(-1066.000000, -840.000000)" fill="#4CB0C9">
            <g id="Group-7" transform="translate(1066.500000, 840.000000)">
                <circle id="Oval" opacity="0.4" cx="55" cy="55" r="55"></circle>
                <path d="M82.5,37.9251048 L59.4465781,37.9251048 L59.4465781,31.315468 L37.4144553,31.315468 L37.4144553,28.0106495 L27.5,28.0106495 L27.5,81.9893505 L37.4144553,81.9893505 L37.4144553,65.4652583 L56.1417597,65.4652583 L56.1417597,72.0748952 L82.5,72.0748952 L73.9625524,55 L82.5,37.9251048 Z M34.1096369,78.6844219 L30.8048184,78.6844219 L30.8048184,31.3153578 L34.1096369,31.3153578 L34.1096369,78.6844219 Z M56.1417597,62.1603298 L37.4144553,62.1603298 L37.4144553,34.6201762 L56.1417597,34.6201762 L56.1417597,62.1603298 Z M77.1525835,68.7699666 L59.4465781,68.7699666 L59.4465781,41.2298131 L77.1525835,41.2298131 L70.2675451,54.9998898 L77.1525835,68.7699666 Z" id="Shape" fill-rule="nonzero"></path>
            </g>
        </g>
    </g>
</svg>