<?xml version="1.0" encoding="UTF-8"?>
<svg width="110px" height="110px" viewBox="0 0 110 110" version="1.1" xmlns="http://www.w3.org/2000/svg" xmlns:xlink="http://www.w3.org/1999/xlink">
    <!-- Generator: Sketch 54.1 (76490) - https://sketchapp.com -->
    <title>Group 6</title>
    <desc>Created with Sketch.</desc>
    <g id="Mockups" stroke="none" stroke-width="1" fill="none" fill-rule="evenodd">
        <g id="ISSUERS" transform="translate(-665.000000, -840.000000)" fill="#4CB0C9">
            <g id="Group-6" transform="translate(664.548181, 840.000000)">
                <circle id="Oval" opacity="0.4" cx="55.4518189" cy="55" r="55"></circle>
                <path d="M65.861354,31.7614111 L67.4328467,29.1202447 C67.7894046,28.4797145 68.5751958,28.2618679 69.2156362,28.6184258 C69.8560767,28.9749837 70.0740131,29.7607749 69.7174551,30.4012153 L68.1459625,33.0423817 C67.9346656,33.471615 67.4328467,33.6829119 67.0036134,33.6829119 C66.7923165,33.6829119 66.5743801,33.6102365 66.3631729,33.5376509 C65.716093,33.1876427 65.5047961,32.408491 65.861354,31.7614111 Z M42.7575856,33.0490212 C42.9688825,33.4782545 43.4707015,33.6895514 43.8999347,33.6895514 C44.1112316,33.6895514 44.329168,33.616876 44.5404649,33.5442904 C45.1809951,33.1877325 45.3988418,32.4019413 45.0422838,31.7615008 L43.4707912,29.1203344 C43.1142333,28.4798042 42.3284421,28.2619576 41.6880016,28.6185155 C41.0475612,28.9750734 40.8296248,29.7608646 41.1861827,30.4013051 L42.7575856,33.0490212 Z M55.4484992,30.6257015 C56.161615,30.6257015 56.7294698,30.0578467 56.7294698,29.3447308 L56.7294698,26.2809706 C56.7294698,25.5678548 56.161615,25 55.4484992,25 C54.7353834,25 54.1675285,25.5678548 54.1675285,26.2809706 L54.1675285,29.3447308 C54.0948532,30.0512969 54.662708,30.6257015 55.4484992,30.6257015 Z M32.3447308,51.0883034 L29.2809706,51.0883034 C28.5678548,51.0883034 28,51.6561582 28,52.3692741 C28,53.0823899 28.5678548,53.6502447 29.2809706,53.6502447 L32.3447308,53.6502447 C33.0578467,53.6502447 33.6257015,53.0823899 33.6257015,52.3692741 C33.6257015,51.6561582 33.0578467,51.0883034 32.3447308,51.0883034 Z M81.6226672,51.0883034 L78.558907,51.0883034 C77.8457912,51.0883034 77.2779364,51.6561582 77.2779364,52.3692741 C77.2779364,53.0823899 77.8457912,53.6502447 78.558907,53.6502447 L81.6226672,53.6502447 C82.335783,53.6502447 82.9036378,53.0823899 82.9036378,52.3692741 C82.9036378,51.6561582 82.335783,51.0883034 81.6226672,51.0883034 Z M79.2653834,38.6813622 C78.9088254,38.040832 78.1230343,37.8229853 77.4825938,38.1795432 L74.8414274,39.7510359 C74.2009869,40.1075938 73.9830506,40.893385 74.3396085,41.5338254 C74.5509054,41.9630587 75.0527243,42.1743556 75.4819576,42.1743556 C75.6932545,42.1743556 75.9111909,42.1016803 76.122398,42.0290946 L78.7635644,40.457602 C79.4106444,40.1075938 79.6219413,39.3218026 79.2653834,38.6813622 Z M72.2794861,52.2306525 C72.2794861,55.1557912 71.4936949,58.0082545 70.0674633,60.5768352 C69.9948777,60.7881321 69.9222023,60.9333931 69.783491,61.0786542 L69.63823,61.2899511 C69.0703752,62.1483279 68.4958809,63.000155 67.7827651,63.7132708 C65.2868597,67.2062643 64.0058891,70.2039886 64.071925,72.1254894 L64.071925,72.1981648 C64.071925,72.3434258 64.1446003,72.5547227 64.1446003,72.7660196 L64.1446003,78.9001794 C64.1446003,81.6073817 61.9325775,83.7467292 59.2980506,83.7467292 L51.3877406,83.7467292 C48.6805383,83.7467292 46.5411909,81.5347064 46.5411909,78.9001794 L46.5411909,72.7660196 C46.5411909,72.6207586 46.5411909,72.5547227 46.5411909,72.4094617 C46.5411909,72.3367863 46.5411909,72.1981648 46.5411909,72.1255791 C46.6138662,70.2701142 45.3262561,67.3450653 42.9756117,63.9246574 C42.1898206,63.0662806 41.4041191,62.1418679 40.8362643,61.0721941 C40.7636786,60.9269331 40.6910033,60.8608972 40.6249674,60.7156362 C39.1260604,58.1470555 38.3403589,55.2220065 38.3403589,52.3034176 C38.3403589,42.9602365 45.9734258,35.3338091 55.3099674,35.3338091 C64.6464192,35.261044 72.2794861,42.8874715 72.2794861,52.2306525 Z M61.5099837,73.478956 L49.1757178,73.478956 L49.1757178,75.9022757 L61.5099837,75.9022757 L61.5099837,73.478956 L61.5099837,73.478956 Z M61.5099837,79.045261 L61.5099837,78.5434421 L49.1757178,78.5434421 L49.1757178,79.045261 C49.3209788,80.1876101 50.2453915,81.0393475 51.3877406,81.0393475 L59.30469,81.0393475 C60.44031,81.0393475 61.3713622,80.1876101 61.5099837,79.045261 Z M69.63823,52.2306525 C69.63823,44.3137031 63.2201876,37.895571 55.3031485,37.895571 C47.3861093,37.895571 40.9681566,44.3137031 40.9681566,52.2306525 C40.9681566,54.7992333 41.6812724,57.2951387 42.9622431,59.5071615 L42.9622431,59.5071615 C42.9622431,59.5071615 42.9622431,59.5071615 42.9622431,59.5797471 C43.5300979,60.5041599 44.1771778,61.3625367 44.8902936,62.1483279 C44.962969,62.2210033 44.962969,62.2210033 45.0355546,62.2935889 C47.386199,65.6478711 48.7463948,68.5003344 49.1029527,70.8510685 L61.5826591,70.8510685 C62.0118923,67.9259299 64.0059788,64.5782871 65.7887684,62.082292 C65.7887684,62.0096166 65.8614437,62.0096166 65.9340294,61.937031 C66.5745595,61.2965008 67.1489641,60.5107993 67.5715579,59.7250082 C67.5715579,59.6523328 67.6442333,59.6523328 67.6442333,59.5797471 C67.6442333,59.5070718 67.7169086,59.5071615 67.7169086,59.4344861 C68.9977896,57.2951387 69.63823,54.7992333 69.63823,52.2306525 Z M36.055571,39.7510359 L33.4144046,38.1795432 C32.7738744,37.8229853 31.9881729,38.0342822 31.631615,38.6813622 C31.2750571,39.3218923 31.486354,40.1075938 32.1334339,40.4641517 L34.7746003,42.0356444 C34.9858972,42.1809054 35.2038336,42.1809054 35.4151305,42.1809054 C35.8443638,42.1809054 36.3395432,41.9696085 36.5574796,41.5403752 C36.907398,40.893385 36.6961011,40.1075938 36.055571,39.7510359 Z" id="Shape" fill-rule="nonzero"></path>
            </g>
        </g>
    </g>
</svg>