<?xml version="1.0" encoding="UTF-8"?>
<svg width="60px" height="57px" viewBox="0 0 60 57" version="1.1" xmlns="http://www.w3.org/2000/svg" xmlns:xlink="http://www.w3.org/1999/xlink">
    <!-- Generator: Sketch 54.1 (76490) - https://sketchapp.com -->
    <title>recycle</title>
    <desc>Created with Sketch.</desc>
    <g id="Mockups" stroke="none" stroke-width="1" fill="none" fill-rule="evenodd">
        <g id="ABOUT-US" transform="translate(-530.000000, -2227.000000)" fill="#303644" fill-rule="nonzero">
            <g id="recycle" transform="translate(530.500000, 2227.000000)">
                <path d="M44.4450233,15.2404819 L43.6627517,17.5060086 L35.750033,3.80129227 C34.4144501,1.48784104 32.0221182,0.106741158 29.3509522,0.106741158 C26.6796716,0.106741158 24.2874543,1.48795569 22.9517567,3.80129227 L12.8628255,21.2757715 L15.8411446,22.9953245 L25.9300758,5.52084532 C26.6441294,4.2840925 27.9228449,3.54584726 29.3509522,3.54584726 C30.7790595,3.54584726 32.0576603,4.2840925 32.7718286,5.52084532 L40.6844326,19.2257909 L38.3352099,18.7760105 L37.6885717,22.1538923 L45.1998931,23.591745 L47.6959852,16.3628119 L44.4450233,15.2404819 Z" id="Path"></path>
                <path d="M57.7003031,41.8415021 L47.6122892,24.3665643 L44.6337408,26.0858881 L54.7217548,43.5608259 C55.4355791,44.7975787 55.4355791,46.2742985 54.7215255,47.5109366 C54.0074718,48.7475748 52.7286417,49.4859347 51.300649,49.4858201 L35.3412981,49.4850175 L36.9041216,47.6768383 L34.3023202,45.4279363 L29.3013078,51.2136281 L34.3133269,56.9899184 L36.9108861,54.735857 L35.3390051,52.9242382 L51.3004197,52.9250408 C51.3005344,52.9250408 51.3007637,52.9250408 51.3008784,52.9250408 C53.9719297,52.9250408 56.3641469,51.5439409 57.6998445,49.2308337 C59.0356568,46.9173824 59.0357715,44.1549534 57.7003031,41.8415021 Z" id="Path"></path>
                <path d="M27.5834745,49.4406471 L7.40572678,49.4644948 C7.404007,49.4644948 7.40263117,49.4644948 7.40091139,49.4644948 C5.97486786,49.4644948 4.69718422,48.7278546 3.98244267,47.4933949 C3.26712787,46.2575593 3.26540808,44.7810688 3.97785659,43.5435134 L11.7082783,30.1174019 L12.4957093,32.3747882 L15.7430023,31.2420249 L13.9764419,26.1780684 L13.9782763,26.1748581 L13.9744928,26.1726798 L13.2239798,24.021232 L5.71735911,25.4829324 L6.37465993,28.8587505 L8.72835406,28.4003712 L0.997473766,41.8272853 C-0.335472211,44.142227 -0.332376603,46.9045414 1.00607268,49.2163875 C2.34303148,51.5258259 4.73284104,52.9036009 7.40079674,52.9036009 C7.40377769,52.9036009 7.4068733,52.9036009 7.4097396,52.9036009 L27.5874874,52.8798679 L27.5834745,49.4406471 Z" id="Path"></path>
                <path d="M34.5761096,23.4287097 C32.6509852,20.5751321 30.7545239,18.2816304 30.674726,18.1853226 L29.3509522,16.5887913 L28.0271784,18.1853226 C27.9473805,18.2816304 26.0509192,20.5751321 24.1256801,23.4287097 C21.3710474,27.5118169 20.0317956,30.5268247 20.0317956,32.6457112 C20.0317956,37.7841916 24.2123572,41.9647532 29.3509522,41.9647532 C34.4895472,41.9647532 38.6699942,37.7841916 38.6699942,32.6457112 C38.6699942,30.5268247 37.330857,27.5118169 34.5761096,23.4287097 Z M29.3509522,38.5256471 C26.1087038,38.5256471 23.4710163,35.8879596 23.4710163,32.6458259 C23.4710163,30.5298057 26.579007,25.6630509 29.3512962,22.0443995 C32.1234707,25.6612165 35.2308881,30.5267101 35.2308881,32.6458259 C35.2308881,35.8878449 32.5932005,38.5256471 29.3509522,38.5256471 Z" id="Shape"></path>
            </g>
        </g>
    </g>
</svg>