<?xml version="1.0" encoding="UTF-8"?>
<svg width="60px" height="59px" viewBox="0 0 60 59" version="1.1" xmlns="http://www.w3.org/2000/svg" xmlns:xlink="http://www.w3.org/1999/xlink">
    <!-- Generator: Sketch 54.1 (76490) - https://sketchapp.com -->
    <title>target</title>
    <desc>Created with Sketch.</desc>
    <g id="Mockups" stroke="none" stroke-width="1" fill="none" fill-rule="evenodd">
        <g id="ABOUT-US" transform="translate(-850.000000, -1889.000000)" fill="#303644" fill-rule="nonzero">
            <g id="target" transform="translate(850.500000, 1889.653320)">
                <path d="M57.6059342,27.2029648 C56.7227707,26.3882218 55.5213623,25.8849716 54.3096008,25.8219528 C52.9335404,25.7508316 51.6443558,26.2414779 50.6842194,27.2020645 L44.1239624,33.6934509 C43.9943237,33.4688339 43.8462296,33.2568206 43.6801301,33.060112 C42.8730392,32.1017761 41.6927872,31.5742188 40.3572388,31.5742188 L31.1735993,31.5742188 C29.4419327,31.5742188 27.7525788,31.3496017 26.1528015,30.9071198 C21.9818572,29.7534256 17.9972687,30.596077 14.6289139,33.3454972 C13.2591553,34.4636307 12.2598572,35.6798935 11.6278687,36.566658 L9.98127752,34.9686813 C9.76476285,34.7584686 9.4712753,34.639183 9.16923517,34.639183 C9.16653442,34.639183 9.16428378,34.639183 9.16158292,34.639183 C8.84873957,34.6414338 8.54624933,34.7715226 8.32928467,34.9965897 L0.324546785,43.3065186 C0.110282869,43.5288849 -0.00630187988,43.8277741 0.000450134277,44.1365662 C0.00720214844,44.4458084 0.136390715,44.739296 0.360107422,44.9522095 L13.8987961,57.8436051 C14.1234131,58.0574188 14.411499,58.1641007 14.6991349,58.1641007 C15.001175,58.1641007 15.303215,58.0466155 15.5305329,57.813446 L23.4605484,49.6777191 C23.677063,49.4553528 23.7972489,49.1515121 23.7913972,48.8409195 C23.7855453,48.5348282 23.6572571,48.2395401 23.4375916,48.0261764 L22.7470856,47.3563766 L24.327507,47.1785736 C25.2835922,47.0673905 26.2558822,47.0111237 27.2182694,47.0111237 L41.1908875,47.0111237 C43.4613647,47.0111237 45.38974,46.5146256 46.9228973,45.5351334 C46.9355012,45.5270309 46.9481048,45.5184783 46.9607087,45.5099259 C47.5098724,45.128212 48.0081711,44.675827 48.4412003,44.1658249 L57.857109,33.0884705 C59.4685898,31.192955 59.3677597,28.8274993 57.6059342,27.2029648 Z M14.6689758,55.3719177 L2.80613703,44.0762482 L9.19669345,37.4417191 L20.9902115,48.8863831 L14.6689758,55.3719177 Z M56.0885315,31.585022 L46.6726227,42.6628265 C46.3737336,43.0143814 46.0311813,43.3267746 45.6535187,43.5914535 C44.5025253,44.3202209 43.0013275,44.6902313 41.1908875,44.6902313 L27.2178192,44.6902313 C26.1667557,44.6902313 25.1039886,44.7518997 24.0637284,44.8729858 L20.589592,45.2628021 L13.315422,38.2037964 C13.8209229,37.4543228 14.7504501,36.2430115 16.0968018,35.1437835 C18.8957366,32.858902 22.0709839,32.1859513 25.5338669,33.1442871 C27.3353043,33.6425858 29.2326203,33.8955612 31.1735993,33.8955612 L40.3572388,33.8955612 C42.0065308,33.8955612 42.446762,35.3242874 42.446762,36.1682892 C42.446762,36.7849731 42.2487029,37.3719482 41.90345,37.7788696 C41.5289383,38.2195511 40.9964294,38.4428177 40.3207779,38.4428177 L32.3263932,38.4428177 C31.6854019,38.4428177 31.1659469,38.9627228 31.1659469,39.603714 C31.1659469,40.2447053 31.6854019,40.7641602 32.3263932,40.7641602 L40.3207779,40.7641602 C41.6702804,40.7641602 42.8604355,40.2375031 43.6724777,39.2814178 C44.3481292,38.4864807 44.7334442,37.4412689 44.7658538,36.3240356 L52.3213578,28.8477555 C53.4012298,27.7678833 55.0883332,28.0388641 56.0322647,28.9094238 C56.5202103,29.3595581 57.176506,30.3052902 56.0885315,31.585022 L56.0885315,31.585022 Z" id="Shape"></path>
                <path d="M28.7068635,39.2944718 C28.5605697,38.6701355 27.9362336,38.2834701 27.3118973,38.4293136 C26.6880111,38.5756072 26.3004456,39.1999435 26.4471893,39.8242798 L26.4579925,39.8715439 C26.58358,40.4063034 27.0602722,40.7673111 27.5869294,40.7673111 C27.6747055,40.7673111 27.7638321,40.7574081 27.8529587,40.736702 C28.4772949,40.5904084 28.8644104,39.9656219 28.7181168,39.3417358 L28.7068635,39.2944718 Z" id="Path"></path>
                <path d="M7.84494019,24.5449219 L19.1541138,24.5449219 C19.7698975,24.5449219 20.3397674,24.3450623 20.8034058,24.0074616 C21.2670441,24.3450623 21.8369141,24.5449219 22.4526978,24.5449219 L33.7623214,24.5449219 C34.3781051,24.5449219 34.9479752,24.3450623 35.4116134,24.0074616 C35.8752518,24.3450623 36.4451217,24.5449219 37.0609054,24.5449219 L48.370079,24.5449219 C49.9194413,24.5449219 51.1798172,23.2840958 51.1798172,21.7347336 L51.1798172,16.4609604 C51.1798172,14.0923538 49.8541717,12.03479 47.8699798,11.0197372 C48.8314666,9.86019132 49.4103394,8.37294766 49.4103394,6.75246427 C49.4103394,3.06091309 46.4070435,0.0576171875 42.7154923,0.0576171875 C39.0239411,0.0576171875 36.0206452,3.06091309 36.0206452,6.75246427 C36.0206452,8.37294766 36.5995178,9.86064142 37.5610046,11.0197372 C36.7034989,11.4590683 35.9693298,12.0933074 35.4116134,12.862587 C34.8538972,12.0928573 34.1197281,11.4586182 33.2617721,11.0197372 C34.2232589,9.86064142 34.8021317,8.37294766 34.8021317,6.75246427 C34.8021317,3.06091309 31.7988358,0.0576171875 28.1072845,0.0576171875 C24.4157333,0.0576171875 21.4124374,3.06091309 21.4124374,6.75246427 C21.4124374,8.37294766 21.9917603,9.86064142 22.9532471,11.0201873 C22.0952912,11.4590683 21.3611222,12.0933074 20.8034058,12.8630371 C20.2456894,12.0933074 19.5115203,11.4590683 18.6535645,11.0197372 C19.6150513,9.86064142 20.193924,8.37294766 20.193924,6.75291437 C20.193924,3.06091309 17.1906281,0.0576171875 13.4990768,0.0576171875 C9.80797574,0.0576171875 6.80467984,3.06091309 6.80467984,6.75291437 C6.80467984,8.37294766 7.38355258,9.86064142 8.3450394,11.0201873 C6.3608475,12.0352401 5.03475186,14.0932541 5.03475186,16.4614105 L5.03475186,21.7347336 C5.03475186,23.2840958 6.29557795,24.5449219 7.84494019,24.5449219 Z M42.7159424,2.37895963 C45.1273117,2.37895963 47.089447,4.34064487 47.089447,6.75246427 C47.089447,9.16383368 45.1273117,11.1259689 42.7159424,11.1259689 C40.3041229,11.1259689 38.3424377,9.16428378 38.3424377,6.75246427 C38.3419876,4.34064487 40.3041229,2.37895963 42.7159424,2.37895963 Z M39.7004928,12.7270965 C40.6075134,13.1866837 41.6315689,13.4473113 42.7154923,13.4473113 C43.7998657,13.4473113 44.8239212,13.1866837 45.7304916,12.7270965 C47.5341797,13.0412903 48.8589249,14.5956039 48.8589249,16.4609604 L48.8589249,21.7347336 C48.8589249,22.004364 48.6397095,22.2235794 48.370079,22.2235794 L37.0609054,22.2235794 C36.7917252,22.2235794 36.5725098,22.004364 36.5725098,21.7347336 L36.5725098,16.4609604 C36.5720597,14.596054 37.897255,13.0412903 39.7004928,12.7270965 Z M28.1077347,2.37895963 C30.519104,2.37895963 32.4812393,4.34064487 32.4812393,6.75246427 C32.4812393,9.16383368 30.519104,11.1259689 28.1077347,11.1259689 C25.6959152,11.1259689 23.7342301,9.16428378 23.7342301,6.75246427 C23.7342301,4.34064487 25.6959152,2.37895963 28.1077347,2.37895963 Z M25.0927353,12.7270965 C25.9993058,13.1866837 27.0233611,13.4473113 28.1077347,13.4473113 C29.1921082,13.4473113 30.2157136,13.1866837 31.122734,12.7270965 C32.925972,13.0412903 34.2511673,14.5956039 34.2511673,16.4609604 L34.2511673,21.7347336 C34.2511673,22.004364 34.0319519,22.2235794 33.7623214,22.2235794 L22.4531479,22.2235794 C22.1835174,22.2235794 21.9643021,22.004364 21.9643021,21.7347336 L21.9643021,16.4609604 C21.9643021,14.596054 23.2894974,13.0412903 25.0927353,12.7270965 Z M13.499527,2.37895963 C15.9108963,2.37895963 17.8730316,4.34064487 17.8730316,6.75246427 C17.8730316,9.16383368 15.9108963,11.1259689 13.499527,11.1259689 C11.0881576,11.1259689 9.12602228,9.16383368 9.12602228,6.75246427 C9.12602228,4.34064487 11.0881576,2.37895963 13.499527,2.37895963 Z M7.35609442,16.4609604 C7.35609442,14.596054 8.68128973,13.0412903 10.4845276,12.7270965 C11.3915482,13.1866837 12.4151535,13.4473113 13.499527,13.4473113 C14.5839005,13.4473113 15.6075058,13.1866837 16.5145264,12.7270965 C18.3182144,13.0412903 19.6429597,14.5956039 19.6429597,16.4609604 L19.6429597,21.7347336 C19.6429597,22.004364 19.4237442,22.2235794 19.1541138,22.2235794 L7.84494019,22.2235794 C7.57530972,22.2235794 7.35609442,22.004364 7.35609442,21.7347336 L7.35609442,16.4609604 Z" id="Shape"></path>
            </g>
        </g>
    </g>
</svg>