<?xml version="1.0" encoding="UTF-8"?>
<svg width="60px" height="59px" viewBox="0 0 60 59" version="1.1" xmlns="http://www.w3.org/2000/svg" xmlns:xlink="http://www.w3.org/1999/xlink">
    <!-- Generator: Sketch 54.1 (76490) - https://sketchapp.com -->
    <title>Shape</title>
    <desc>Created with Sketch.</desc>
    <g id="Mockups" stroke="none" stroke-width="1" fill="none" fill-rule="evenodd">
        <g id="ABOUT-US" transform="translate(-850.000000, -2230.000000)" fill="#449DD1" fill-rule="nonzero">
            <path d="M893.156075,2263.99414 L893.156975,2263.99414 C894.892243,2263.99414 896.004525,2265.84059 895.193833,2267.3751 C892.314324,2272.82893 886.584565,2276.55469 880,2276.55469 C870.367127,2276.55469 862.561798,2268.58101 862.837281,2258.88782 C863.093857,2249.84687 870.417992,2242.50293 879.458489,2242.2234 C886.26767,2242.01273 892.23375,2245.79026 895.192482,2251.39128 C896.003624,2252.92714 894.893593,2254.77539 893.156975,2254.77539 L893.155625,2254.77539 C892.303971,2254.77539 891.519387,2254.3068 891.122818,2253.55328 C889.018891,2249.55608 884.822289,2246.82422 880,2246.82422 C872.909485,2246.82422 867.172074,2252.72998 867.449356,2259.88126 C867.701882,2266.40641 872.995011,2271.69234 879.521057,2271.93631 C884.546807,2272.12402 888.955422,2269.34129 891.12732,2265.2077 C891.521637,2264.45688 892.308022,2263.99414 893.156075,2263.99414 Z M895.264054,2284.74848 C896.352928,2284.08903 896.700882,2282.67201 896.041436,2281.58359 C895.381539,2280.49471 893.964516,2280.14676 892.876091,2280.80621 C889.004936,2283.15096 884.552208,2284.39062 880,2284.39062 C866.275406,2284.39062 855.109375,2273.22459 855.109375,2259.5 C855.109375,2245.77541 866.275406,2234.60938 880,2234.60938 C893.724594,2234.60938 904.890625,2245.77541 904.890625,2259.5 C904.890625,2264.40781 903.43129,2269.18464 900.670166,2273.31507 C899.962555,2274.37289 900.24704,2275.80431 901.304856,2276.51192 C902.363571,2277.21954 903.794548,2276.9346 904.501709,2275.87679 C907.771935,2270.98608 909.5,2265.32294 909.5,2259.5 C909.5,2251.6204 906.431435,2244.21209 900.859673,2238.64033 C895.287911,2233.06857 887.879601,2230 880,2230 C872.1204,2230 864.71209,2233.06857 859.140328,2238.64033 C853.568566,2244.21209 850.5,2251.6204 850.5,2259.5 C850.5,2267.3796 853.568566,2274.78791 859.140328,2280.35967 C864.71209,2285.93143 872.1204,2289 880,2289 C885.394409,2289 890.672684,2287.52986 895.264054,2284.74848 Z" id="Shape"></path>
        </g>
    </g>
</svg>