<?xml version="1.0" encoding="UTF-8"?>
<svg width="64px" height="64px" viewBox="0 0 64 64" version="1.1" xmlns="http://www.w3.org/2000/svg" xmlns:xlink="http://www.w3.org/1999/xlink">
    <!-- Generator: Sketch 54.1 (76490) - https://sketchapp.com -->
    <title>Group 9</title>
    <desc>Created with Sketch.</desc>
    <g id="Mockups" stroke="none" stroke-width="1" fill="none" fill-rule="evenodd">
        <g id="ABOUT-US" transform="translate(-528.000000, -1887.000000)">
            <g id="Group-9" transform="translate(530.500000, 1889.653320)">
                <circle id="Oval" stroke="#4CB0C9" stroke-width="4" cx="29.5" cy="29.5" r="29.5"></circle>
                <path d="M11.5,9.5 L50,50" id="Line-3" stroke="#4CB0C9" stroke-width="4" stroke-linecap="square" transform="translate(30.500000, 29.500000) scale(-1, 1) translate(-30.500000, -29.500000) "></path>
                <g id="money" transform="translate(11.000000, 11.000000)" fill="#4CB0C9" fill-rule="nonzero">
                    <path d="M32.4445345,12.2017866 C32.4441358,12.2017866 32.4436573,12.2017866 32.4432586,12.2017866 L0.546706897,12.2017866 C0.245125,12.2014677 0.000318965517,12.4456358 4.72236326e-16,12.7472177 C4.72236326e-16,12.7476164 4.72236326e-16,12.7480948 4.72236326e-16,12.7484935 L4.72236326e-16,28.0588384 C-0.000318965517,28.3604203 0.243849138,28.6052263 0.545431034,28.6055453 C0.545829741,28.6055453 0.54630819,28.6055453 0.546706897,28.6055453 L22.2363621,28.6055453 C22.5382629,28.6055453 22.783069,28.3607392 22.783069,28.0588384 C22.783069,27.7569375 22.5382629,27.5121315 22.2363621,27.5121315 L1.09341379,27.5121315 L1.09341379,13.2952004 L31.8965517,13.2952004 L31.8965517,14.6622866 C31.8962328,14.9638685 32.1404009,15.2086746 32.4419828,15.2089935 C32.4423815,15.2089935 32.4428599,15.2089935 32.4432586,15.2089935 C32.7448405,15.2093125 32.9896466,14.9651444 32.9899655,14.6635625 C32.9899655,14.6631638 32.9899655,14.6626853 32.9899655,14.6622866 L32.9899655,12.7484935 C32.9902845,12.4469116 32.7461164,12.2021853 32.4445345,12.2017866 Z" id="Path"></path>
                    <path d="M28.7356034,9.66345905 L3.21836207,3.92207974 C3.07674138,3.89042241 2.92834267,3.91609914 2.80562069,3.99352802 C2.68305819,4.07159483 2.59637931,4.19495474 2.56448276,4.33673491 L1.28862069,10.0781142 C1.22307328,10.3729978 1.40903017,10.6651703 1.70391379,10.7307177 C1.99879741,10.7962651 2.29096983,10.6103082 2.35651724,10.3154246 L3.51308621,5.1092694 L28.4957414,10.7300797 C28.5352931,10.73925 28.575722,10.7437953 28.6163103,10.7434763 C28.9182112,10.7429181 29.1625388,10.4977134 29.1620603,10.1958125 C29.1615819,9.94056034 28.984556,9.71967672 28.7356034,9.66345905 Z" id="Path"></path>
                    <path d="M25.6371724,6.49995905 L10.3268276,0.120648707 C10.0607306,0.00972844828 9.754125,0.123678879 9.62510345,0.3815625 L8.34924138,2.93328664 C8.20514871,3.19978233 8.30434698,3.53270259 8.57092241,3.67679526 C8.8374181,3.82088793 9.17033836,3.72168966 9.31443103,3.45511422 C9.32009267,3.4446681 9.32543534,3.43398276 9.33037931,3.42313793 L9.33037931,3.42441379 L10.3772241,1.32944828 L25.2148621,7.51163793 C25.4942759,7.62821983 25.8153147,7.49632759 25.9318966,7.21691379 C26.0484784,6.93765948 25.9165862,6.61662069 25.6371724,6.49995905 Z" id="Path"></path>
                    <path d="M26.0237586,14.7535108 L20.9605,14.7535108 C20.6585991,14.7535108 20.4137931,14.9983168 20.4137931,15.3002177 C20.4137931,15.6021185 20.6585991,15.8469246 20.9605,15.8469246 L26.0237586,15.8469246 C26.3256595,15.8469246 26.5704655,15.6021185 26.5704655,15.3002177 C26.5704655,14.9983168 26.3256595,14.7535108 26.0237586,14.7535108 Z" id="Path"></path>
                    <path d="M15.8570517,14.7898728 C12.7566272,14.7898728 10.2432586,17.3032414 10.2432586,20.4036659 C10.2464483,23.5027349 12.7579828,26.0142694 15.8570517,26.0174591 C18.9574763,26.0174591 21.4708448,23.5040905 21.4708448,20.4036659 C21.4708448,17.3032414 18.9574763,14.7898728 15.8570517,14.7898728 Z M15.8570517,24.9967694 C13.320319,24.9967694 11.2639483,22.9403987 11.2639483,20.4036659 C11.2667392,17.8681293 13.3215151,15.8133534 15.8570517,15.8105625 C18.3937845,15.8105625 20.4501552,17.8669332 20.4501552,20.4036659 C20.4501552,22.9403987 18.3937845,24.9967694 15.8570517,24.9967694 Z" id="Shape"></path>
                    <path d="M31.1673966,16.5760797 C27.7863621,16.5760797 24.1501552,17.3747694 24.1501552,19.1278039 L24.1501552,34.4381487 C24.1501552,36.1911832 27.7863621,36.9898728 31.1673966,36.9898728 C34.548431,36.9898728 38.1846379,36.1911832 38.1846379,34.4381487 L38.1846379,19.1278039 C38.1846379,17.3747694 34.548431,16.5760797 31.1673966,16.5760797 Z M36.9087759,34.4285797 C36.8124483,34.7826315 34.8992931,35.7140108 31.1673966,35.7140108 C27.4355,35.7140108 25.5223448,34.7826315 25.4260172,34.4381487 L25.4260172,33.4353211 C26.7835345,34.1191832 29.0258621,34.4381487 31.1673966,34.4381487 C33.308931,34.4381487 35.5518966,34.1159935 36.9087759,33.4346832 L36.9087759,34.4285797 Z M36.9087759,31.8768556 C36.8124483,32.2309073 34.8992931,33.1622866 31.1673966,33.1622866 C27.4355,33.1622866 25.5223448,32.2309073 25.4260172,31.8864246 L25.4260172,30.883597 C26.7835345,31.5674591 29.0258621,31.8864246 31.1673966,31.8864246 C33.308931,31.8864246 35.5518966,31.5642694 36.9087759,30.8829591 L36.9087759,31.8768556 Z M36.9087759,29.3251315 C36.8124483,29.6791832 34.8992931,30.6105625 31.1673966,30.6105625 C27.4355,30.6105625 25.5223448,29.6791832 25.4260172,29.3347004 L25.4260172,28.3318728 C26.7835345,29.0157349 29.0258621,29.3347004 31.1673966,29.3347004 C33.308931,29.3347004 35.5518966,29.0125453 36.9087759,28.3312349 L36.9087759,29.3251315 Z M36.9087759,26.7734073 C36.8124483,27.1274591 34.8992931,28.0588384 31.1673966,28.0588384 C27.4355,28.0588384 25.5223448,27.1274591 25.4260172,26.7829763 L25.4260172,25.7801487 C26.7835345,26.4640108 29.0258621,26.7829763 31.1673966,26.7829763 C33.308931,26.7829763 35.5518966,26.4608211 36.9087759,25.7795108 L36.9087759,26.7734073 Z M36.9087759,24.2216832 C36.8124483,24.5757349 34.8992931,25.5071142 31.1673966,25.5071142 C27.4355,25.5071142 25.5223448,24.5757349 25.4260172,24.2312522 L25.4260172,23.2284246 C26.7835345,23.909097 29.0258621,24.2312522 31.1673966,24.2312522 C33.308931,24.2312522 35.5518966,23.909097 36.9087759,23.2277866 L36.9087759,24.2216832 Z M36.9087759,21.6699591 C36.8124483,22.0240108 34.8992931,22.9553901 31.1673966,22.9553901 C27.4355,22.9553901 25.5223448,22.0240108 25.4260172,21.679528 L25.4260172,20.6767004 C26.7835345,21.3573728 29.0258621,21.679528 31.1673966,21.679528 C33.308931,21.679528 35.5518966,21.3573728 36.9087759,20.6760625 L36.9087759,21.6699591 Z M31.1673966,20.4036659 C27.4412414,20.4036659 25.5287241,19.4748384 25.4260172,19.1392866 L25.4260172,19.1354591 C25.5287241,18.7801315 27.4412414,17.8519418 31.1673966,17.8519418 C34.8673966,17.8519418 36.7811897,18.7667349 36.9087759,19.1278039 C36.7811897,19.4888728 34.8673966,20.4036659 31.1673966,20.4036659 Z" id="Shape"></path>
                    <path d="M10.7536034,24.9597694 L5.93148276,24.9597694 L3.64513793,22.4590797 L3.64513793,18.312528 L6.17006897,15.8469246 L10.7536034,15.8469246 C11.0555043,15.8469246 11.3003103,15.6021185 11.3003103,15.3002177 C11.3003103,14.9983168 11.0555043,14.7535108 10.7536034,14.7535108 L5.94806897,14.7535108 C5.80517241,14.7531918 5.66777802,14.8088513 5.56531034,14.908528 L2.71567241,17.6879935 C2.60921767,17.8123901 2.55084698,17.9708362 2.55108621,18.1345453 L2.55108621,22.6715108 C2.55108621,22.8079483 2.60204095,22.9394418 2.69398276,23.0402349 L5.28589655,25.8752004 C5.3894806,25.9885927 5.53604526,26.0532629 5.6897069,26.0531832 L10.7536034,26.0531832 C11.0555043,26.0531832 11.3003103,25.8083772 11.3003103,25.5064763 C11.3003103,25.2045754 11.0555841,24.9597694 10.7536034,24.9597694 Z" id="Path"></path>
                    <path d="M16.1760172,19.7657349 L15.5380862,19.7657349 C15.3396897,19.7657349 15.2191207,19.6547349 15.2191207,19.6062522 C15.2191207,19.5577694 15.3396897,19.4467694 15.5380862,19.4467694 L17.1329138,19.4467694 C17.4852112,19.4467694 17.7708448,19.1611358 17.7708448,18.8088384 C17.7708448,18.4565409 17.4852112,18.1709073 17.1329138,18.1709073 L16.4949828,18.1709073 C16.4949828,17.8186099 16.2093491,17.5329763 15.8570517,17.5329763 C15.5047543,17.5329763 15.2191207,17.8186099 15.2191207,18.1709073 L15.2191207,18.1996142 C14.5115754,18.2995302 13.9755539,18.8892177 13.9432586,19.6030625 C13.9889504,20.4394698 14.7013599,21.0821056 15.5380862,21.041597 L16.1760172,21.041597 C16.3744138,21.041597 16.4949828,21.152597 16.4949828,21.2010797 C16.4949828,21.2495625 16.3744138,21.3605625 16.1760172,21.3605625 L14.5811897,21.3605625 C14.2288922,21.3605625 13.9432586,21.6461961 13.9432586,21.9984935 C13.9432586,22.3507909 14.2288922,22.6364246 14.5811897,22.6364246 L15.2191207,22.6364246 C15.2191207,22.988722 15.5047543,23.2743556 15.8570517,23.2743556 C16.2093491,23.2743556 16.4949828,22.988722 16.4949828,22.6364246 L16.4949828,22.6077177 C17.202528,22.5078017 17.7385496,21.9181142 17.7708448,21.2042694 C17.725153,20.3678621 17.0127435,19.7252263 16.1760172,19.7657349 Z" id="Path"></path>
                </g>
            </g>
        </g>
    </g>
</svg>